<?xml version="1.0" standalone="no"?>
<!DOCTYPE svg PUBLIC "-//W3C//DTD SVG 1.1//EN" "http://www.w3.org/Graphics/SVG/1.1/DTD/svg11.dtd" >
<svg xmlns="http://www.w3.org/2000/svg" xmlns:xlink="http://www.w3.org/1999/xlink" version="1.1">
<metadata>
Created by FontForge 20170731 at Fri Oct 21 18:20:51 2011
 By Aleksey,,,
2007 Erik Spiekermann, Christian Schwartz, Kris Sowersby published by FSI FontShop International GmbH
</metadata>
<defs>
<font id="MetaSerifPro-BlackIta" horiz-adv-x="1" >
  <font-face 
    font-family="MetaSerifPro-BlackIta"
    font-weight="900"
    font-style="italic"
    font-stretch="normal"
    units-per-em="1000"
    panose-1="2 1 10 4 5 1 1 2 1 2"
    ascent="763"
    descent="-237"
    x-height="523"
    cap-height="697"
    bbox="-772 -290 1626 1186"
    underline-thickness="83"
    underline-position="-247"
    unicode-range="U+000D-FEFF"
  />
<missing-glyph horiz-adv-x="553" 
d="M71 0v689h411v-689h-411zM121 50h311v589h-311v-589z" />
    <glyph glyph-name="f_b" unicode="fb" horiz-adv-x="912" 
d="M566 337l-53 -253q11 -19 41 -19q47 0 83.5 46.5t52.5 107.5t16 120q0 67 -45 67q-48 0 -95 -69zM357 144l88 416q5 25 5 40q0 64 -56 64q-62 0 -77 -76l-15 -72h99l-32 -80h-84l-95 -473q-16 -77 -67.5 -114t-127.5 -37q-54 0 -90 18v41q62 4 84.5 24.5t33.5 81.5
l90 459h-63l15 57l66 22l15 59q20 78 81 119t156 41q72 0 135 -33l92 29h13q7 -23 7 -53q0 -49 -15 -116l-32 -144q71 112 175 112q60 0 97 -42.5t37 -115.5q0 -167 -85 -276t-229 -109q-86 0 -116 63q-8 -27 -32 -49h-112q19 48 39 144z" />
    <glyph glyph-name="f_f" unicode="ff" horiz-adv-x="677" 
d="M436 516l5 22q10 44 10 66q0 55 -57 55q-34 0 -51.5 -19.5t-28.5 -70.5l-12 -53h134zM331 -9l87 445h-133l-95 -473q-16 -77 -67.5 -114t-127.5 -37q-54 0 -90 18v41q62 4 84.5 24.5t33.5 81.5l90 459h-63l15 57l66 22l10 41q41 174 248 174q75 0 145 -34q54 38 136 38
q93 0 147 -26l-18 -101h-102q0 30 -7 42.5t-25 12.5q-27 0 -37 -46l-21 -100h123l-34 -80h-106l-92 -459q-31 -151 -192 -151q-49 0 -85 18v41q59 4 78.5 24t31.5 82z" />
    <glyph glyph-name="f_f_b" unicode="ffb" horiz-adv-x="1217" 
d="M436 516l5 22q10 44 10 66q0 55 -57 55q-34 0 -51.5 -19.5t-28.5 -70.5l-12 -53h134zM871 337l-53 -253q11 -19 41 -19q47 0 83.5 46.5t52.5 107.5t16 120q0 67 -45 67q-48 0 -95 -69zM699 664q-62 0 -77 -76l-15 -72h99l-32 -80h-84l-92 -459q-31 -151 -192 -151
q-49 0 -85 18v41q59 4 78.5 24t31.5 82l87 445h-133l-95 -473q-16 -77 -67.5 -114t-127.5 -37q-54 0 -90 18v41q62 4 84.5 24.5t33.5 81.5l90 459h-63l15 57l66 22l10 41q41 174 248 174q79 0 146 -35q62 39 153 39q72 0 135 -33l92 29h13q7 -23 7 -53q0 -49 -15 -116
l-32 -144q71 112 175 112q60 0 97 -42.5t37 -115.5q0 -167 -85 -276t-229 -109q-86 0 -116 63q-8 -27 -32 -49h-112q19 48 39 144l88 416q5 25 5 40q0 64 -56 64z" />
    <glyph glyph-name="f_f_h" unicode="ffh" horiz-adv-x="1218" 
d="M915 730h13q6 -18 6 -52q0 -53 -14 -117l-35 -161q37 60 87 94.5t105 34.5q51 0 78 -29t27 -77q0 -22 -6 -46l-55 -232q-7 -30 -7 -41q0 -32 44 -32q7 0 31 2l4 -45q-67 -38 -144 -38q-106 0 -106 96q0 27 9 62l48 194q3 11 3 20q0 28 -29 28q-48 0 -110 -88l-67 -303
h-169l122 560q5 25 5 40q0 64 -56 64q-62 0 -77 -76l-15 -72h99l-32 -80h-84l-92 -459q-31 -151 -192 -151q-49 0 -85 18v41q59 4 78.5 24t31.5 82l87 445h-133l-95 -473q-16 -77 -67.5 -114t-127.5 -37q-54 0 -90 18v41q62 4 84.5 24.5t33.5 81.5l90 459h-63l15 57l66 22
l10 41q41 174 248 174q79 0 146 -35q62 39 153 39q32 0 55.5 -4.5t37.5 -10t42 -18.5zM436 516l5 22q10 44 10 66q0 55 -57 55q-34 0 -51.5 -19.5t-28.5 -70.5l-12 -53h134z" />
    <glyph glyph-name="f_f_i" unicode="ffi" horiz-adv-x="928" 
d="M436 516l5 22q10 44 10 66q0 55 -57 55q-34 0 -51.5 -19.5t-28.5 -70.5l-12 -53h134zM664 436h-74l-92 -459q-31 -151 -192 -151q-49 0 -85 18v41q59 4 78.5 24t31.5 82l87 445h-133l-95 -473q-16 -77 -67.5 -114t-127.5 -37q-54 0 -90 18v41q62 4 84.5 24.5t33.5 81.5
l90 459h-63l15 57l66 22l10 41q41 174 248 174q88 0 148 -36q66 40 173 40q99 0 180 -38l-27 -115h-119q0 45 -9.5 63t-39.5 18q-58 0 -72 -69l-16 -77h190q96 0 96 -80q0 -17 -7 -50l-57 -241q-7 -30 -7 -41q0 -17 10 -24.5t34 -7.5q7 0 31 2l4 -45q-67 -38 -144 -38
q-105 0 -105 97q0 25 8 61l52 221q4 16 4 30q0 36 -52 36z" />
    <glyph glyph-name="f_f_j" unicode="ffj" horiz-adv-x="909" 
d="M643 15l70 355q3 16 3 28q0 21 -12 29.5t-40 8.5h-74l-92 -459q-31 -151 -192 -151q-49 0 -85 18v41q59 4 78.5 24t31.5 82l87 445h-133l-95 -473q-16 -77 -67.5 -114t-127.5 -37q-54 0 -90 18v41q62 4 84.5 24.5t33.5 81.5l90 459h-63l15 57l66 22l10 41q41 174 248 174
q88 0 148 -36q66 40 173 40q99 0 180 -38l-27 -115h-119q0 45 -9.5 63t-39.5 18q-58 0 -72 -69l-16 -77h190q48 0 71.5 -19t23.5 -62q0 -21 -6 -49l-80 -390q-19 -90 -82 -135t-196 -64l-16 61q66 19 91 49t40 108zM436 516l5 22q10 44 10 66q0 55 -57 55q-34 0 -51.5 -19.5
t-28.5 -70.5l-12 -53h134z" />
    <glyph glyph-name="f_f_k" unicode="ffk" horiz-adv-x="1188" 
d="M1013 328l60 -189q13 -41 26.5 -55.5t39.5 -14.5q6 0 26 2l4 -42q-58 -38 -132 -38q-55 0 -81.5 22t-42.5 81l-47 175l191 247h161l-9 -43q-32 0 -74.5 -28t-81.5 -72zM630 0l120 560q5 25 5 40q0 64 -56 64q-62 0 -77 -76l-15 -72h99l-32 -80h-84l-92 -459
q-31 -151 -192 -151q-49 0 -85 18v41q59 4 78.5 24t31.5 82l87 445h-133l-95 -473q-16 -77 -67.5 -114t-127.5 -37q-54 0 -90 18v41q62 4 84.5 24.5t33.5 81.5l90 459h-63l15 57l66 22l10 41q41 174 248 174q79 0 146 -35q62 39 153 39q72 0 135 -33l92 29h13q7 -23 7 -53
q0 -49 -15 -116l-121 -561h-169zM436 516l5 22q10 44 10 66q0 55 -57 55q-34 0 -51.5 -19.5t-28.5 -70.5l-12 -53h134z" />
    <glyph glyph-name="f_f_l" unicode="ffl" horiz-adv-x="935" 
d="M436 516l5 22q10 44 10 66q0 55 -57 55q-34 0 -51.5 -19.5t-28.5 -70.5l-12 -53h134zM699 664q-62 0 -77 -76l-15 -72h99l-32 -80h-84l-92 -459q-31 -151 -192 -151q-49 0 -85 18v41q59 4 78.5 24t31.5 82l87 445h-133l-95 -473q-16 -77 -67.5 -114t-127.5 -37
q-54 0 -90 18v41q62 4 84.5 24.5t33.5 81.5l90 459h-63l15 57l66 22l10 41q41 174 248 174q79 0 146 -35q62 39 153 39q42 0 68.5 -7t66.5 -26l92 29h13q7 -23 7 -53q0 -49 -15 -116l-90 -416q-6 -25 -6 -40q0 -18 10 -25.5t33 -7.5q7 0 31 2l4 -45q-67 -38 -144 -38
q-104 0 -104 97q0 30 7 61l89 411q5 25 5 40q0 64 -56 64z" />
    <glyph glyph-name="f_f_t" unicode="fft" horiz-adv-x="989" 
d="M436 516l5 22q10 44 10 66q0 55 -57 55q-34 0 -51.5 -19.5t-28.5 -70.5l-12 -53h134zM670 734q70 0 124 -26l-18 -101h-99q0 22 -1 32t-5.5 16.5t-13.5 6.5q-11 0 -17 -9.5t-12 -36.5l-21 -100h140q15 40 42.5 79.5t59.5 62.5l107 8q-25 -59 -46 -150h119l-31 -80h-106
l-56 -260q-6 -30 -6 -49q0 -53 50 -53q35 0 68 12l8 -52q-61 -48 -161 -48q-68 0 -102 29.5t-34 79.5q0 34 10 81l54 260h-133l-92 -459q-31 -151 -192 -151q-49 0 -85 18v41q59 4 78.5 24t31.5 82l87 445h-133l-95 -473q-16 -77 -67.5 -114t-127.5 -37q-54 0 -90 18v41
q62 4 84.5 24.5t33.5 81.5l90 459h-63l15 57l66 22l10 41q41 174 248 174q75 0 145 -34q54 38 136 38z" />
    <glyph glyph-name="f_h" unicode="fh" horiz-adv-x="913" 
d="M383 734q32 0 55.5 -4.5t37.5 -10t42 -18.5l92 29h13q6 -18 6 -52q0 -53 -14 -117l-35 -161q37 60 87 94.5t105 34.5q51 0 78 -29t27 -77q0 -22 -6 -46l-55 -232q-7 -30 -7 -41q0 -32 44 -32q7 0 31 2l4 -45q-67 -38 -144 -38q-106 0 -106 96q0 27 9 62l48 194q3 11 3 20
q0 28 -29 28q-48 0 -110 -88l-67 -303h-169l122 560q5 25 5 40q0 64 -56 64q-62 0 -77 -76l-15 -72h99l-32 -80h-84l-95 -473q-16 -77 -67.5 -114t-127.5 -37q-54 0 -90 18v41q62 4 84.5 24.5t33.5 81.5l90 459h-63l15 57l66 22l15 59q20 78 81 119t156 41z" />
    <glyph glyph-name="f_i" unicode="fi" horiz-adv-x="623" 
d="M581 386l-57 -241q-7 -30 -7 -41q0 -17 10 -24.5t34 -7.5q7 0 31 2l4 -45q-67 -38 -144 -38q-105 0 -105 97q0 25 8 61l52 221q4 16 4 30q0 36 -52 36h-74l-95 -473q-16 -77 -67.5 -114t-127.5 -37q-54 0 -90 18v41q62 4 84.5 24.5t33.5 81.5l90 459h-63l15 57l66 22
l13 54q38 165 261 165q99 0 180 -38l-27 -115h-119q0 45 -9.5 63t-39.5 18q-58 0 -72 -69l-16 -77h190q96 0 96 -80q0 -17 -7 -50z" />
    <glyph glyph-name="f_j" unicode="fj" horiz-adv-x="604" 
d="M359 436h-74l-95 -473q-16 -77 -67.5 -114t-127.5 -37q-54 0 -90 18v41q62 4 84.5 24.5t33.5 81.5l90 459h-63l15 57l66 22l13 54q38 165 261 165q99 0 180 -38l-27 -115h-119q0 45 -9.5 63t-39.5 18q-58 0 -72 -69l-16 -77h190q48 0 71.5 -19t23.5 -62q0 -21 -6 -49
l-80 -390q-19 -90 -82 -135t-196 -64l-16 61q66 19 91 49t40 108l70 355q3 16 3 28q0 21 -12 29.5t-40 8.5z" />
    <glyph glyph-name="f_k" unicode="fk" horiz-adv-x="883" 
d="M383 734q72 0 135 -33l92 29h13q7 -23 7 -53q0 -49 -15 -116l-121 -561h-169l120 560q5 25 5 40q0 64 -56 64q-62 0 -77 -76l-15 -72h99l-32 -80h-84l-95 -473q-16 -77 -67.5 -114t-127.5 -37q-54 0 -90 18v41q62 4 84.5 24.5t33.5 81.5l90 459h-63l15 57l66 22l15 59
q20 78 81 119t156 41zM708 328l60 -189q13 -41 26.5 -55.5t39.5 -14.5q6 0 26 2l4 -42q-58 -38 -132 -38q-55 0 -81.5 22t-42.5 81l-47 175l191 247h161l-9 -43q-32 0 -74.5 -28t-81.5 -72z" />
    <glyph glyph-name="f_l" unicode="fl" horiz-adv-x="630" 
d="M23 -23l90 459h-63l15 57l66 22l15 59q20 78 81 119t156 41q42 0 68.5 -7t66.5 -26l92 29h13q7 -23 7 -53q0 -49 -15 -116l-90 -416q-6 -25 -6 -40q0 -18 10 -25.5t33 -7.5q7 0 31 2l4 -45q-67 -38 -144 -38q-104 0 -104 97q0 30 7 61l89 411q5 25 5 40q0 64 -56 64
q-62 0 -77 -76l-15 -72h99l-32 -80h-84l-95 -473q-16 -77 -67.5 -114t-127.5 -37q-54 0 -90 18v41q62 4 84.5 24.5t33.5 81.5z" />
    <glyph glyph-name="f_t" unicode="ft" horiz-adv-x="684" 
d="M302 516h140q15 40 42.5 79.5t59.5 62.5l107 8q-25 -59 -46 -150h119l-31 -80h-106l-56 -260q-6 -30 -6 -49q0 -53 50 -53q35 0 68 12l8 -52q-61 -48 -161 -48q-68 0 -102 29.5t-34 79.5q0 34 10 81l54 260h-133l-95 -473q-16 -77 -67.5 -114t-127.5 -37q-54 0 -90 18v41
q62 4 84.5 24.5t33.5 81.5l90 459h-63l15 57l66 22l14 59q18 77 76.5 118.5t143.5 41.5q70 0 124 -26l-18 -101h-99q0 22 -1 32t-5.5 16.5t-13.5 6.5q-11 0 -17 -9.5t-12 -36.5z" />
    <glyph glyph-name=".notdef" horiz-adv-x="553" 
d="M71 0v689h411v-689h-411zM121 50h311v589h-311v-589z" />
    <glyph glyph-name=".null" horiz-adv-x="0" 
 />
    <glyph glyph-name=".null" horiz-adv-x="0" 
 />
    <glyph glyph-name="nonmarkingreturn" horiz-adv-x="333" 
 />
    <glyph glyph-name="CR" unicode="&#xd;" horiz-adv-x="225" 
 />
    <glyph glyph-name="space" unicode=" " horiz-adv-x="225" 
 />
    <glyph glyph-name="exclam" unicode="!" horiz-adv-x="299" 
d="M339 704l-153 -476h-110l45 459zM215 90q0 -43 -30.5 -73t-72.5 -30t-72 30t-30 73q0 41 30 71t72 30t72.5 -30t30.5 -71z" />
    <glyph glyph-name="quotedbl" unicode="&#x22;" horiz-adv-x="443" 
d="M394 453h-105l49 256h105zM215 453h-105l49 256h105z" />
    <glyph glyph-name="numbersign" unicode="#" horiz-adv-x="579" 
d="M90 419l17 90h106l67 200h87l-67 -200h117l67 200h87l-67 -200h100l-17 -90h-112l-40 -118h99l-17 -90h-111l-70 -211h-87l70 211h-117l-70 -211h-87l70 211h-95l17 90h107l40 118h-94zM271 419l-40 -118h117l40 118h-117z" />
    <glyph glyph-name="dollar" unicode="$" horiz-adv-x="551" 
d="M202 -101h-59l17 88q-130 9 -190 62l26 143h113q0 -117 64 -137l43 221l-48 19q-126 50 -126 181q0 105 70 167.5t188 65.5l17 86h59l-17 -88q104 -7 182 -51l-28 -147h-112q0 98 -57 121l-38 -196l42 -17q75 -31 112 -72.5t37 -117.5q0 -113 -76.5 -174t-201.5 -66z
M336 157q0 34 -15.5 56.5t-49.5 39.5l-40 -202q46 5 75.5 31.5t29.5 74.5zM190 543q0 -55 61 -86l35 182q-43 -3 -69.5 -29t-26.5 -67z" />
    <glyph glyph-name="percent" unicode="%" horiz-adv-x="1078" 
d="M486 502q0 -120 -71 -190.5t-178 -70.5q-81 0 -126.5 46t-45.5 127q0 109 67 180t181 71q81 0 127 -43.5t46 -119.5zM244 293q36 0 57 42.5t38 131.5q10 53 10 80q0 65 -45 65q-66 0 -94 -173q-8 -51 -8 -78q0 -68 42 -68zM888 730l-608 -853h-82l610 853h80zM1073 252
q0 -120 -71 -190.5t-178 -70.5q-81 0 -126.5 46t-45.5 127q0 109 67 180t181 71q81 0 127 -43.5t46 -119.5zM831 43q36 0 57 42.5t38 131.5q10 53 10 80q0 65 -45 65q-66 0 -94 -173q-8 -51 -8 -78q0 -68 42 -68z" />
    <glyph glyph-name="ampersand" unicode="&#x26;" horiz-adv-x="720" 
d="M555 562q0 -119 -176 -185l134 -172q31 45 31 95q0 19 -13.5 26t-50.5 11l7 46h223l-7 -46q-36 -2 -52 -11.5t-26 -39.5q-24 -70 -72 -134l48 -61q20 -26 36 -34t48 -8l-8 -49h-223l-33 40q-96 -54 -219 -54q-94 0 -153 42.5t-59 122.5q0 141 200 183l-33 39
q-53 61 -53 134q0 86 68.5 144t184.5 58q92 0 145 -38.5t53 -108.5zM285 59q55 0 101 26l-164 208q-55 -40 -55 -124q0 -56 31.5 -83t86.5 -27zM350 642q-35 0 -58.5 -23t-23.5 -60q0 -47 66 -124l13 -16q72 61 72 139q0 39 -17.5 61.5t-51.5 22.5z" />
    <glyph glyph-name="quotesingle" unicode="'" horiz-adv-x="264" 
d="M215 453h-105l49 256h105z" />
    <glyph glyph-name="parenleft" unicode="(" horiz-adv-x="410" 
d="M301 -120l-44 -37q-88 40 -142.5 127t-54.5 223q0 221 91.5 364t290.5 218l38 -45q-127 -82 -187 -229t-60 -333q0 -104 13 -171t55 -117z" />
    <glyph glyph-name="parenright" unicode=")" horiz-adv-x="445" 
d="M144 738l44 37q87 -40 142 -126t55 -219q0 -226 -91.5 -369t-290.5 -218l-38 45q247 160 247 562q0 104 -13 171t-55 117z" />
    <glyph glyph-name="asterisk" unicode="*" horiz-adv-x="461" 
d="M435 464l-118 -13l7 -123l-69 -19l-47 119l-113 -50l-35 61l91 81l-76 94l47 55l104 -67l63 105l63 -26l-31 -119l120 -28z" />
    <glyph glyph-name="plus" unicode="+" horiz-adv-x="586" 
d="M294 507h88l-38 -197h192l-15 -78h-192l-39 -200h-88l39 200h-191l15 78h191z" />
    <glyph glyph-name="comma" unicode="," horiz-adv-x="278" 
d="M218 67q0 -81 -63 -140.5t-156 -78.5l-24 42q54 15 85.5 40t31.5 52q0 24 -27 36q-24 10 -37 25t-13 45q0 37 27 62.5t69 25.5q51 0 79 -32t28 -77z" />
    <glyph glyph-name="hyphen" unicode="-" horiz-adv-x="371" 
d="M308 217h-273l28 133h273z" />
    <glyph glyph-name="period" unicode="." horiz-adv-x="285" 
d="M215 90q0 -43 -30.5 -73t-72.5 -30t-72 30t-30 73q0 41 30 71t72 30t72.5 -30t30.5 -71z" />
    <glyph glyph-name="slash" unicode="/" horiz-adv-x="390" 
d="M470 761l-437 -910h-103l436 910h104z" />
    <glyph glyph-name="zero" unicode="0" horiz-adv-x="600" 
d="M565 316q0 -65 -18 -122.5t-54 -105t-97 -75t-139 -27.5q-102 0 -162 57t-60 154q0 61 18 118.5t53.5 106t95.5 78t136 29.5q103 0 165 -52.5t62 -160.5zM260 56q25 0 45 14t36 55q18 47 33 120.5t15 135.5q0 77 -54 77q-27 0 -45.5 -15t-32.5 -53q-20 -54 -34.5 -130.5
t-14.5 -138.5q0 -65 52 -65z" />
    <glyph glyph-name="one" unicode="1" horiz-adv-x="413" 
d="M373 516l-82 -385q-6 -32 -6 -39q0 -23 16.5 -32t59.5 -10l-10 -50h-361l10 50q63 3 83.5 19.5t31.5 67.5l54 258q-57 -28 -115 -41l-12 55l215 107h116z" />
    <glyph glyph-name="two" unicode="2" horiz-adv-x="479" 
d="M271 529q89 0 134 -37t45 -105q0 -44 -19.5 -80.5t-63.5 -69t-84 -54t-110 -54.5l-30 -14h290l-40 -115h-418l19 90l100 66q50 34 72 50t49.5 42t37 50t9.5 54q0 33 -16.5 51t-46.5 18q-62 0 -134 -57l-33 58q39 46 100.5 76.5t138.5 30.5z" />
    <glyph glyph-name="three" unicode="3" horiz-adv-x="452" 
d="M178 429q-72 0 -132 -52l-31 56q88 96 234 96q87 0 130 -41t43 -112t-46 -110.5t-123 -60.5q60 -6 94.5 -41.5t34.5 -83.5q0 -71 -34 -121.5t-91 -75.5t-114.5 -36t-120.5 -11q-71 0 -119 20l-18 65q60 -15 119 -15q97 0 148 43.5t51 128.5q0 40 -23 63t-66 23
q-36 0 -52 -2l17 78q40 -2 54 -2q119 0 119 117q0 74 -74 74z" />
    <glyph glyph-name="four" unicode="4" horiz-adv-x="586" 
d="M233 -179l39 183h-292l17 77l307 435h171l-357 -439h170q19 92 41 144.5t67 108.5l129 18l-57 -271h78l-16 -73h-78l-35 -164z" />
    <glyph glyph-name="five" unicode="5" horiz-adv-x="457" 
d="M408 107q0 -88 -54 -151t-135 -91.5t-176 -28.5q-65 0 -118 20l-11 62q49 -14 101 -14q22 0 47.5 4t55.5 16.5t53.5 31t39.5 51t16 73.5q0 94 -94 94q-67 0 -112 -19l110 361h346l-45 -141h-266l-43 -129q38 16 107 16q87 0 132.5 -43t45.5 -112z" />
    <glyph glyph-name="six" unicode="6" horiz-adv-x="582" 
d="M567 632q-241 -84 -318 -242q60 40 136 40q65 0 115.5 -45.5t50.5 -123.5q0 -135 -75 -205t-213 -70q-112 0 -172.5 56t-60.5 158t39 185.5t111 143t166.5 100t212.5 61.5zM310 348q-43 0 -85 -26q-29 -60 -29 -154q0 -121 66 -121q60 0 88.5 58.5t28.5 135.5
q0 107 -69 107z" />
    <glyph glyph-name="seven" unicode="7" horiz-adv-x="467" 
d="M492 516l-46 -133q-205 -214 -287 -522l-188 -28q104 298 377 539h-330l47 144h427z" />
    <glyph glyph-name="eight" unicode="8" horiz-adv-x="562" 
d="M10 134q0 73 45.5 113.5t124.5 67.5q-45 33 -65 66t-20 88q0 100 71 157t180 57q94 0 150 -36t56 -101q0 -69 -40 -104.5t-116 -58.5q69 -42 99 -81t30 -105q0 -102 -76 -156.5t-200 -54.5q-115 0 -177 40.5t-62 107.5zM224 286q-62 -63 -62 -138q0 -46 25 -72.5
t69 -26.5q51 0 78 25t27 64q0 41 -27.5 70t-109.5 78zM252 526q0 -55 92 -113q34 26 50 56.5t16 75.5q0 73 -76 73q-38 0 -60 -25t-22 -67z" />
    <glyph glyph-name="nine" unicode="9" horiz-adv-x="587" 
d="M-20 -122q127 34 223 96.5t139 150.5q-60 -40 -138 -40q-73 0 -120.5 43t-47.5 131q0 123 75.5 196.5t204.5 73.5q117 0 179 -59t62 -157q0 -207 -146.5 -331.5t-402.5 -156.5zM277 167q47 0 89 26q23 50 23 132q0 59 -18.5 98.5t-60.5 39.5q-29 0 -50 -17t-32 -45.5
t-15.5 -59.5t-4.5 -67q0 -107 69 -107z" />
    <glyph glyph-name="colon" unicode=":" horiz-adv-x="287" 
d="M262 373q0 -43 -30.5 -73t-72.5 -30t-72 30t-30 73q0 41 30 71t72 30t72.5 -30t30.5 -71zM215 90q0 -43 -30.5 -73t-72.5 -30t-72 30t-30 73q0 41 30 71t72 30t72.5 -30t30.5 -71z" />
    <glyph glyph-name="semicolon" unicode=";" horiz-adv-x="287" 
d="M262 373q0 -43 -30.5 -73t-72.5 -30t-72 30t-30 73q0 41 30 71t72 30t72.5 -30t30.5 -71zM218 67q0 -81 -63 -140.5t-156 -78.5l-24 42q54 15 85.5 40t31.5 52q0 24 -27 36q-24 10 -37 25t-13 45q0 37 27 62.5t69 25.5q51 0 79 -32t28 -77z" />
    <glyph glyph-name="less" unicode="&#x3c;" horiz-adv-x="513" 
d="M407 43l-337 203l17 85l422 237l-19 -103l-320 -176l255 -156z" />
    <glyph glyph-name="equal" unicode="=" horiz-adv-x="614" 
d="M50 153l16 79h467l-16 -79h-467zM81 313l16 79h467l-16 -79h-467z" />
    <glyph glyph-name="greater" unicode="&#x3e;" horiz-adv-x="532" 
d="M445 246l-415 -203l18 98l315 156l-250 176l19 95l330 -237z" />
    <glyph glyph-name="question" unicode="?" horiz-adv-x="494" 
d="M308 90q0 -43 -30.5 -73t-72.5 -30t-72 30t-30 73q0 41 30 71t72 30t72.5 -30t30.5 -71zM284 630q-35 0 -50.5 -21.5t-30.5 -76.5h-118l28 135q82 42 193 42q208 0 208 -146q0 -119 -144 -190q-70 -35 -94.5 -59.5t-24.5 -71.5q0 -3 0.5 -9.5t0.5 -7.5h-75q-19 23 -19 59
q0 80 109 161q37 27 53.5 54.5t16.5 71.5q0 59 -53 59z" />
    <glyph glyph-name="at" unicode="@" horiz-adv-x="908" 
d="M595 11q-73 0 -104.5 20.5t-31.5 62.5q-28 -44 -59.5 -65.5t-81.5 -21.5t-77.5 31t-27.5 90q0 125 84.5 223.5t212.5 98.5q113 0 163 -25q-20 -55 -27 -90l-45 -212q-3 -15 -3 -25q0 -33 46 -33q57 0 92.5 57t35.5 169q0 144 -78 215t-215 71q-155 0 -250.5 -103.5
t-95.5 -280.5q0 -144 81.5 -232t222.5 -88q89 0 161 24l15 -38q-88 -35 -188 -35q-171 0 -278 96.5t-107 273.5q0 189 126 310t315 121q175 0 281 -93.5t106 -246.5q0 -138 -78 -206t-195 -68zM473 178l49 204q-12 9 -32 9q-54 0 -94.5 -83.5t-40.5 -169.5q0 -26 6.5 -35
t20.5 -9q35 0 91 84z" />
    <glyph glyph-name="A" unicode="A" horiz-adv-x="650" 
d="M379 98l-10 77h-207l-32 -68q-8 -19 -8 -29q0 -25 51 -28l-9 -50h-224l9 50q32 4 48 15t33 44l304 588h138l100 -588q6 -34 14.5 -44.5t33.5 -14.5l-9 -50h-304l9 50q37 1 50.5 9.5t13.5 25.5q0 5 -1 13zM286 435l-84 -175h155l-22 170q-6 43 -6 88h-6q-13 -33 -37 -83z
" />
    <glyph glyph-name="B" unicode="B" horiz-adv-x="656" 
d="M346 617l-44 -229h24q72 0 98 26q40 38 40 120q0 50 -20 66.5t-66 16.5h-32zM353 311h-66l-46 -237h33q83 0 113 20q49 33 49 125q0 51 -20 71.5t-63 20.5zM460 355v-4q82 -7 123 -44.5t41 -99.5q0 -69 -36.5 -117t-100.5 -67q-75 -23 -196 -23h-311l9 50q36 0 53 14
t25 56l88 454q4 24 4 31q0 22 -12.5 30.5t-41.5 8.5l10 53h324q217 0 217 -157q0 -82 -56.5 -130.5t-139.5 -54.5z" />
    <glyph glyph-name="C" unicode="C" horiz-adv-x="634" 
d="M328 -14q-142 0 -213 72.5t-71 206.5q0 118 47 218t142.5 163t221.5 63q135 0 209 -51l-29 -146h-125q0 61 -15.5 88.5t-57.5 27.5q-91 0 -146.5 -118t-55.5 -298q0 -81 26.5 -113.5t79.5 -32.5q50 0 79.5 30t51.5 95h126l-30 -151q-36 -24 -104 -39t-136 -15z" />
    <glyph glyph-name="D" unicode="D" horiz-adv-x="713" 
d="M494 476q0 81 -23 111t-88 30h-37l-105 -543h33q50 0 84 12.5t59 50.5q32 49 54.5 143.5t22.5 195.5zM115 697h295q138 0 208 -67.5t70 -196.5q0 -210 -118 -339q-87 -94 -260 -94h-330l9 50q36 0 53 14t25 56l88 454q4 24 4 31q0 22 -12.5 30.5t-41.5 8.5z" />
    <glyph glyph-name="E" unicode="E" horiz-adv-x="604" 
d="M629 697l-22 -177h-88q-6 61 -20.5 79t-68.5 18h-84l-44 -230h48q46 0 64.5 14t30.5 57h77l-43 -218h-77q2 14 2 24q0 26 -14.5 36.5t-53.5 10.5h-49l-46 -237h105q48 0 74 24t45 92h89l-36 -190h-538l9 50q36 0 53 14t25 56l88 454q4 24 4 31q0 22 -12.5 30.5t-41.5 8.5
l10 53h514z" />
    <glyph glyph-name="F" unicode="F" horiz-adv-x="574" 
d="M287 311l-37 -191q-3 -17 -3 -29q0 -24 16 -32.5t57 -8.5l-9 -50h-331l9 50q36 0 53 14t25 56l88 454q4 24 4 31q0 22 -12.5 30.5t-41.5 8.5l10 53h514l-22 -177h-88q-6 61 -20.5 79t-68.5 18h-84l-44 -230h48q46 0 64.5 14t30.5 57h77l-43 -218h-77q2 14 2 24
q0 26 -14.5 36.5t-53.5 10.5h-49z" />
    <glyph glyph-name="G" unicode="G" horiz-adv-x="710" 
d="M417 78l30 154q4 18 4 31q0 22 -15 30.5t-52 8.5l11 52h315l-10 -52q-38 0 -54.5 -14t-24.5 -56l-37 -191q-44 -25 -108.5 -40t-124.5 -15q-153 0 -229.5 71t-76.5 207q0 87 27 165.5t77.5 141.5t133.5 100.5t186 37.5q135 0 216 -51l-29 -146h-121q0 62 -18.5 89
t-65.5 27q-96 0 -155.5 -113t-59.5 -291q0 -89 27 -125t87 -36q40 0 67 15z" />
    <glyph glyph-name="H" unicode="H" horiz-adv-x="772" 
d="M468 120l37 190h-218l-37 -190q-4 -24 -4 -31q0 -22 12.5 -30.5t41.5 -8.5l-9 -50h-311l9 50q36 0 53 14t25 56l88 454q4 24 4 31q0 22 -12.5 30.5t-41.5 8.5l10 53h311l-10 -53q-36 0 -53 -14t-25 -56l-35 -179h218l35 179q4 24 4 31q0 22 -12.5 30.5t-41.5 8.5l10 53
h311l-10 -53q-36 0 -53 -14t-25 -56l-88 -454q-4 -24 -4 -31q0 -22 12.5 -30.5t41.5 -8.5l-9 -50h-311l9 50q36 0 53 14t25 56z" />
    <glyph glyph-name="I" unicode="I" horiz-adv-x="371" 
d="M67 120l88 454q4 24 4 31q0 22 -12.5 30.5t-41.5 8.5l10 53h311l-10 -53q-36 0 -53 -14t-25 -56l-88 -454q-4 -24 -4 -31q0 -22 12.5 -30.5t41.5 -8.5l-9 -50h-311l9 50q36 0 53 14t25 56z" />
    <glyph glyph-name="J" unicode="J" horiz-adv-x="366" 
d="M63 100l92 474q4 24 4 31q0 22 -12.5 30.5t-41.5 8.5l10 53h311l-10 -53q-36 0 -53 -14t-25 -56l-94 -484q-24 -121 -100.5 -176.5t-221.5 -60.5l-14 51q79 22 108 63t47 133z" />
    <glyph glyph-name="K" unicode="K" horiz-adv-x="683" 
d="M67 120l88 454q4 24 4 31q0 22 -12.5 30.5t-41.5 8.5l10 53h311l-10 -53q-36 0 -53 -14t-25 -56l-88 -454q-4 -24 -4 -31q0 -22 12.5 -30.5t41.5 -8.5l-9 -50h-311l9 50q36 0 53 14t25 56zM642 588l-174 -180l123 -309q11 -26 26.5 -36.5t44.5 -12.5l-9 -50h-225
l-119 340l226 252q12 14 12 28q0 26 -34 26l10 51h230l-10 -51q-30 -4 -51 -16.5t-50 -41.5z" />
    <glyph glyph-name="L" unicode="L" horiz-adv-x="574" 
d="M338 574l-97 -500h72q49 0 82.5 28.5t60.5 99.5h91l-53 -202h-514l9 50q36 0 53 14t25 56l88 454q4 24 4 31q0 22 -12.5 30.5t-41.5 8.5l10 53h311l-10 -53q-36 0 -53 -14t-25 -56z" />
    <glyph glyph-name="M" unicode="M" horiz-adv-x="914" 
d="M954 697l-10 -52q-50 -3 -64.5 -18t-20.5 -58l-56 -441q-2 -15 -2 -31q0 -26 12 -36t46 -11l-9 -50h-315l9 50q46 1 59 14t19 57l39 293q10 80 22 145h-6q-33 -88 -61 -146l-201 -413h-106l-34 399q-3 38 -3 74q0 53 3 86h-6q-15 -86 -33 -146l-83 -291q-7 -24 -7 -37
q0 -20 13 -27.5t45 -7.5l-9 -50h-230l9 50q42 1 58 16.5t29 61.5l125 441q8 27 8 41q0 18 -13.5 25.5t-49.5 9.5l10 52h285l22 -316q4 -60 4 -111q0 -11 -0.5 -23.5t-0.5 -13.5h6q14 59 50 138l150 326h297z" />
    <glyph glyph-name="N" unicode="N" horiz-adv-x="710" 
d="M555 395l35 179q4 24 4 31q0 22 -12.5 30.5t-41.5 8.5l10 53h220l-10 -53q-36 0 -53 -14t-25 -56l-111 -574h-113l-170 377q-19 41 -31 79.5t-15.5 57.5t-3.5 28h-6q-9 -100 -22 -165l-49 -257q-4 -24 -4 -31q0 -22 12.5 -30.5t41.5 -8.5l-9 -50h-222l9 50q36 0 53 14
t25 56l88 454q4 24 4 31q0 22 -12.5 30.5t-41.5 8.5l10 53h243l135 -302q35 -79 35 -140h6q3 45 21 140z" />
    <glyph glyph-name="O" unicode="O" horiz-adv-x="716" 
d="M323 -14q-135 0 -207 81t-72 211q0 61 14 122t44.5 116.5t72.5 98.5t102.5 68.5t131.5 25.5q131 0 206.5 -77.5t75.5 -215.5q0 -64 -13.5 -125t-43 -117t-72 -97.5t-104 -66t-135.5 -24.5zM409 629q-59 0 -91 -51q-42 -68 -62.5 -169.5t-20.5 -199.5q0 -147 87 -147
q63 0 97 50q39 57 59.5 161t20.5 201q0 82 -20 118.5t-70 36.5z" />
    <glyph glyph-name="P" unicode="P" horiz-adv-x="628" 
d="M277 258l-27 -138q-3 -17 -3 -29q0 -24 16 -32.5t57 -8.5l-9 -50h-331l9 50q36 0 53 14t25 56l88 454q4 24 4 31q0 22 -12.5 30.5t-41.5 8.5l10 53h305q118 0 178 -44.5t60 -146.5q0 -76 -36.5 -134.5t-110.5 -88.5q-63 -25 -162 -25h-72zM470 509q0 57 -20 82.5
t-68 25.5h-36l-53 -274h34q66 0 98 30q45 42 45 136z" />
    <glyph glyph-name="Q" unicode="Q" horiz-adv-x="716" 
d="M210 2q-81 32 -123.5 105.5t-42.5 172.5q0 77 23.5 152t67 137.5t115 101t159.5 38.5q131 0 206.5 -77.5t75.5 -215.5q0 -152 -74.5 -270.5t-216.5 -146.5q78 -28 172 -28q46 0 83 8l-52 -128q-27 -17 -88 -17q-48 0 -92.5 21.5t-74 48t-68 56.5t-70.5 42zM409 629
q-59 0 -91 -51q-42 -68 -62.5 -169.5t-20.5 -199.5q0 -147 87 -147q34 0 55 9.5t42 40.5q38 59 59 163t21 199q0 82 -20 118.5t-70 36.5z" />
    <glyph glyph-name="R" unicode="R" horiz-adv-x="675" 
d="M444 306v-4q26 -9 53 -29t41 -45q25 -44 49 -120q10 -32 22 -45t38 -13l-9 -50h-215q-29 115 -54 193q-15 47 -34 64t-54 23l-31 -160q-4 -24 -4 -31q0 -22 12.5 -30.5t41.5 -8.5l-9 -50h-311l9 50q36 0 53 14t25 56l88 454q4 24 4 31q0 22 -12.5 30.5t-41.5 8.5l10 53
h308q238 0 238 -173q0 -91 -59.5 -146.5t-157.5 -71.5zM346 617l-49 -255h42q63 0 99 45t36 119q0 49 -20.5 70t-68.5 21h-39z" />
    <glyph glyph-name="S" unicode="S" horiz-adv-x="551" 
d="M235 -14q-90 0 -151 19t-89 44l26 143h118q-1 -73 24 -107.5t80 -34.5q48 0 77.5 26.5t29.5 80.5q0 41 -19 63.5t-68 43.5l-67 28q-126 53 -126 186q0 107 73.5 169t194.5 62q129 0 222 -53l-28 -147h-114q2 69 -21.5 99.5t-73.5 30.5q-46 0 -73.5 -25.5t-27.5 -68.5
q0 -61 75 -93l72 -30q76 -31 113.5 -73.5t37.5 -121.5q0 -115 -80 -178t-205 -63z" />
    <glyph glyph-name="T" unicode="T" horiz-adv-x="634" 
d="M110 697h579l-26 -197h-87q-6 75 -17.5 96t-54.5 21h-29l-96 -497q-3 -18 -3 -30q0 -23 14 -31.5t49 -8.5l-9 -50h-331l9 50q44 0 62 14t26 56l96 497h-29q-46 0 -65 -22t-51 -95h-87z" />
    <glyph glyph-name="U" unicode="U" horiz-adv-x="691" 
d="M512 228l67 346q4 24 4 31q0 22 -12.5 30.5t-41.5 8.5l10 53h217l-10 -53q-36 0 -53 -14t-25 -56l-67 -346q-23 -120 -87 -181t-182 -61q-252 0 -255 192q0 42 9 92l59 304q4 24 4 31q0 22 -12.5 30.5t-41.5 8.5l10 53h311l-10 -53q-36 0 -53 -14t-25 -56l-62 -317
q-9 -49 -9 -84q1 -49 28 -72t84 -23q114 0 143 150z" />
    <glyph glyph-name="V" unicode="V" horiz-adv-x="673" 
d="M357 0h-140l-93 589q-5 33 -13.5 42t-35.5 13l10 53h300l-10 -53q-36 0 -50 -14t-11 -40l41 -331q4 -33 4 -80h6q16 41 37 83l163 328q9 17 7 30q-5 24 -50 24l10 53h226l-10 -53q-33 -4 -48 -13.5t-32 -42.5z" />
    <glyph glyph-name="W" unicode="W" horiz-adv-x="948" 
d="M523 0l-15 282q-1 16 -1 48q0 77 5 107h-6q-22 -84 -49 -144l-128 -293h-173l-32 587q-2 33 -12 43t-37 14l10 53h297l-10 -53q-62 0 -62 -47v-3l8 -313v-21q0 -28 -4 -108h6q26 91 43 132l166 413h131l19 -448q2 -36 -3 -96h6q15 64 41 130l119 310q6 15 6 25
q0 26 -51 26l10 53h226l-10 -53q-34 -4 -50 -14t-30 -42l-248 -588h-172z" />
    <glyph glyph-name="X" unicode="X" horiz-adv-x="700" 
d="M636 588l-188 -207l122 -272q14 -31 28 -43t42 -16l-9 -50h-313l9 50q34 0 46.5 15.5t1.5 42.5l-66 156h-6l-121 -148q-20 -24 -20 -40q0 -24 43 -26l-9 -50h-226l9 50q30 4 50.5 16.5t45.5 42.5l195 234l-107 245q-13 30 -25 41t-36 15l11 53h299l-10 -53q-54 0 -54 -31
q0 -8 5 -21l57 -137h6l110 132q18 21 18 36q0 21 -38 21l10 53h226l-10 -53q-30 -4 -50 -15.5t-46 -40.5z" />
    <glyph glyph-name="Y" unicode="Y" horiz-adv-x="643" 
d="M375 347h6l145 239q12 21 12 32q0 26 -42 26l10 53h222l-10 -53q-31 -4 -46 -13.5t-36 -42.5l-226 -333l-26 -135q-3 -18 -3 -30q0 -23 14 -31.5t49 -8.5l-9 -50h-331l9 50q44 0 62 14t26 56l26 134l-95 334q-9 33 -20 42.5t-37 13.5l10 53h289l-10 -53q-48 0 -48 -40
q0 -6 2 -18z" />
    <glyph glyph-name="Z" unicode="Z" horiz-adv-x="579" 
d="M618 641l-411 -567h112q56 0 85.5 26.5t59.5 96.5h88l-48 -197h-534l10 56l415 569h-95q-48 0 -73.5 -25t-53.5 -88h-92l44 185h504z" />
    <glyph glyph-name="bracketleft" unicode="[" horiz-adv-x="382" 
d="M281 -155h-271l181 928h271l-12 -62h-106l-157 -804h106z" />
    <glyph glyph-name="backslash" unicode="\" horiz-adv-x="438" 
d="M210 761l173 -910h-100l-173 910h100z" />
    <glyph glyph-name="bracketright" unicode="]" horiz-adv-x="382" 
d="M116 773h271l-181 -928h-271l12 62h106l157 804h-106z" />
    <glyph glyph-name="asciicircum" unicode="^" horiz-adv-x="539" 
d="M504 310h-112l-71 276l-174 -276h-117l260 398h108z" />
    <glyph glyph-name="underscore" unicode="_" horiz-adv-x="496" 
d="M442 -125h-500v83h500v-83z" />
    <glyph glyph-name="grave" unicode="`" horiz-adv-x="440" 
d="M360 590l-28 -36l-252 97l88 139z" />
    <glyph glyph-name="a" unicode="a" horiz-adv-x="593" 
d="M338 196l56 237q-14 14 -43 14q-40 0 -77 -45t-58.5 -111t-21.5 -129q0 -69 33 -69q43 0 111 103zM322 93q-68 -107 -173 -107q-61 0 -95 38.5t-34 109.5q0 100 44.5 191.5t120 147.5t159.5 56t100 -59q15 27 41 46h107q-24 -55 -41 -128l-55 -243q-7 -30 -7 -41
q0 -17 10 -24.5t34 -7.5q15 0 31 2l4 -45q-67 -38 -144 -38q-70 0 -91 45q-11 24 -11 57z" />
    <glyph glyph-name="b" unicode="b" horiz-adv-x="595" 
d="M249 337l-53 -253q11 -19 43 -19q47 0 83 46.5t51.5 107.5t15.5 120q0 67 -45 67q-48 0 -95 -69zM298 561l-32 -144q71 112 175 112q61 0 97.5 -45.5t36.5 -131.5q0 -151 -86 -258.5t-214 -107.5q-100 0 -130 63q-8 -27 -32 -49h-112q15 38 39 144l89 421q5 21 5 42
q0 25 -12.5 35t-42.5 10l12 52l202 26h13q7 -23 7 -53q0 -49 -15 -116z" />
    <glyph glyph-name="c" unicode="c" horiz-adv-x="483" 
d="M340 529q103 0 153 -42l-21 -116h-114q2 47 -4.5 67t-32.5 20q-49 0 -82.5 -80t-33.5 -188q0 -104 83 -104q36 0 59 9.5t56 32.5l35 -50q-75 -92 -209 -92q-95 0 -147 56t-52 157q0 81 35 155t107.5 124.5t167.5 50.5z" />
    <glyph glyph-name="d" unicode="d" horiz-adv-x="613" 
d="M418 512l11 53q5 22 5 42q0 25 -12.5 35t-42.5 10l12 52l202 26h13q7 -23 7 -53q0 -49 -15 -116l-90 -416q-6 -25 -6 -40q0 -18 9.5 -25.5t33.5 -7.5q7 0 31 2l4 -45q-67 -38 -144 -38q-67 0 -90 43q-12 24 -12 59q-32 -50 -80 -78.5t-103 -28.5q-61 0 -96 38.5
t-35 109.5q0 100 45.5 191.5t122 147.5t161.5 56q44 0 69 -17zM347 196l52 237q-14 14 -43 14q-41 0 -79 -43t-60.5 -109.5t-22.5 -132.5q0 -69 35 -69q50 0 118 103z" />
    <glyph glyph-name="e" unicode="e" horiz-adv-x="531" 
d="M521 386q0 -171 -294 -171h-23q-3 -15 -3 -43q0 -85 88 -85q84 0 146 53l33 -46q-92 -108 -231 -108q-103 0 -155 52t-52 148q0 143 89.5 243t216.5 100q185 0 185 -143zM366 410q0 22 -11 34.5t-30 12.5q-35 0 -64.5 -47t-45.5 -127q21 0 41 3q110 16 110 124z" />
    <glyph glyph-name="f" unicode="f" horiz-adv-x="372" 
d="M285 436l-95 -473q-16 -77 -67.5 -114t-127.5 -37q-54 0 -90 18v41q62 4 84.5 24.5t33.5 81.5l90 459h-63l15 57l66 22l14 59q18 77 78.5 118.5t141.5 41.5q93 0 147 -26l-18 -101h-102q0 30 -7 42.5t-25 12.5q-27 0 -37 -46l-21 -100h123l-34 -80h-106z" />
    <glyph glyph-name="g" unicode="g" horiz-adv-x="541" 
d="M575 546l36 -108q-32 -20 -82 -20q-40 0 -66 16q35 -30 35 -85q0 -66 -57 -109.5t-184 -43.5q-5 0 -15.5 0.5t-12.5 0.5q-50 -12 -50 -33q0 -17 21 -19l130 -17q71 -9 109.5 -37.5t38.5 -91.5q0 -55 -24 -95t-66 -63t-93 -33.5t-112 -10.5q-116 0 -174.5 22.5t-58.5 77.5
q0 50 54 74l122 3q-20 -30 -20 -57q0 -30 21.5 -41.5t63.5 -11.5q127 0 127 77q0 27 -20 37t-67 15q-115 12 -130 14q-77 11 -77 79q0 93 134 124q-110 25 -110 131q0 87 66.5 137.5t177.5 50.5q40 0 99 -13t77 -13q58 0 107 43zM262 262q40 0 59 37.5t19 98.5q0 63 -49 63
q-40 0 -59 -39.5t-19 -96.5q0 -32 14.5 -47.5t34.5 -15.5z" />
    <glyph glyph-name="h" unicode="h" horiz-adv-x="600" 
d="M334 149l48 194q3 11 3 20q0 28 -29 28q-48 0 -110 -88l-67 -303h-169l123 565q5 21 5 43q0 24 -12.5 34t-42.5 10l12 52l202 26h13q6 -18 6 -52q0 -53 -14 -117l-35 -161q37 60 87 94.5t105 34.5q51 0 78 -29t27 -77q0 -22 -6 -46l-55 -232q-7 -30 -7 -41q0 -32 44 -32
q7 0 31 2l4 -45q-67 -38 -144 -38q-106 0 -106 96q0 27 9 62z" />
    <glyph glyph-name="i" unicode="i" horiz-adv-x="313" 
d="M271 386l-57 -241q-7 -30 -7 -41q0 -17 10 -24.5t34 -7.5q7 0 31 2l4 -45q-67 -38 -144 -38q-105 0 -105 97q0 25 8 61l51 208q6 23 6 38q0 49 -67 49l9 42q70 37 139 37q95 0 95 -85q0 -19 -7 -52zM324 660q0 -38 -28 -65t-67 -27q-38 0 -66 27t-28 65t28 65.5t68 27.5
q39 0 66 -27.5t27 -65.5z" />
    <glyph glyph-name="j" unicode="j" horiz-adv-x="292" 
d="M269 386l-80 -390q-19 -90 -82 -135t-196 -64l-16 61q65 19 90 48.5t41 108.5l68 342q4 20 4 37q0 27 -15 38.5t-50 11.5l9 42q70 37 139 37q94 0 94 -86q0 -23 -6 -51zM322 660q0 -38 -28 -65t-67 -27q-38 0 -66 27t-28 65t28 65.5t68 27.5q39 0 66 -27.5t27 -65.5z" />
    <glyph glyph-name="k" unicode="k" horiz-adv-x="568" 
d="M393 328l60 -189q13 -41 26.5 -55.5t39.5 -14.5q10 0 26 2l4 -42q-58 -38 -132 -38q-55 0 -81.5 22t-42.5 81l-47 175l191 247h161l-9 -43q-32 0 -74.5 -28t-81.5 -72zM179 0h-169l121 565q5 21 5 42q0 25 -12.5 35t-42.5 10l12 52l202 26h13q6 -20 6 -53q0 -54 -14 -116
z" />
    <glyph glyph-name="l" unicode="l" horiz-adv-x="312" 
d="M38 149l90 416q5 21 5 42q0 25 -12.5 35t-42.5 10l12 52l202 26h13q7 -23 7 -53q0 -49 -15 -116l-90 -416q-6 -25 -6 -40q0 -18 9.5 -25.5t35.5 -7.5q11 0 29 2l4 -45q-67 -38 -144 -38q-104 0 -104 97q0 30 7 61z" />
    <glyph glyph-name="m" unicode="m" horiz-adv-x="889" 
d="M623 149l47 190q3 12 3 20q0 28 -29 28q-39 0 -99 -84l-63 -303h-169l71 339q3 12 3 20q0 28 -29 28q-39 0 -99 -84l-65 -303h-169l81 376q6 26 -1 41q-12 26 -63 27l9 42q74 37 138 37q84 0 84 -102q0 -17 -1 -27q81 135 185 135q49 0 77 -32t28 -80q0 -8 -2 -22
q87 134 188 134q51 0 78 -29t27 -77q0 -22 -6 -46l-55 -232q-7 -30 -7 -41q0 -17 10 -24.5t34 -7.5q7 0 31 2l4 -45q-67 -38 -144 -38q-106 0 -106 96q0 27 9 62z" />
    <glyph glyph-name="n" unicode="n" horiz-adv-x="613" 
d="M347 149l48 194q3 11 3 20q0 28 -29 28q-48 0 -110 -88l-65 -303h-169l81 376q2 8 2 22q0 45 -66 46l9 42q74 37 138 37q84 0 84 -102q0 -17 -1 -27q81 135 200 135q51 0 78 -29t27 -77q0 -22 -6 -46l-55 -232q-7 -30 -7 -41q0 -18 10 -25t34 -7q11 0 31 2l4 -45
q-67 -38 -144 -38q-106 0 -106 96q0 27 9 62z" />
    <glyph glyph-name="o" unicode="o" horiz-adv-x="567" 
d="M546 316q0 -138 -76 -234t-224 -96q-100 0 -158.5 57t-58.5 154q0 61 18 118.5t52.5 106t93 78t132.5 29.5q100 0 160.5 -52.5t60.5 -160.5zM251 56q51 0 76 69q17 46 30.5 119.5t13.5 136.5q0 77 -50 77q-25 0 -42 -15t-31 -53q-19 -54 -32 -130t-13 -139q0 -65 48 -65z
" />
    <glyph glyph-name="p" unicode="p" horiz-adv-x="615" 
d="M270 337l-55 -265q11 -19 41 -19q47 0 83.5 49.5t53 113.5t16.5 123q0 67 -45 67q-47 0 -94 -69zM281 420v-6q73 115 180 115q60 0 97 -42.5t37 -115.5q0 -163 -95.5 -274t-235.5 -111q-44 0 -66 9l-16 -71q-5 -21 -5 -37q0 -19 11 -26t37 -7l-12 -50h-286l12 50
q35 0 48.5 13.5t22.5 56.5l96 452q5 26 -1 40q-10 27 -63 28l9 42q74 37 138 37q92 0 92 -103z" />
    <glyph glyph-name="q" unicode="q" horiz-adv-x="595" 
d="M281 -76l46 169q-68 -107 -176 -107q-61 0 -96 38.5t-35 109.5q0 153 101.5 274t230.5 121q84 0 100 -59q15 27 41 46h107q-24 -55 -41 -128l-106 -464q-5 -25 -5 -37q0 -19 11 -26t37 -7l-12 -50h-288l12 50q34 0 47.5 13.5t25.5 56.5zM346 196l56 237q-14 14 -43 14
q-64 0 -114.5 -91t-50.5 -194q0 -69 35 -69q49 0 117 103z" />
    <glyph glyph-name="r" unicode="r" horiz-adv-x="445" 
d="M484 517l-42 -172q-34 13 -66 13q-55 0 -87 -29.5t-51 -121.5l-44 -207h-169l81 376q6 30 -4 46q-13 21 -60 22l9 42q74 37 138 37q79 0 79 -112q0 -7 -2 -31q29 68 71.5 108.5t92.5 40.5q31 0 54 -12z" />
    <glyph glyph-name="s" unicode="s" horiz-adv-x="470" 
d="M181 -14q-119 0 -181 47l18 111h103q0 -86 75 -86q84 0 84 61q0 23 -14.5 36t-46.5 23l-40 12q-120 36 -120 149q0 91 63 140.5t164 49.5q95 0 175 -39l-19 -113h-100q0 83 -69 83q-32 0 -55.5 -16.5t-23.5 -46.5q0 -33 59 -50l40 -12q71 -21 102.5 -57t31.5 -98
q0 -92 -64.5 -143t-181.5 -51z" />
    <glyph glyph-name="t" unicode="t" horiz-adv-x="372" 
d="M412 516l-31 -80h-106l-56 -260q-6 -30 -6 -49q0 -53 50 -53q35 0 68 12l8 -52q-61 -48 -161 -48q-68 0 -102 29.5t-34 79.5q0 34 10 81l54 260h-59l12 57l71 23q39 104 92 142l117 8q-25 -59 -46 -150h119z" />
    <glyph glyph-name="u" unicode="u" horiz-adv-x="591" 
d="M323 88q-67 -102 -179 -102q-55 0 -83 28t-28 79q0 28 7 56l51 208q6 23 6 38q0 49 -67 49l9 42q70 37 139 37q95 0 95 -86q0 -18 -7 -51l-51 -210q-5 -19 -5 -37q0 -34 31 -34q45 0 101 89l68 322h166l-77 -371q-6 -25 -6 -40q0 -18 10 -25.5t35 -7.5q11 0 29 2l4 -45
q-67 -38 -144 -38q-64 0 -88 34q-16 22 -16 63z" />
    <glyph glyph-name="v" unicode="v" horiz-adv-x="505" 
d="M384 523l146 -13v-47l-278 -463h-133l-41 362q-3 30 -5.5 42t-9.5 24.5t-20.5 15.5t-37.5 3l8 42q21 13 58.5 23.5t69.5 10.5q82 0 92 -91l17 -172q4 -39 4 -71q0 -29 -3 -51h6l58 127q66 142 69 258z" />
    <glyph glyph-name="w" unicode="w" horiz-adv-x="792" 
d="M394 324l-147 -324h-138l-31 362q-5 53 -16.5 69t-56.5 16l8 42q21 13 58.5 23.5t69.5 10.5q41 0 63 -21.5t27 -69.5l15 -151q3 -29 3 -52q-1 -52 -8 -72h6l148 359h130l17 -234q3 -41 3 -87q0 -9 -0.5 -17.5t-0.5 -14v-6.5h6q7 15 21.5 43.5t25 49.5t14.5 31
q34 75 46 127.5t14 114.5l146 -13v-47l-278 -463h-129l-15 203q-2 34 -2 46q0 35 5 75h-4z" />
    <glyph glyph-name="x" unicode="x" horiz-adv-x="537" 
d="M191 251l-51 139q-16 42 -31.5 53t-56.5 11l7 42q56 27 130 27q44 0 65.5 -14t32.5 -49l33 -102l105 158h152l-9 -45q-65 -6 -129 -84l-91 -111l51 -148q13 -37 25 -49.5t41 -12.5q5 0 27 2l7 -47q-66 -30 -137 -30q-57 0 -80 20.5t-40 80.5l-23 79l-112 -171h-147l9 51
q39 7 66 25t63 63z" />
    <glyph glyph-name="y" unicode="y" horiz-adv-x="505" 
d="M188 18l-75 -3q-4 104 -17 203l-22 160q-6 47 -19.5 58t-49.5 11l8 43q69 33 128 33q50 0 70 -30.5t29 -104.5l13 -107q5 -36 5 -79q0 -54 -9 -99h6l38 85q56 126 73.5 198.5t17.5 136.5l146 -13v-46l-255 -473q-93 -171 -259 -196l-71 115q43 6 61 9.5t54 12t55 18.5
t40 27.5t33 40.5z" />
    <glyph glyph-name="z" unicode="z" horiz-adv-x="500" 
d="M509 441l-339 -301q36 6 63 6t61 -5.5t43 -5.5q43 0 61.5 11.5t36.5 51.5l44 -13q-15 -113 -57 -156t-111 -43q-51 0 -100 24t-83 24q-46 0 -76 -34h-62l15 74l325 293q-38 1 -74.5 4.5t-51.5 3.5q-36 0 -59 -12t-34 -50l-51 10q5 96 47.5 148t119.5 52q47 0 101 -23.5
t70 -23.5q20 0 32.5 7.5t38.5 32.5h56z" />
    <glyph glyph-name="braceleft" unicode="{" horiz-adv-x="392" 
d="M341 614l-33 -167q-7 -37 -22.5 -64.5t-35.5 -41.5t-35 -21t-30 -9l-1 -4q28 -4 51.5 -26t23.5 -70q0 -19 -4 -38l-33 -169q-4 -19 -4 -41q0 -63 64 -63h20l-11 -55h-101q-124 0 -124 106q0 23 4 43l38 196q3 15 3 27q0 64 -91 64l11 55q54 0 84.5 21t39.5 70l38 197
q29 149 178 149h101l-11 -55h-20q-81 0 -100 -104z" />
    <glyph glyph-name="bar" unicode="|" horiz-adv-x="265" 
d="M109 -149h-99l176 910h99z" />
    <glyph glyph-name="braceright" unicode="}" horiz-adv-x="402" 
d="M66 4l33 167q7 37 22.5 64.5t35.5 41.5t35 21t30 9l1 4q-28 4 -51.5 26t-23.5 70q0 19 4 38l33 169q4 19 4 41q0 63 -64 63h-20l11 55h101q124 0 124 -106q0 -23 -4 -43l-38 -196q-3 -15 -3 -27q0 -64 91 -64l-11 -55q-54 0 -84.5 -21t-39.5 -70l-38 -197
q-29 -149 -178 -149h-101l11 55h20q81 0 100 104z" />
    <glyph glyph-name="asciitilde" unicode="~" horiz-adv-x="587" 
d="M384 352q63 0 85 47l38 -17q-14 -61 -50.5 -105.5t-78.5 -44.5q-31 0 -95 14.5t-84 14.5q-58 0 -83 -49l-36 16q8 61 45 108.5t80 47.5q30 0 92.5 -16t86.5 -16z" />
    <glyph glyph-name="uni00A0" unicode="&#xa0;" horiz-adv-x="225" 
 />
    <glyph glyph-name="exclamdown" unicode="&#xa1;" horiz-adv-x="299" 
d="M-60 -188l153 476h110l-45 -459zM64 426q0 43 30.5 73t72.5 30t72 -30t30 -73q0 -41 -30 -71t-72 -30t-72.5 30t-30.5 71z" />
    <glyph glyph-name="cent" unicode="&#xa2;" horiz-adv-x="535" 
d="M248 -101h-59l17 88q-88 7 -137 62t-49 150q0 76 33 146.5t101 122t157 59.5l16 81h59l-16 -80q46 -3 86 -17t59 -29l-22 -116h-104v11q0 73 -32 83l-74 -380q68 1 134 50l34 -48q-69 -83 -186 -94zM183 190q0 -68 44 -96l70 362q-48 -22 -81 -96.5t-33 -169.5z" />
    <glyph glyph-name="sterling" unicode="&#xa3;" horiz-adv-x="609" 
d="M250 74h72q49 0 82.5 28.5t60.5 99.5h91l-53 -202h-533l9 50q45 0 67.5 14.5t30.5 55.5l37 190h-80l13 66h80l17 92q20 110 97.5 162.5t192.5 52.5q118 0 175 -52l-23 -120h-121v11q0 50 -10 70.5t-38 20.5q-63 0 -84 -110l-24 -127h172l-13 -66h-172z" />
    <glyph glyph-name="currency" unicode="&#xa4;" horiz-adv-x="498" 
d="M210 102q-42 0 -71 11l-67 -82l-52 39l65 77q-35 37 -35 98q0 57 26 107t68 79l-35 75l67 40l36 -79q29 10 71 10q37 0 68 -11l65 78l52 -40l-61 -73q36 -39 36 -98t-28 -110.5t-71 -79.5l34 -75l-67 -39l-37 80q-26 -7 -64 -7zM268 406q-52 0 -79 -44.5t-27 -111.5
q0 -82 59 -82q40 0 65.5 30t33.5 64.5t8 69.5q0 74 -60 74z" />
    <glyph glyph-name="yen" unicode="&#xa5;" horiz-adv-x="642" 
d="M359 347h6l145 239q12 21 12 32q0 26 -42 26l10 53h222l-10 -53q-31 -4 -46 -13.5t-36 -42.5l-146 -215h122l-12 -61h-152l-43 -64h183l-12 -61h-179l-13 -67q-3 -18 -3 -30q0 -23 14 -31.5t49 -8.5l-9 -50h-331l9 50q44 0 62 14t26 56l13 67h-163l12 61h166l-19 64h-135
l12 61h106l-61 215q-9 32 -20 42t-37 14l10 53h289l-10 -53q-48 0 -48 -40q0 -11 2 -18z" />
    <glyph glyph-name="brokenbar" unicode="&#xa6;" horiz-adv-x="266" 
d="M208 356h-99l78 401h99zM109 -150h-99l78 401h99z" />
    <glyph glyph-name="section" unicode="&#xa7;" horiz-adv-x="503" 
d="M12 259q0 130 149 176q-61 45 -61 131q0 83 60.5 130.5t152.5 47.5q105 0 185 -39l-19 -113h-100q0 82 -69 82q-32 0 -54.5 -16t-22.5 -46q0 -38 57 -58l73 -30q67 -27 97.5 -66.5t30.5 -96.5q0 -131 -148 -176q71 -44 71 -135q0 -79 -62.5 -131t-171.5 -52
q-126 0 -188 47l18 111h103q0 -87 75 -87q81 0 81 65q0 21 -11.5 34.5t-41.5 25.5l-70 28q-134 53 -134 168zM145 318q0 -50 62 -75l66 -26q71 21 71 80q0 56 -53 79l-63 26q-39 -11 -61 -33.5t-22 -50.5z" />
    <glyph glyph-name="dieresis" unicode="&#xa8;" horiz-adv-x="572" 
d="M263 650q0 -37 -27 -63t-65 -26t-64.5 26t-26.5 63t27.5 63.5t65.5 26.5t64 -26t26 -64zM492 650q0 -37 -27 -63t-65 -26t-64.5 26t-26.5 63t27.5 63.5t65.5 26.5t64 -26t26 -64z" />
    <glyph glyph-name="copyright" unicode="&#xa9;" horiz-adv-x="802" 
d="M354 358q0 -78 14.5 -117t56.5 -39q26 0 39.5 13.5t17.5 46.5h81v-80q-58 -32 -139 -32q-211 0 -211 198q0 203 208 203q84 0 139 -32v-80h-86q-3 34 -14 51t-37 17q-43 0 -56 -35t-13 -114zM411 31q129 0 215 86t86 226q0 142 -86 228t-215 86t-215 -86t-86 -228
q0 -140 86 -226t215 -86zM411 -12q-154 0 -255 98t-101 258q0 157 103 257t253 100t253 -100t103 -257q0 -160 -101 -258t-255 -98z" />
    <glyph glyph-name="ordfeminine" unicode="&#xaa;" horiz-adv-x="493" 
d="M319 494l41 177q-10 11 -31 11q-44 0 -79 -69.5t-35 -143.5q0 -51 24 -51q32 0 80 76zM306 418q-50 -80 -135 -80q-48 0 -74.5 29t-26.5 86q0 118 75.5 204t177.5 86q63 0 75 -44q11 20 30 34h95q-18 -39 -31 -95l-41 -182q-5 -22 -5 -30q0 -13 7.5 -18.5t25.5 -5.5
q14 0 23 1l3 -33q-50 -29 -114 -29q-48 0 -70 28q-15 18 -15 49z" />
    <glyph glyph-name="guillemotleft" unicode="&#xab;" horiz-adv-x="639" 
d="M349 441l-146 -187l78 -191l-56 -43l-195 235l273 234zM609 441l-146 -187l78 -191l-56 -43l-195 235l273 234z" />
    <glyph glyph-name="logicalnot" unicode="&#xac;" horiz-adv-x="514" 
d="M50 224l16 81h398l-46 -237h-89l30 156h-309z" />
    <glyph glyph-name="uni00AD" unicode="&#xad;" horiz-adv-x="371" 
d="M308 217h-273l28 133h273z" />
    <glyph glyph-name="registered" unicode="&#xae;" horiz-adv-x="802" 
d="M421 193v-37h-187v37q15 0 22.5 2t11.5 10t4.5 16t0.5 27v203q0 19 -0.5 27t-4.5 16t-11.5 10t-22.5 2v39h186q73 0 111.5 -24t38.5 -82q0 -56 -27.5 -77.5t-80.5 -24.5v-3q47 -7 64 -40q20 -35 35 -68q10 -22 17 -27.5t29 -5.5v-37h-140q-7 21 -22.5 58.5t-16.5 39.5
q-18 46 -25 57t-20 12v-75q0 -35 5.5 -45t32.5 -10zM455 434q0 36 -12 48.5t-47 12.5h-13v-131h22q28 0 39 15t11 55zM411 31q129 0 215 86t86 226q0 142 -86 228t-215 86t-215 -86t-86 -228q0 -140 86 -226t215 -86zM411 -12q-154 0 -255 98t-101 258q0 157 103 257
t253 100t253 -100t103 -257q0 -160 -101 -258t-255 -98z" />
    <glyph glyph-name="macron" unicode="&#xaf;" horiz-adv-x="489" 
d="M391 605h-311l18 87h311z" />
    <glyph glyph-name="degree" unicode="&#xb0;" horiz-adv-x="371" 
d="M401 549q0 -79 -49.5 -135.5t-132.5 -56.5q-68 0 -108.5 38.5t-40.5 105.5q0 89 49.5 142t130.5 53q70 0 110.5 -39t40.5 -108zM226 429q43 0 65 33.5t22 86.5q0 41 -17 58.5t-51 17.5q-41 0 -64 -31.5t-23 -85.5q0 -43 16.5 -61t51.5 -18z" />
    <glyph glyph-name="plusminus" unicode="&#xb1;" horiz-adv-x="570" 
d="M302 507h89l-26 -136h155l-16 -81h-155l-28 -145h-89l28 145h-158l16 81h158zM50 24l16 81h402l-16 -81h-402z" />
    <glyph glyph-name="twosuperior" unicode="&#xb2;" horiz-adv-x="366" 
d="M238 665q62 0 101 -29t39 -81q0 -71 -47 -111t-148 -80l-52 -21h226l-30 -93h-307l9 80l91 57q65 41 93.5 71.5t28.5 70.5q0 51 -63 51q-53 0 -92 -33l-26 40q71 78 177 78z" />
    <glyph glyph-name="threesuperior" unicode="&#xb3;" horiz-adv-x="342" 
d="M168 596q-35 0 -74 -29l-23 37q53 61 146 61q56 0 90.5 -24.5t34.5 -66.5q0 -47 -31.5 -75.5t-84.5 -34.5q48 -1 77.5 -27t29.5 -64q0 -52 -36.5 -85.5t-86 -45.5t-111.5 -12q-58 0 -92 16l-7 48q32 -8 63 -8q132 0 132 91q0 57 -56 57q-12 0 -34 -2l10 58q9 -1 30 -1
q73 0 73 63q0 22 -14 33t-36 11z" />
    <glyph glyph-name="acute" unicode="&#xb4;" horiz-adv-x="440" 
d="M108 554l-28 36l192 200l88 -139z" />
    <glyph glyph-name="mu" unicode="&#xb5;" horiz-adv-x="605" 
d="M581 74l4 -45q-67 -38 -144 -38q-45 0 -65.5 18.5t-24.5 57.5q-1 8 -1 26q-21 -51 -54.5 -78.5t-71.5 -27.5q-27 0 -41 8t-23 30l-4 -1q13 -44 13 -83q0 -36 -11 -75l-14 -48l-174 -26v34q22 51 54 188l81 343q6 23 6 38q0 49 -67 49l9 42q70 37 139 37q95 0 95 -86
q0 -18 -7 -51l-51 -210q-6 -22 -6 -37q0 -34 32 -34q45 0 101 89l68 322h166l-76 -366q-7 -33 -7 -45q0 -18 10 -25.5t35 -7.5q11 0 29 2z" />
    <glyph glyph-name="paragraph" unicode="&#xb6;" horiz-adv-x="693" 
d="M633 570l-133 -687h-80l145 747h-80l-145 -747h-80l76 392h-85q-93 0 -142 42t-49 121q0 122 66.5 190.5t196.5 68.5h415l-10 -51q-49 -1 -68 -16.5t-27 -59.5zM369 630q-59 0 -89 -52.5t-30 -145.5q0 -89 63 -89h36l56 287h-36z" />
    <glyph glyph-name="periodcentered" unicode="&#xb7;" horiz-adv-x="295" 
d="M255 294q0 -43 -30.5 -73t-72.5 -30t-72 30t-30 73q0 41 30 71t72 30t72.5 -30t30.5 -71z" />
    <glyph glyph-name="cedilla" unicode="&#xb8;" horiz-adv-x="392" 
d="M312 -121q0 -85 -126 -85q-69 0 -106 25l17 42q30 -19 68 -19q34 0 34 25q0 29 -55 31l1 21l44 100l48 -6l-26 -55q101 -6 101 -79z" />
    <glyph glyph-name="onesuperior" unicode="&#xb9;" horiz-adv-x="335" 
d="M327 657l-67 -312q-2 -11 -2 -18q0 -18 14 -26.5t50 -10.5l-7 -40h-287l7 40q51 5 66.5 15.5t21.5 39.5l47 219q-35 -23 -87 -30l-12 47l160 76h96z" />
    <glyph glyph-name="ordmasculine" unicode="&#xba;" horiz-adv-x="461" 
d="M481 584q0 -104 -59.5 -175.5t-175.5 -71.5q-79 0 -125 42.5t-46 115.5q0 99 59.5 174t172.5 75q79 0 126.5 -39.5t47.5 -120.5zM250 389q37 0 55 52q33 92 33 192q0 58 -35 58t-53 -51q-34 -104 -34 -202q0 -49 34 -49z" />
    <glyph glyph-name="guillemotright" unicode="&#xbb;" horiz-adv-x="639" 
d="M30 68l146 187l-78 191l56 43l195 -235l-273 -234zM290 68l146 187l-78 191l56 43l195 -235l-273 -234z" />
    <glyph glyph-name="onequarter" unicode="&#xbc;" horiz-adv-x="1001" 
d="M842 730l-608 -853h-82l610 853h80zM767 -23l23 112h-202l11 56l191 262h121l-214 -256h105q21 99 75 150l85 8l-34 -158h52l-12 -62h-52l-17 -101zM327 657l-67 -312q-2 -11 -2 -18q0 -18 14 -26.5t50 -10.5l-7 -40h-287l7 40q51 5 66.5 15.5t21.5 39.5l47 219
q-35 -23 -87 -30l-12 47l160 76h96z" />
    <glyph glyph-name="onehalf" unicode="&#xbd;" horiz-adv-x="1034" 
d="M832 730l-608 -853h-82l610 853h80zM846 415q62 0 101 -29t39 -81q0 -71 -47 -111t-148 -80l-52 -21h226l-30 -93h-307l9 80l91 57q65 41 93.5 71.5t28.5 70.5q0 51 -63 51q-53 0 -92 -33l-26 40q71 78 177 78zM327 657l-67 -312q-2 -11 -2 -18q0 -18 14 -26.5t50 -10.5
l-7 -40h-287l7 40q51 5 66.5 15.5t21.5 39.5l47 219q-35 -23 -87 -30l-12 47l160 76h96z" />
    <glyph glyph-name="threequarters" unicode="&#xbe;" horiz-adv-x="972" 
d="M168 596q-35 0 -74 -29l-23 37q53 61 146 61q56 0 90.5 -24.5t34.5 -66.5q0 -47 -31.5 -75.5t-84.5 -34.5q48 -1 77.5 -27t29.5 -64q0 -52 -36.5 -85.5t-86 -45.5t-111.5 -12q-58 0 -92 16l-7 48q32 -8 63 -8q132 0 132 91q0 57 -56 57q-12 0 -34 -2l10 58q9 -1 30 -1
q73 0 73 63q0 22 -14 33t-36 11zM808 730l-608 -853h-82l610 853h80zM718 -23l23 112h-202l11 56l191 262h121l-214 -256h105q21 99 75 150l85 8l-34 -158h52l-12 -62h-52l-17 -101z" />
    <glyph glyph-name="questiondown" unicode="&#xbf;" horiz-adv-x="494" 
d="M201 426q0 43 30.5 73t72.5 30t72 -30t30 -73q0 -41 -30 -71t-72 -30t-72.5 30t-30.5 71zM225 -114q35 0 50.5 21.5t30.5 76.5h118l-28 -135q-83 -42 -193 -42q-208 0 -208 146q0 119 144 190q70 35 94.5 59.5t24.5 71.5q0 2 -0.5 8t-0.5 9h75q19 -23 19 -59
q0 -80 -109 -161q-36 -27 -53 -54.5t-17 -71.5q0 -59 53 -59z" />
    <glyph glyph-name="Agrave" unicode="&#xc0;" horiz-adv-x="650" 
d="M379 98l-10 77h-207l-32 -68q-8 -19 -8 -29q0 -25 51 -28l-9 -50h-224l9 50q32 4 48 15t33 44l304 588h138l100 -588q6 -34 14.5 -44.5t33.5 -14.5l-9 -50h-304l9 50q37 1 50.5 9.5t13.5 25.5q0 5 -1 13zM286 435l-84 -175h155l-22 170q-6 43 -6 88h-6q-13 -33 -37 -83z
M529 760l-25 -39l-260 73l74 146z" />
    <glyph glyph-name="Aacute" unicode="&#xc1;" horiz-adv-x="650" 
d="M379 98l-10 77h-207l-32 -68q-8 -19 -8 -29q0 -25 51 -28l-9 -50h-224l9 50q32 4 48 15t33 44l304 588h138l100 -588q6 -34 14.5 -44.5t33.5 -14.5l-9 -50h-304l9 50q37 1 50.5 9.5t13.5 25.5q0 5 -1 13zM286 435l-84 -175h155l-22 170q-6 43 -6 88h-6q-13 -33 -37 -83z
M309 721l-25 39l211 180l74 -146z" />
    <glyph glyph-name="Acircumflex" unicode="&#xc2;" horiz-adv-x="650" 
d="M379 98l-10 77h-207l-32 -68q-8 -19 -8 -29q0 -25 51 -28l-9 -50h-224l9 50q32 4 48 15t33 44l304 588h138l100 -588q6 -34 14.5 -44.5t33.5 -14.5l-9 -50h-304l9 50q37 1 50.5 9.5t13.5 25.5q0 5 -1 13zM286 435l-84 -175h155l-22 170q-6 43 -6 88h-6q-13 -33 -37 -83z
M559 731l-139 77l-170 -75l-22 38l218 183l139 -189z" />
    <glyph glyph-name="Atilde" unicode="&#xc3;" horiz-adv-x="650" 
d="M379 98l-10 77h-207l-32 -68q-8 -19 -8 -29q0 -25 51 -28l-9 -50h-224l9 50q32 4 48 15t33 44l304 588h138l100 -588q6 -34 14.5 -44.5t33.5 -14.5l-9 -50h-304l9 50q37 1 50.5 9.5t13.5 25.5q0 5 -1 13zM286 435l-84 -175h155l-22 170q-6 43 -6 88h-6q-13 -33 -37 -83z
M488 873q53 0 75 47l38 -17q-14 -62 -46 -102.5t-73 -40.5q-31 0 -75 16t-64 16q-48 0 -73 -49l-36 16q8 61 40 105t75 44q30 0 72.5 -17.5t66.5 -17.5z" />
    <glyph glyph-name="Adieresis" unicode="&#xc4;" horiz-adv-x="650" 
d="M379 98l-10 77h-207l-32 -68q-8 -19 -8 -29q0 -25 51 -28l-9 -50h-224l9 50q32 4 48 15t33 44l304 588h138l100 -588q6 -34 14.5 -44.5t33.5 -14.5l-9 -50h-304l9 50q37 1 50.5 9.5t13.5 25.5q0 5 -1 13zM286 435l-84 -175h155l-22 170q-6 43 -6 88h-6q-13 -33 -37 -83z
M393 830q0 -37 -27 -63t-65 -26t-64.5 26t-26.5 63t27.5 63.5t65.5 26.5t64 -26t26 -64zM622 830q0 -37 -27 -63t-65 -26t-64.5 26t-26.5 63t27.5 63.5t65.5 26.5t64 -26t26 -64z" />
    <glyph glyph-name="Aring" unicode="&#xc5;" horiz-adv-x="650" 
d="M379 98l-10 77h-207l-32 -68q-8 -19 -8 -29q0 -25 51 -28l-9 -50h-224l9 50q32 4 48 15t33 44l304 588h138l100 -588q6 -34 14.5 -44.5t33.5 -14.5l-9 -50h-304l9 50q37 1 50.5 9.5t13.5 25.5q0 5 -1 13zM286 435l-84 -175h155l-22 170q-6 43 -6 88h-6q-13 -33 -37 -83z
M417 733q-53 0 -86 33.5t-33 82.5q0 56 37 92t95 36q53 0 85 -33.5t32 -83.5q0 -57 -35.5 -92t-94.5 -35zM425 915q-26 0 -41 -17.5t-15 -45.5q0 -24 13 -39t36 -15q26 0 42 17t16 43q0 25 -13.5 41t-37.5 16z" />
    <glyph glyph-name="AE" unicode="&#xc6;" horiz-adv-x="939" 
d="M402 120l21 111h-191l-88 -124q-16 -22 -16 -34q0 -20 45 -23l-9 -50h-224l9 50q32 4 52.5 16t42.5 43l326 465q16 20 16 36q0 34 -56 34l10 53h624l-22 -177h-88q-6 61 -20.5 79t-68.5 18h-84l-44 -230h48q46 0 64.5 14t30.5 57h77l-43 -218h-77q5 41 -7.5 56t-58.5 15
h-49l-46 -237h105q48 0 74 24t45 92h89l-36 -190h-538l9 50q36 0 53 14t25 56zM507 616l-213 -299h146l16 79q27 139 57 220h-6z" />
    <glyph glyph-name="Ccedilla" unicode="&#xc7;" horiz-adv-x="634" 
d="M394 -121q0 -85 -126 -85q-69 0 -106 25l17 42q30 -19 68 -19q34 0 34 25q0 29 -55 31l1 21l32 73q-215 33 -215 273q0 118 47 218t142.5 163t221.5 63q135 0 209 -51l-29 -146h-125q0 61 -15.5 88.5t-57.5 27.5q-91 0 -146.5 -118t-55.5 -298q0 -81 26.5 -113.5
t79.5 -32.5q50 0 79.5 30t51.5 95h126l-30 -151q-36 -24 -104 -39t-136 -15q-15 0 -22 1l-13 -29q101 -6 101 -79z" />
    <glyph glyph-name="Egrave" unicode="&#xc8;" horiz-adv-x="604" 
d="M629 697l-22 -177h-88q-6 61 -20.5 79t-68.5 18h-84l-44 -230h48q46 0 64.5 14t30.5 57h77l-43 -218h-77q2 14 2 24q0 26 -14.5 36.5t-53.5 10.5h-49l-46 -237h105q48 0 74 24t45 92h89l-36 -190h-538l9 50q36 0 53 14t25 56l88 454q4 24 4 31q0 22 -12.5 30.5t-41.5 8.5
l10 53h514zM510 760l-25 -39l-260 73l74 146z" />
    <glyph glyph-name="Eacute" unicode="&#xc9;" horiz-adv-x="604" 
d="M629 697l-22 -177h-88q-6 61 -20.5 79t-68.5 18h-84l-44 -230h48q46 0 64.5 14t30.5 57h77l-43 -218h-77q2 14 2 24q0 26 -14.5 36.5t-53.5 10.5h-49l-46 -237h105q48 0 74 24t45 92h89l-36 -190h-538l9 50q36 0 53 14t25 56l88 454q4 24 4 31q0 22 -12.5 30.5t-41.5 8.5
l10 53h514zM300 721l-25 39l211 180l74 -146z" />
    <glyph glyph-name="Ecircumflex" unicode="&#xca;" horiz-adv-x="604" 
d="M629 697l-22 -177h-88q-6 61 -20.5 79t-68.5 18h-84l-44 -230h48q46 0 64.5 14t30.5 57h77l-43 -218h-77q2 14 2 24q0 26 -14.5 36.5t-53.5 10.5h-49l-46 -237h105q48 0 74 24t45 92h89l-36 -190h-538l9 50q36 0 53 14t25 56l88 454q4 24 4 31q0 22 -12.5 30.5t-41.5 8.5
l10 53h514zM544 731l-139 77l-170 -75l-22 38l218 183l139 -189z" />
    <glyph glyph-name="Edieresis" unicode="&#xcb;" horiz-adv-x="604" 
d="M629 697l-22 -177h-88q-6 61 -20.5 79t-68.5 18h-84l-44 -230h48q46 0 64.5 14t30.5 57h77l-43 -218h-77q2 14 2 24q0 26 -14.5 36.5t-53.5 10.5h-49l-46 -237h105q48 0 74 24t45 92h89l-36 -190h-538l9 50q36 0 53 14t25 56l88 454q4 24 4 31q0 22 -12.5 30.5t-41.5 8.5
l10 53h514zM375 830q0 -37 -27 -63t-65 -26t-64.5 26t-26.5 63t27.5 63.5t65.5 26.5t64 -26t26 -64zM604 830q0 -37 -27 -63t-65 -26t-64.5 26t-26.5 63t27.5 63.5t65.5 26.5t64 -26t26 -64z" />
    <glyph glyph-name="Igrave" unicode="&#xcc;" horiz-adv-x="371" 
d="M67 120l88 454q4 24 4 31q0 22 -12.5 30.5t-41.5 8.5l10 53h311l-10 -53q-36 0 -53 -14t-25 -56l-88 -454q-4 -24 -4 -31q0 -22 12.5 -30.5t41.5 -8.5l-9 -50h-311l9 50q36 0 53 14t25 56zM409 760l-25 -39l-260 73l74 146z" />
    <glyph glyph-name="Iacute" unicode="&#xcd;" horiz-adv-x="371" 
d="M67 120l88 454q4 24 4 31q0 22 -12.5 30.5t-41.5 8.5l10 53h311l-10 -53q-36 0 -53 -14t-25 -56l-88 -454q-4 -24 -4 -31q0 -22 12.5 -30.5t41.5 -8.5l-9 -50h-311l9 50q36 0 53 14t25 56zM183 721l-25 39l211 180l74 -146z" />
    <glyph glyph-name="Icircumflex" unicode="&#xce;" horiz-adv-x="371" 
d="M67 120l88 454q4 24 4 31q0 22 -12.5 30.5t-41.5 8.5l10 53h311l-10 -53q-36 0 -53 -14t-25 -56l-88 -454q-4 -24 -4 -31q0 -22 12.5 -30.5t41.5 -8.5l-9 -50h-311l9 50q36 0 53 14t25 56zM437 731l-139 77l-170 -75l-22 38l218 183l139 -189z" />
    <glyph glyph-name="Idieresis" unicode="&#xcf;" horiz-adv-x="371" 
d="M67 120l88 454q4 24 4 31q0 22 -12.5 30.5t-41.5 8.5l10 53h311l-10 -53q-36 0 -53 -14t-25 -56l-88 -454q-4 -24 -4 -31q0 -22 12.5 -30.5t41.5 -8.5l-9 -50h-311l9 50q36 0 53 14t25 56zM274 830q0 -37 -27 -63t-65 -26t-64.5 26t-26.5 63t27.5 63.5t65.5 26.5t64 -26
t26 -64zM503 830q0 -37 -27 -63t-65 -26t-64.5 26t-26.5 63t27.5 63.5t65.5 26.5t64 -26t26 -64z" />
    <glyph glyph-name="Eth" unicode="&#xd0;" horiz-adv-x="713" 
d="M35 310l18 85h67l35 179q4 24 4 31q0 22 -12.5 30.5t-41.5 8.5l10 53h295q138 0 208 -67.5t70 -196.5q0 -210 -118 -339q-87 -94 -260 -94h-330l9 50q36 0 53 14t25 56l37 190h-69zM494 476q0 81 -23 111t-88 30h-37l-43 -222h109l-18 -85h-108l-45 -236h33q50 0 84 12.5
t59 50.5q32 49 54.5 143.5t22.5 195.5z" />
    <glyph glyph-name="Ntilde" unicode="&#xd1;" horiz-adv-x="710" 
d="M555 395l35 179q4 24 4 31q0 22 -12.5 30.5t-41.5 8.5l10 53h220l-10 -53q-36 0 -53 -14t-25 -56l-111 -574h-113l-170 377q-19 41 -31 79.5t-15.5 57.5t-3.5 28h-6q-9 -100 -22 -165l-49 -257q-4 -24 -4 -31q0 -22 12.5 -30.5t41.5 -8.5l-9 -50h-222l9 50q36 0 53 14
t25 56l88 454q4 24 4 31q0 22 -12.5 30.5t-41.5 8.5l10 53h243l135 -302q35 -79 35 -140h6q3 45 21 140zM540 873q53 0 75 47l38 -17q-14 -62 -46 -102.5t-73 -40.5q-31 0 -75 16t-64 16q-48 0 -73 -49l-36 16q8 61 40 105t75 44q30 0 72.5 -17.5t66.5 -17.5z" />
    <glyph glyph-name="Ograve" unicode="&#xd2;" horiz-adv-x="716" 
d="M323 -14q-135 0 -207 81t-72 211q0 61 14 122t44.5 116.5t72.5 98.5t102.5 68.5t131.5 25.5q131 0 206.5 -77.5t75.5 -215.5q0 -64 -13.5 -125t-43 -117t-72 -97.5t-104 -66t-135.5 -24.5zM409 629q-59 0 -91 -51q-42 -68 -62.5 -169.5t-20.5 -199.5q0 -147 87 -147
q63 0 97 50q39 57 59.5 161t20.5 201q0 82 -20 118.5t-70 36.5zM554 760l-25 -39l-260 73l74 146z" />
    <glyph glyph-name="Oacute" unicode="&#xd3;" horiz-adv-x="716" 
d="M323 -14q-135 0 -207 81t-72 211q0 61 14 122t44.5 116.5t72.5 98.5t102.5 68.5t131.5 25.5q131 0 206.5 -77.5t75.5 -215.5q0 -64 -13.5 -125t-43 -117t-72 -97.5t-104 -66t-135.5 -24.5zM409 629q-59 0 -91 -51q-42 -68 -62.5 -169.5t-20.5 -199.5q0 -147 87 -147
q63 0 97 50q39 57 59.5 161t20.5 201q0 82 -20 118.5t-70 36.5zM334 721l-25 39l211 180l74 -146z" />
    <glyph glyph-name="Ocircumflex" unicode="&#xd4;" horiz-adv-x="716" 
d="M323 -14q-135 0 -207 81t-72 211q0 61 14 122t44.5 116.5t72.5 98.5t102.5 68.5t131.5 25.5q131 0 206.5 -77.5t75.5 -215.5q0 -64 -13.5 -125t-43 -117t-72 -97.5t-104 -66t-135.5 -24.5zM409 629q-59 0 -91 -51q-42 -68 -62.5 -169.5t-20.5 -199.5q0 -147 87 -147
q63 0 97 50q39 57 59.5 161t20.5 201q0 82 -20 118.5t-70 36.5zM586 731l-139 77l-170 -75l-22 38l218 183l139 -189z" />
    <glyph glyph-name="Otilde" unicode="&#xd5;" horiz-adv-x="716" 
d="M323 -14q-135 0 -207 81t-72 211q0 61 14 122t44.5 116.5t72.5 98.5t102.5 68.5t131.5 25.5q131 0 206.5 -77.5t75.5 -215.5q0 -64 -13.5 -125t-43 -117t-72 -97.5t-104 -66t-135.5 -24.5zM409 629q-59 0 -91 -51q-42 -68 -62.5 -169.5t-20.5 -199.5q0 -147 87 -147
q63 0 97 50q39 57 59.5 161t20.5 201q0 82 -20 118.5t-70 36.5zM503 873q53 0 75 47l38 -17q-14 -62 -46 -102.5t-73 -40.5q-31 0 -75 16t-64 16q-48 0 -73 -49l-36 16q8 61 40 105t75 44q30 0 72.5 -17.5t66.5 -17.5z" />
    <glyph glyph-name="Odieresis" unicode="&#xd6;" horiz-adv-x="716" 
d="M323 -14q-135 0 -207 81t-72 211q0 61 14 122t44.5 116.5t72.5 98.5t102.5 68.5t131.5 25.5q131 0 206.5 -77.5t75.5 -215.5q0 -64 -13.5 -125t-43 -117t-72 -97.5t-104 -66t-135.5 -24.5zM409 629q-59 0 -91 -51q-42 -68 -62.5 -169.5t-20.5 -199.5q0 -147 87 -147
q63 0 97 50q39 57 59.5 161t20.5 201q0 82 -20 118.5t-70 36.5zM413 830q0 -37 -27 -63t-65 -26t-64.5 26t-26.5 63t27.5 63.5t65.5 26.5t64 -26t26 -64zM642 830q0 -37 -27 -63t-65 -26t-64.5 26t-26.5 63t27.5 63.5t65.5 26.5t64 -26t26 -64z" />
    <glyph glyph-name="multiply" unicode="&#xd7;" horiz-adv-x="573" 
d="M114 424l61 54l122 -151l180 151l46 -57l-180 -151l122 -150l-63 -54l-122 152l-185 -155l-45 57l184 153z" />
    <glyph glyph-name="Oslash" unicode="&#xd8;" horiz-adv-x="716" 
d="M680 703l-61 -80q72 -80 72 -207q0 -64 -13.5 -125t-43 -117t-72 -97.5t-104 -66t-135.5 -24.5q-93 0 -160 43l-59 -77l-47 33l62 82q-75 81 -75 211q0 61 14 122t44.5 116.5t72.5 98.5t102.5 68.5t131.5 25.5q97 0 166 -47l57 74zM409 629q-63 0 -95 -51
q-42 -68 -63.5 -169.5t-21.5 -198.5l267 349q-18 70 -87 70zM423 112q40 58 61 162.5t21 200.5l-266 -347q22 -66 83 -66q67 0 101 50z" />
    <glyph glyph-name="Ugrave" unicode="&#xd9;" horiz-adv-x="691" 
d="M512 228l67 346q4 24 4 31q0 22 -12.5 30.5t-41.5 8.5l10 53h217l-10 -53q-36 0 -53 -14t-25 -56l-67 -346q-23 -120 -87 -181t-182 -61q-252 0 -255 192q0 42 9 92l59 304q4 24 4 31q0 22 -12.5 30.5t-41.5 8.5l10 53h311l-10 -53q-36 0 -53 -14t-25 -56l-62 -317
q-9 -49 -9 -84q1 -49 28 -72t84 -23q114 0 143 150zM585 760l-25 -39l-260 73l74 146z" />
    <glyph glyph-name="Uacute" unicode="&#xda;" horiz-adv-x="691" 
d="M512 228l67 346q4 24 4 31q0 22 -12.5 30.5t-41.5 8.5l10 53h217l-10 -53q-36 0 -53 -14t-25 -56l-67 -346q-23 -120 -87 -181t-182 -61q-252 0 -255 192q0 42 9 92l59 304q4 24 4 31q0 22 -12.5 30.5t-41.5 8.5l10 53h311l-10 -53q-36 0 -53 -14t-25 -56l-62 -317
q-9 -49 -9 -84q1 -49 28 -72t84 -23q114 0 143 150zM372 721l-25 39l211 180l74 -146z" />
    <glyph glyph-name="Ucircumflex" unicode="&#xdb;" horiz-adv-x="691" 
d="M512 228l67 346q4 24 4 31q0 22 -12.5 30.5t-41.5 8.5l10 53h217l-10 -53q-36 0 -53 -14t-25 -56l-67 -346q-23 -120 -87 -181t-182 -61q-252 0 -255 192q0 42 9 92l59 304q4 24 4 31q0 22 -12.5 30.5t-41.5 8.5l10 53h311l-10 -53q-36 0 -53 -14t-25 -56l-62 -317
q-9 -49 -9 -84q1 -49 28 -72t84 -23q114 0 143 150zM627 731l-139 77l-170 -75l-22 38l218 183l139 -189z" />
    <glyph glyph-name="Udieresis" unicode="&#xdc;" horiz-adv-x="691" 
d="M512 228l67 346q4 24 4 31q0 22 -12.5 30.5t-41.5 8.5l10 53h217l-10 -53q-36 0 -53 -14t-25 -56l-67 -346q-23 -120 -87 -181t-182 -61q-252 0 -255 192q0 42 9 92l59 304q4 24 4 31q0 22 -12.5 30.5t-41.5 8.5l10 53h311l-10 -53q-36 0 -53 -14t-25 -56l-62 -317
q-9 -49 -9 -84q1 -49 28 -72t84 -23q114 0 143 150zM446 830q0 -37 -27 -63t-65 -26t-64.5 26t-26.5 63t27.5 63.5t65.5 26.5t64 -26t26 -64zM675 830q0 -37 -27 -63t-65 -26t-64.5 26t-26.5 63t27.5 63.5t65.5 26.5t64 -26t26 -64z" />
    <glyph glyph-name="Yacute" unicode="&#xdd;" horiz-adv-x="643" 
d="M375 347h6l145 239q12 21 12 32q0 26 -42 26l10 53h222l-10 -53q-31 -4 -46 -13.5t-36 -42.5l-226 -333l-26 -135q-3 -18 -3 -30q0 -23 14 -31.5t49 -8.5l-9 -50h-331l9 50q44 0 62 14t26 56l26 134l-95 334q-9 33 -20 42.5t-37 13.5l10 53h289l-10 -53q-48 0 -48 -40
q0 -6 2 -18zM335 721l-25 39l211 180l74 -146z" />
    <glyph glyph-name="Thorn" unicode="&#xde;" horiz-adv-x="624" 
d="M448 384q0 47 -21 68.5t-69 21.5h-40l-45 -234h58q49 0 72 20q45 39 45 124zM338 574l-4 -20h63q118 0 177.5 -40t59.5 -132q0 -70 -36.5 -123.5t-109.5 -80.5q-60 -23 -160 -23h-72l-6 -35q-3 -17 -3 -29q0 -24 16 -32.5t57 -8.5l-9 -50h-331l9 50q36 0 53 14t25 56
l88 454q4 22 4 31q0 22 -12.5 30.5t-41.5 8.5l10 53h311l-10 -53q-36 0 -53 -14t-25 -56z" />
    <glyph glyph-name="germandbls" unicode="&#xdf;" horiz-adv-x="620" 
d="M406 672q-71 0 -92 -102l-124 -607q-16 -77 -67.5 -114t-127.5 -37q-54 0 -90 18v41q62 4 84.5 24.5t33.5 81.5l90 459h-63l15 57l66 22l9 36q21 90 92.5 136.5t186.5 46.5q90 0 140.5 -36t50.5 -101q0 -114 -158 -168q-20 -7 -27 -11.5t-7 -12.5q0 -10 34 -28
q75 -41 108 -87.5t33 -113.5q0 -90 -62 -140t-148 -50q-93 0 -141 60l27 42q34 -24 74 -24q37 0 58 26t21 72q0 47 -11 83t-47 82l-9 12q-28 36 -28 55q0 18 12.5 31.5t44.5 35.5q81 56 81 132q0 39 -12 59t-47 20z" />
    <glyph glyph-name="agrave" unicode="&#xe0;" horiz-adv-x="593" 
d="M338 196l56 237q-14 14 -43 14q-40 0 -77 -45t-58.5 -111t-21.5 -129q0 -69 33 -69q43 0 111 103zM322 93q-68 -107 -173 -107q-61 0 -95 38.5t-34 109.5q0 100 44.5 191.5t120 147.5t159.5 56t100 -59q15 27 41 46h107q-24 -55 -41 -128l-55 -243q-7 -30 -7 -41
q0 -17 10 -24.5t34 -7.5q15 0 31 2l4 -45q-67 -38 -144 -38q-70 0 -91 45q-11 24 -11 57zM513 590l-28 -36l-252 97l88 139z" />
    <glyph glyph-name="aacute" unicode="&#xe1;" horiz-adv-x="593" 
d="M338 196l56 237q-14 14 -43 14q-40 0 -77 -45t-58.5 -111t-21.5 -129q0 -69 33 -69q43 0 111 103zM322 93q-68 -107 -173 -107q-61 0 -95 38.5t-34 109.5q0 100 44.5 191.5t120 147.5t159.5 56t100 -59q15 27 41 46h107q-24 -55 -41 -128l-55 -243q-7 -30 -7 -41
q0 -17 10 -24.5t34 -7.5q15 0 31 2l4 -45q-67 -38 -144 -38q-70 0 -91 45q-11 24 -11 57zM289 554l-28 36l192 200l88 -139z" />
    <glyph glyph-name="acircumflex" unicode="&#xe2;" horiz-adv-x="593" 
d="M338 196l56 237q-14 14 -43 14q-40 0 -77 -45t-58.5 -111t-21.5 -129q0 -69 33 -69q43 0 111 103zM322 93q-68 -107 -173 -107q-61 0 -95 38.5t-34 109.5q0 100 44.5 191.5t120 147.5t159.5 56t100 -59q15 27 41 46h107q-24 -55 -41 -128l-55 -243q-7 -30 -7 -41
q0 -17 10 -24.5t34 -7.5q15 0 31 2l4 -45q-67 -38 -144 -38q-70 0 -91 45q-11 24 -11 57zM552 552l-139 77l-170 -75l-22 38l218 183l139 -189z" />
    <glyph glyph-name="atilde" unicode="&#xe3;" horiz-adv-x="593" 
d="M338 196l56 237q-14 14 -43 14q-40 0 -77 -45t-58.5 -111t-21.5 -129q0 -69 33 -69q43 0 111 103zM322 93q-68 -107 -173 -107q-61 0 -95 38.5t-34 109.5q0 100 44.5 191.5t120 147.5t159.5 56t100 -59q15 27 41 46h107q-24 -55 -41 -128l-55 -243q-7 -30 -7 -41
q0 -17 10 -24.5t34 -7.5q15 0 31 2l4 -45q-67 -38 -144 -38q-70 0 -91 45q-11 24 -11 57zM468 693q53 0 75 47l38 -17q-14 -62 -46 -102.5t-73 -40.5q-31 0 -75 16t-64 16q-48 0 -73 -49l-36 16q8 61 40 105t75 44q30 0 72.5 -17.5t66.5 -17.5z" />
    <glyph glyph-name="adieresis" unicode="&#xe4;" horiz-adv-x="593" 
d="M338 196l56 237q-14 14 -43 14q-40 0 -77 -45t-58.5 -111t-21.5 -129q0 -69 33 -69q43 0 111 103zM322 93q-68 -107 -173 -107q-61 0 -95 38.5t-34 109.5q0 100 44.5 191.5t120 147.5t159.5 56t100 -59q15 27 41 46h107q-24 -55 -41 -128l-55 -243q-7 -30 -7 -41
q0 -17 10 -24.5t34 -7.5q15 0 31 2l4 -45q-67 -38 -144 -38q-70 0 -91 45q-11 24 -11 57zM365 650q0 -37 -27 -63t-65 -26t-64.5 26t-26.5 63t27.5 63.5t65.5 26.5t64 -26t26 -64zM594 650q0 -37 -27 -63t-65 -26t-64.5 26t-26.5 63t27.5 63.5t65.5 26.5t64 -26t26 -64z" />
    <glyph glyph-name="aring" unicode="&#xe5;" horiz-adv-x="593" 
d="M338 196l56 237q-14 14 -43 14q-40 0 -77 -45t-58.5 -111t-21.5 -129q0 -69 33 -69q43 0 111 103zM322 93q-68 -107 -173 -107q-61 0 -95 38.5t-34 109.5q0 100 44.5 191.5t120 147.5t159.5 56t100 -59q15 27 41 46h107q-24 -55 -41 -128l-55 -243q-7 -30 -7 -41
q0 -17 10 -24.5t34 -7.5q15 0 31 2l4 -45q-67 -38 -144 -38q-70 0 -91 45q-11 24 -11 57zM386 563q-53 0 -86 33.5t-33 82.5q0 56 37 92t95 36q53 0 85 -33.5t32 -83.5q0 -57 -35.5 -92t-94.5 -35zM394 745q-26 0 -41 -17.5t-15 -45.5q0 -24 13 -39t36 -15q26 0 42 17t16 43
q0 25 -13.5 41t-37.5 16z" />
    <glyph glyph-name="ae" unicode="&#xe6;" horiz-adv-x="809" 
d="M799 386q0 -41 -17.5 -71t-44 -47.5t-66.5 -27.5t-77 -13.5t-82 -3.5h-30q-3 -15 -3 -51q0 -85 88 -85q84 0 146 53l33 -46q-92 -108 -231 -108q-123 0 -175 80q-64 -80 -164 -80q-70 0 -110.5 37.5t-40.5 103.5q0 174 269 174h33l9 50q7 38 7 54q0 27 -11 38.5t-36 11.5
q-34 0 -53 -18t-30 -60h-122l20 108q85 44 205 44q102 0 140 -49q71 49 158 49q185 0 185 -143zM644 410q0 22 -11 34.5t-30 12.5q-36 0 -65.5 -42.5t-44.5 -121.5q73 0 112 26.5t39 90.5zM309 186q0 31 4 47h-15q-100 0 -100 -80q0 -64 53 -64q36 0 66 25q-8 32 -8 72z" />
    <glyph glyph-name="ccedilla" unicode="&#xe7;" horiz-adv-x="483" 
d="M297 -121q0 -85 -126 -85q-69 0 -106 25l17 42q30 -19 68 -19q34 0 34 25q0 29 -55 31l1 21l33 75q-133 36 -133 205q0 81 35 155t107.5 124.5t167.5 50.5q103 0 153 -42l-21 -116h-114q2 47 -4.5 67t-32.5 20q-49 0 -82.5 -80t-33.5 -188q0 -104 83 -104q36 0 59 9.5
t56 32.5l35 -50q-75 -92 -209 -92q-13 0 -20 1l-13 -29q101 -6 101 -79z" />
    <glyph glyph-name="egrave" unicode="&#xe8;" horiz-adv-x="531" 
d="M521 386q0 -171 -294 -171h-23q-3 -15 -3 -43q0 -85 88 -85q84 0 146 53l33 -46q-92 -108 -231 -108q-103 0 -155 52t-52 148q0 143 89.5 243t216.5 100q185 0 185 -143zM366 410q0 22 -11 34.5t-30 12.5q-35 0 -64.5 -47t-45.5 -127q21 0 41 3q110 16 110 124zM479 590
l-28 -36l-252 97l88 139z" />
    <glyph glyph-name="eacute" unicode="&#xe9;" horiz-adv-x="531" 
d="M521 386q0 -171 -294 -171h-23q-3 -15 -3 -43q0 -85 88 -85q84 0 146 53l33 -46q-92 -108 -231 -108q-103 0 -155 52t-52 148q0 143 89.5 243t216.5 100q185 0 185 -143zM366 410q0 22 -11 34.5t-30 12.5q-35 0 -64.5 -47t-45.5 -127q21 0 41 3q110 16 110 124zM252 554
l-28 36l192 200l88 -139z" />
    <glyph glyph-name="ecircumflex" unicode="&#xea;" horiz-adv-x="531" 
d="M521 386q0 -171 -294 -171h-23q-3 -15 -3 -43q0 -85 88 -85q84 0 146 53l33 -46q-92 -108 -231 -108q-103 0 -155 52t-52 148q0 143 89.5 243t216.5 100q185 0 185 -143zM366 410q0 22 -11 34.5t-30 12.5q-35 0 -64.5 -47t-45.5 -127q21 0 41 3q110 16 110 124zM502 552
l-139 77l-170 -75l-22 38l218 183l139 -189z" />
    <glyph glyph-name="edieresis" unicode="&#xeb;" horiz-adv-x="531" 
d="M521 386q0 -171 -294 -171h-23q-3 -15 -3 -43q0 -85 88 -85q84 0 146 53l33 -46q-92 -108 -231 -108q-103 0 -155 52t-52 148q0 143 89.5 243t216.5 100q185 0 185 -143zM366 410q0 22 -11 34.5t-30 12.5q-35 0 -64.5 -47t-45.5 -127q21 0 41 3q110 16 110 124zM330 650
q0 -37 -27 -63t-65 -26t-64.5 26t-26.5 63t27.5 63.5t65.5 26.5t64 -26t26 -64zM559 650q0 -37 -27 -63t-65 -26t-64.5 26t-26.5 63t27.5 63.5t65.5 26.5t64 -26t26 -64z" />
    <glyph glyph-name="igrave" unicode="&#xec;" horiz-adv-x="313" 
d="M271 386l-57 -241q-7 -30 -7 -41q0 -17 10 -24.5t34 -7.5q7 0 31 2l4 -45q-67 -38 -144 -38q-105 0 -105 97q0 25 8 61l51 208q6 23 6 38q0 49 -67 49l9 42q70 37 139 37q95 0 95 -85q0 -19 -7 -52zM333 590l-28 -36l-252 97l88 139z" />
    <glyph glyph-name="iacute" unicode="&#xed;" horiz-adv-x="313" 
d="M271 386l-57 -241q-7 -30 -7 -41q0 -17 10 -24.5t34 -7.5q7 0 31 2l4 -45q-67 -38 -144 -38q-105 0 -105 97q0 25 8 61l51 208q6 23 6 38q0 49 -67 49l9 42q70 37 139 37q95 0 95 -85q0 -19 -7 -52zM109 554l-28 36l192 200l88 -139z" />
    <glyph glyph-name="icircumflex" unicode="&#xee;" horiz-adv-x="313" 
d="M271 386l-57 -241q-7 -30 -7 -41q0 -17 10 -24.5t34 -7.5q7 0 31 2l4 -45q-67 -38 -144 -38q-105 0 -105 97q0 25 8 61l51 208q6 23 6 38q0 49 -67 49l9 42q70 37 139 37q95 0 95 -85q0 -19 -7 -52zM357 552l-139 77l-170 -75l-22 38l218 183l139 -189z" />
    <glyph glyph-name="idieresis" unicode="&#xef;" horiz-adv-x="313" 
d="M271 386l-57 -241q-7 -30 -7 -41q0 -17 10 -24.5t34 -7.5q7 0 31 2l4 -45q-67 -38 -144 -38q-105 0 -105 97q0 25 8 61l51 208q6 23 6 38q0 49 -67 49l9 42q70 37 139 37q95 0 95 -85q0 -19 -7 -52zM182 650q0 -37 -27 -63t-65 -26t-64.5 26t-26.5 63t27.5 63.5
t65.5 26.5t64 -26t26 -64zM411 650q0 -37 -27 -63t-65 -26t-64.5 26t-26.5 63t27.5 63.5t65.5 26.5t64 -26t26 -64z" />
    <glyph glyph-name="eth" unicode="&#xf0;" horiz-adv-x="567" 
d="M547 359q0 -167 -75 -270t-226 -103q-100 0 -158.5 57t-58.5 154q0 82 29.5 152.5t95.5 118.5t158 48q25 0 41 -4q-15 44 -42 77l-158 -55l-21 52l134 47q-43 31 -109 53l26 48q114 -19 191 -64l134 47l21 -52l-98 -34q116 -98 116 -272zM373 372q0 38 -4 66q-24 8 -43 8
q-58 0 -80 -65q-43 -124 -43 -260q0 -65 48 -65q51 0 76 69q17 46 31.5 118.5t14.5 128.5z" />
    <glyph glyph-name="ntilde" unicode="&#xf1;" horiz-adv-x="613" 
d="M347 149l48 194q3 11 3 20q0 28 -29 28q-48 0 -110 -88l-65 -303h-169l81 376q2 8 2 22q0 45 -66 46l9 42q74 37 138 37q84 0 84 -102q0 -17 -1 -27q81 135 200 135q51 0 78 -29t27 -77q0 -22 -6 -46l-55 -232q-7 -30 -7 -41q0 -18 10 -25t34 -7q11 0 31 2l4 -45
q-67 -38 -144 -38q-106 0 -106 96q0 27 9 62zM453 693q53 0 75 47l38 -17q-14 -62 -46 -102.5t-73 -40.5q-31 0 -75 16t-64 16q-48 0 -73 -49l-36 16q8 61 40 105t75 44q30 0 72.5 -17.5t66.5 -17.5z" />
    <glyph glyph-name="ograve" unicode="&#xf2;" horiz-adv-x="567" 
d="M546 316q0 -138 -76 -234t-224 -96q-100 0 -158.5 57t-58.5 154q0 61 18 118.5t52.5 106t93 78t132.5 29.5q100 0 160.5 -52.5t60.5 -160.5zM251 56q51 0 76 69q17 46 30.5 119.5t13.5 136.5q0 77 -50 77q-25 0 -42 -15t-31 -53q-19 -54 -32 -130t-13 -139q0 -65 48 -65z
M476 590l-28 -36l-252 97l88 139z" />
    <glyph glyph-name="oacute" unicode="&#xf3;" horiz-adv-x="567" 
d="M546 316q0 -138 -76 -234t-224 -96q-100 0 -158.5 57t-58.5 154q0 61 18 118.5t52.5 106t93 78t132.5 29.5q100 0 160.5 -52.5t60.5 -160.5zM251 56q51 0 76 69q17 46 30.5 119.5t13.5 136.5q0 77 -50 77q-25 0 -42 -15t-31 -53q-19 -54 -32 -130t-13 -139q0 -65 48 -65z
M249 554l-28 36l192 200l88 -139z" />
    <glyph glyph-name="ocircumflex" unicode="&#xf4;" horiz-adv-x="567" 
d="M546 316q0 -138 -76 -234t-224 -96q-100 0 -158.5 57t-58.5 154q0 61 18 118.5t52.5 106t93 78t132.5 29.5q100 0 160.5 -52.5t60.5 -160.5zM251 56q51 0 76 69q17 46 30.5 119.5t13.5 136.5q0 77 -50 77q-25 0 -42 -15t-31 -53q-19 -54 -32 -130t-13 -139q0 -65 48 -65z
M496 552l-139 77l-170 -75l-22 38l218 183l139 -189z" />
    <glyph glyph-name="otilde" unicode="&#xf5;" horiz-adv-x="567" 
d="M546 316q0 -138 -76 -234t-224 -96q-100 0 -158.5 57t-58.5 154q0 61 18 118.5t52.5 106t93 78t132.5 29.5q100 0 160.5 -52.5t60.5 -160.5zM251 56q51 0 76 69q17 46 30.5 119.5t13.5 136.5q0 77 -50 77q-25 0 -42 -15t-31 -53q-19 -54 -32 -130t-13 -139q0 -65 48 -65z
M419 693q53 0 75 47l38 -17q-14 -62 -46 -102.5t-73 -40.5q-31 0 -75 16t-64 16q-48 0 -73 -49l-36 16q8 61 40 105t75 44q30 0 72.5 -17.5t66.5 -17.5z" />
    <glyph glyph-name="odieresis" unicode="&#xf6;" horiz-adv-x="567" 
d="M546 316q0 -138 -76 -234t-224 -96q-100 0 -158.5 57t-58.5 154q0 61 18 118.5t52.5 106t93 78t132.5 29.5q100 0 160.5 -52.5t60.5 -160.5zM251 56q51 0 76 69q17 46 30.5 119.5t13.5 136.5q0 77 -50 77q-25 0 -42 -15t-31 -53q-19 -54 -32 -130t-13 -139q0 -65 48 -65z
M329 650q0 -37 -27 -63t-65 -26t-64.5 26t-26.5 63t27.5 63.5t65.5 26.5t64 -26t26 -64zM558 650q0 -37 -27 -63t-65 -26t-64.5 26t-26.5 63t27.5 63.5t65.5 26.5t64 -26t26 -64z" />
    <glyph glyph-name="divide" unicode="&#xf7;" horiz-adv-x="621" 
d="M50 232l15 78h506l-15 -78h-506zM419 470q0 -33 -22 -55.5t-52 -22.5q-32 0 -53.5 21.5t-21.5 54.5q0 31 22 53.5t53 22.5q30 0 52 -22t22 -52zM343 67q0 -33 -22 -55t-52 -22q-32 0 -53.5 21.5t-21.5 53.5t22 54.5t53 22.5q30 0 52 -22t22 -53z" />
    <glyph glyph-name="oslash" unicode="&#xf8;" horiz-adv-x="567" 
d="M544 529l-50 -62q52 -54 52 -151q0 -138 -76 -234t-224 -96q-69 0 -120 28l-51 -63l-40 30l51 63q-57 55 -57 153q0 61 18 118.5t52.5 106t93 78t132.5 29.5q77 0 130 -31l49 61zM242 390q-33 -91 -42 -206l175 216q-7 58 -54 58q-55 0 -79 -68zM251 56q56 0 81 69
q30 82 41 193l-175 -215q7 -47 53 -47z" />
    <glyph glyph-name="ugrave" unicode="&#xf9;" horiz-adv-x="591" 
d="M323 88q-67 -102 -179 -102q-55 0 -83 28t-28 79q0 28 7 56l51 208q6 23 6 38q0 49 -67 49l9 42q70 37 139 37q95 0 95 -86q0 -18 -7 -51l-51 -210q-5 -19 -5 -37q0 -34 31 -34q45 0 101 89l68 322h166l-77 -371q-6 -25 -6 -40q0 -18 10 -25.5t35 -7.5q11 0 29 2l4 -45
q-67 -38 -144 -38q-64 0 -88 34q-16 22 -16 63zM459 590l-28 -36l-252 97l88 139z" />
    <glyph glyph-name="uacute" unicode="&#xfa;" horiz-adv-x="591" 
d="M323 88q-67 -102 -179 -102q-55 0 -83 28t-28 79q0 28 7 56l51 208q6 23 6 38q0 49 -67 49l9 42q70 37 139 37q95 0 95 -86q0 -18 -7 -51l-51 -210q-5 -19 -5 -37q0 -34 31 -34q45 0 101 89l68 322h166l-77 -371q-6 -25 -6 -40q0 -18 10 -25.5t35 -7.5q11 0 29 2l4 -45
q-67 -38 -144 -38q-64 0 -88 34q-16 22 -16 63zM254 554l-28 36l192 200l88 -139z" />
    <glyph glyph-name="ucircumflex" unicode="&#xfb;" horiz-adv-x="591" 
d="M323 88q-67 -102 -179 -102q-55 0 -83 28t-28 79q0 28 7 56l51 208q6 23 6 38q0 49 -67 49l9 42q70 37 139 37q95 0 95 -86q0 -18 -7 -51l-51 -210q-5 -19 -5 -37q0 -34 31 -34q45 0 101 89l68 322h166l-77 -371q-6 -25 -6 -40q0 -18 10 -25.5t35 -7.5q11 0 29 2l4 -45
q-67 -38 -144 -38q-64 0 -88 34q-16 22 -16 63zM504 552l-139 77l-170 -75l-22 38l218 183l139 -189z" />
    <glyph glyph-name="udieresis" unicode="&#xfc;" horiz-adv-x="591" 
d="M323 88q-67 -102 -179 -102q-55 0 -83 28t-28 79q0 28 7 56l51 208q6 23 6 38q0 49 -67 49l9 42q70 37 139 37q95 0 95 -86q0 -18 -7 -51l-51 -210q-5 -19 -5 -37q0 -34 31 -34q45 0 101 89l68 322h166l-77 -371q-6 -25 -6 -40q0 -18 10 -25.5t35 -7.5q11 0 29 2l4 -45
q-67 -38 -144 -38q-64 0 -88 34q-16 22 -16 63zM332 650q0 -37 -27 -63t-65 -26t-64.5 26t-26.5 63t27.5 63.5t65.5 26.5t64 -26t26 -64zM561 650q0 -37 -27 -63t-65 -26t-64.5 26t-26.5 63t27.5 63.5t65.5 26.5t64 -26t26 -64z" />
    <glyph glyph-name="yacute" unicode="&#xfd;" horiz-adv-x="505" 
d="M188 18l-75 -3q-4 104 -17 203l-22 160q-6 47 -19.5 58t-49.5 11l8 43q69 33 128 33q50 0 70 -30.5t29 -104.5l13 -107q5 -36 5 -79q0 -54 -9 -99h6l38 85q56 126 73.5 198.5t17.5 136.5l146 -13v-46l-255 -473q-93 -171 -259 -196l-71 115q43 6 61 9.5t54 12t55 18.5
t40 27.5t33 40.5zM215 554l-28 36l192 200l88 -139z" />
    <glyph glyph-name="thorn" unicode="&#xfe;" horiz-adv-x="608" 
d="M263 337l-55 -265q11 -19 41 -19q47 0 83.5 49.5t53 113.5t16.5 123q0 67 -45 67q-47 0 -94 -69zM314 561l-31 -146q73 114 171 114q60 0 97 -42.5t37 -115.5q0 -163 -95.5 -274t-235.5 -111q-43 0 -66 9l-16 -71q-5 -25 -5 -37q0 -19 11 -26t37 -7l-12 -50h-286l12 50
q35 0 48.5 13.5t22.5 56.5l137 641q5 21 5 42q0 25 -12.5 35t-42.5 10l12 52l202 26h13q9 -25 9 -67q0 -46 -12 -102z" />
    <glyph glyph-name="ydieresis" unicode="&#xff;" horiz-adv-x="505" 
d="M188 18l-75 -3q-4 104 -17 203l-22 160q-6 47 -19.5 58t-49.5 11l8 43q69 33 128 33q50 0 70 -30.5t29 -104.5l13 -107q5 -36 5 -79q0 -54 -9 -99h6l38 85q56 126 73.5 198.5t17.5 136.5l146 -13v-46l-255 -473q-93 -171 -259 -196l-71 115q43 6 61 9.5t54 12t55 18.5
t40 27.5t33 40.5zM289 650q0 -37 -27 -63t-65 -26t-64.5 26t-26.5 63t27.5 63.5t65.5 26.5t64 -26t26 -64zM518 650q0 -37 -27 -63t-65 -26t-64.5 26t-26.5 63t27.5 63.5t65.5 26.5t64 -26t26 -64z" />
    <glyph glyph-name="Amacron" unicode="&#x100;" horiz-adv-x="650" 
d="M379 98l-10 77h-207l-32 -68q-8 -19 -8 -29q0 -25 51 -28l-9 -50h-224l9 50q32 4 48 15t33 44l304 588h138l100 -588q6 -34 14.5 -44.5t33.5 -14.5l-9 -50h-304l9 50q37 1 50.5 9.5t13.5 25.5q0 5 -1 13zM286 435l-84 -175h155l-22 170q-6 43 -6 88h-6q-13 -33 -37 -83z
M561 775h-311l18 87h311z" />
    <glyph glyph-name="amacron" unicode="&#x101;" horiz-adv-x="593" 
d="M338 196l56 237q-14 14 -43 14q-40 0 -77 -45t-58.5 -111t-21.5 -129q0 -69 33 -69q43 0 111 103zM322 93q-68 -107 -173 -107q-61 0 -95 38.5t-34 109.5q0 100 44.5 191.5t120 147.5t159.5 56t100 -59q15 27 41 46h107q-24 -55 -41 -128l-55 -243q-7 -30 -7 -41
q0 -17 10 -24.5t34 -7.5q15 0 31 2l4 -45q-67 -38 -144 -38q-70 0 -91 45q-11 24 -11 57zM543 605h-311l18 87h311z" />
    <glyph glyph-name="Abreve" unicode="&#x102;" horiz-adv-x="650" 
d="M379 98l-10 77h-207l-32 -68q-8 -19 -8 -29q0 -25 51 -28l-9 -50h-224l9 50q32 4 48 15t33 44l304 588h138l100 -588q6 -34 14.5 -44.5t33.5 -14.5l-9 -50h-304l9 50q37 1 50.5 9.5t13.5 25.5q0 5 -1 13zM286 435l-84 -175h155l-22 170q-6 43 -6 88h-6q-13 -33 -37 -83z
M412 744q-73 0 -109 52t-41 126l43 15q15 -42 41.5 -61t72.5 -19q83 0 148 83l39 -22q-69 -174 -194 -174z" />
    <glyph glyph-name="abreve" unicode="&#x103;" horiz-adv-x="593" 
d="M338 196l56 237q-14 14 -43 14q-40 0 -77 -45t-58.5 -111t-21.5 -129q0 -69 33 -69q43 0 111 103zM322 93q-68 -107 -173 -107q-61 0 -95 38.5t-34 109.5q0 100 44.5 191.5t120 147.5t159.5 56t100 -59q15 27 41 46h107q-24 -55 -41 -128l-55 -243q-7 -30 -7 -41
q0 -17 10 -24.5t34 -7.5q15 0 31 2l4 -45q-67 -38 -144 -38q-70 0 -91 45q-11 24 -11 57zM377 564q-73 0 -109 52t-41 126l43 15q15 -42 41.5 -61t72.5 -19q83 0 148 83l39 -22q-69 -174 -194 -174z" />
    <glyph glyph-name="Aogonek" unicode="&#x104;" horiz-adv-x="650" 
d="M390 -128l18 -30q-46 -47 -131 -47q-50 0 -85.5 20.5t-35.5 64.5q0 45 39 77t140 80q26 12 35.5 22.5t9.5 27.5q0 6 -1 11l-10 77h-207l-32 -68q-8 -19 -8 -29q0 -25 51 -28l-9 -50h-224l9 50q32 4 48 15t33 44l304 588h138l100 -588q6 -34 14.5 -44.5t33.5 -14.5l-9 -50
h-190q-65 0 -95.5 -28t-30.5 -67q0 -24 13.5 -35.5t32.5 -11.5q24 0 49 14zM286 435l-84 -175h155l-22 170q-6 43 -6 88h-6q-13 -33 -37 -83z" />
    <glyph glyph-name="aogonek" unicode="&#x105;" horiz-adv-x="593" 
d="M501 -128l18 -30q-46 -47 -131 -47q-50 0 -85.5 20.5t-35.5 64.5q0 38 31.5 65.5t92.5 49.5q-69 17 -69 98q-68 -107 -173 -107q-61 0 -95 38.5t-34 109.5q0 100 44.5 191.5t120 147.5t159.5 56t100 -59q15 27 41 46h107q-24 -55 -41 -128l-55 -243q-7 -30 -7 -41
q0 -18 10 -25t34 -7q7 0 31 2l4 -45q-12 -7 -45 -21.5t-55.5 -25.5t-42 -32.5t-19.5 -47.5q0 -22 13.5 -33t32.5 -11q24 0 49 14zM338 196l56 237q-14 14 -43 14q-40 0 -77 -45t-58.5 -111t-21.5 -129q0 -69 33 -69q43 0 111 103z" />
    <glyph glyph-name="Cacute" unicode="&#x106;" horiz-adv-x="634" 
d="M328 -14q-142 0 -213 72.5t-71 206.5q0 118 47 218t142.5 163t221.5 63q135 0 209 -51l-29 -146h-125q0 61 -15.5 88.5t-57.5 27.5q-91 0 -146.5 -118t-55.5 -298q0 -81 26.5 -113.5t79.5 -32.5q50 0 79.5 30t51.5 95h126l-30 -151q-36 -24 -104 -39t-136 -15zM356 721
l-25 39l211 180l74 -146z" />
    <glyph glyph-name="cacute" unicode="&#x107;" horiz-adv-x="483" 
d="M340 529q103 0 153 -42l-21 -116h-114q2 47 -4.5 67t-32.5 20q-49 0 -82.5 -80t-33.5 -188q0 -104 83 -104q36 0 59 9.5t56 32.5l35 -50q-75 -92 -209 -92q-95 0 -147 56t-52 157q0 81 35 155t107.5 124.5t167.5 50.5zM242 554l-28 36l192 200l88 -139z" />
    <glyph glyph-name="Ccircumflex" unicode="&#x108;" horiz-adv-x="634" 
d="M328 -14q-142 0 -213 72.5t-71 206.5q0 118 47 218t142.5 163t221.5 63q135 0 209 -51l-29 -146h-125q0 61 -15.5 88.5t-57.5 27.5q-91 0 -146.5 -118t-55.5 -298q0 -81 26.5 -113.5t79.5 -32.5q50 0 79.5 30t51.5 95h126l-30 -151q-36 -24 -104 -39t-136 -15zM608 731
l-139 77l-170 -75l-22 38l218 183l139 -189z" />
    <glyph glyph-name="ccircumflex" unicode="&#x109;" horiz-adv-x="483" 
d="M340 529q103 0 153 -42l-21 -116h-114q2 47 -4.5 67t-32.5 20q-49 0 -82.5 -80t-33.5 -188q0 -104 83 -104q36 0 59 9.5t56 32.5l35 -50q-75 -92 -209 -92q-95 0 -147 56t-52 157q0 81 35 155t107.5 124.5t167.5 50.5zM491 552l-139 77l-170 -75l-22 38l218 183l139 -189
z" />
    <glyph glyph-name="Cdotaccent" unicode="&#x10a;" horiz-adv-x="634" 
d="M328 -14q-142 0 -213 72.5t-71 206.5q0 118 47 218t142.5 163t221.5 63q135 0 209 -51l-29 -146h-125q0 61 -15.5 88.5t-57.5 27.5q-91 0 -146.5 -118t-55.5 -298q0 -81 26.5 -113.5t79.5 -32.5q50 0 79.5 30t51.5 95h126l-30 -151q-36 -24 -104 -39t-136 -15zM561 836
q0 -38 -28 -65.5t-68 -27.5q-39 0 -67 27.5t-28 65.5q0 39 28.5 66.5t68.5 27.5t67 -27.5t27 -66.5z" />
    <glyph glyph-name="cdotaccent" unicode="&#x10b;" horiz-adv-x="483" 
d="M340 529q103 0 153 -42l-21 -116h-114q2 47 -4.5 67t-32.5 20q-49 0 -82.5 -80t-33.5 -188q0 -104 83 -104q36 0 59 9.5t56 32.5l35 -50q-75 -92 -209 -92q-95 0 -147 56t-52 157q0 81 35 155t107.5 124.5t167.5 50.5zM442 656q0 -38 -28 -65.5t-68 -27.5q-39 0 -67 27.5
t-28 65.5q0 39 28.5 66.5t68.5 27.5t67 -27.5t27 -66.5z" />
    <glyph glyph-name="Ccaron" unicode="&#x10c;" horiz-adv-x="634" 
d="M328 -14q-142 0 -213 72.5t-71 206.5q0 118 47 218t142.5 163t221.5 63q135 0 209 -51l-29 -146h-125q0 61 -15.5 88.5t-57.5 27.5q-91 0 -146.5 -118t-55.5 -298q0 -81 26.5 -113.5t79.5 -32.5q50 0 79.5 30t51.5 95h126l-30 -151q-36 -24 -104 -39t-136 -15zM315 955
l139 -77l170 75l22 -38l-218 -183l-139 189z" />
    <glyph glyph-name="ccaron" unicode="&#x10d;" horiz-adv-x="483" 
d="M340 529q103 0 153 -42l-21 -116h-114q2 47 -4.5 67t-32.5 20q-49 0 -82.5 -80t-33.5 -188q0 -104 83 -104q36 0 59 9.5t56 32.5l35 -50q-75 -92 -209 -92q-95 0 -147 56t-52 157q0 81 35 155t107.5 124.5t167.5 50.5zM212 775l137 -77l172 75l22 -38l-218 -183l-139 189
z" />
    <glyph glyph-name="Dcaron" unicode="&#x10e;" horiz-adv-x="713" 
d="M494 476q0 81 -23 111t-88 30h-37l-105 -543h33q50 0 84 12.5t59 50.5q32 49 54.5 143.5t22.5 195.5zM115 697h295q138 0 208 -67.5t70 -196.5q0 -210 -118 -339q-87 -94 -260 -94h-330l9 50q36 0 53 14t25 56l88 454q4 24 4 31q0 22 -12.5 30.5t-41.5 8.5zM279 955
l139 -77l170 75l22 -38l-218 -183l-139 189z" />
    <glyph glyph-name="dcaron" unicode="&#x10f;" horiz-adv-x="613" 
d="M418 512l11 53q5 22 5 42q0 25 -12.5 35t-42.5 10l12 52l202 26h13q7 -23 7 -53q0 -49 -15 -116l-90 -416q-6 -25 -6 -40q0 -18 9.5 -25.5t33.5 -7.5q7 0 31 2l4 -45q-67 -38 -144 -38q-67 0 -90 43q-12 24 -12 59q-32 -50 -80 -78.5t-103 -28.5q-61 0 -96 38.5
t-35 109.5q0 100 45.5 191.5t122 147.5t161.5 56q44 0 69 -17zM347 196l52 237q-14 14 -43 14q-41 0 -79 -43t-60.5 -109.5t-22.5 -132.5q0 -69 35 -69q50 0 118 103zM784 728l-79 -172l-67 8l22 176z" />
    <glyph glyph-name="Dcroat" unicode="&#x110;" horiz-adv-x="713" 
d="M35 310l18 85h67l35 179q4 24 4 31q0 22 -12.5 30.5t-41.5 8.5l10 53h295q138 0 208 -67.5t70 -196.5q0 -210 -118 -339q-87 -94 -260 -94h-330l9 50q36 0 53 14t25 56l37 190h-69zM494 476q0 81 -23 111t-88 30h-37l-43 -222h109l-18 -85h-108l-45 -236h33q50 0 84 12.5
t59 50.5q32 49 54.5 143.5t22.5 195.5z" />
    <glyph glyph-name="dcroat" unicode="&#x111;" horiz-adv-x="613" 
d="M272 567l11 47h157q2 10 2 16q0 14 -13 19.5t-50 5.5l12 49l202 26h13q6 -20 6 -53q0 -32 -5 -63h69l-11 -47h-66l-91 -422q-6 -30 -6 -40q0 -18 10 -25.5t35 -7.5q7 0 29 2l4 -45q-67 -38 -144 -38q-62 0 -86 36q-16 25 -16 66q-32 -50 -80 -78.5t-103 -28.5
q-61 0 -96 38.5t-35 109.5q0 100 45.5 191.5t122 147.5t161.5 56q44 0 69 -17l12 55h-158zM347 196l52 237q-14 14 -43 14q-41 0 -79 -43t-60.5 -109.5t-22.5 -132.5q0 -69 35 -69q50 0 118 103z" />
    <glyph glyph-name="Emacron" unicode="&#x112;" horiz-adv-x="604" 
d="M629 697l-22 -177h-88q-6 61 -20.5 79t-68.5 18h-84l-44 -230h48q46 0 64.5 14t30.5 57h77l-43 -218h-77q2 14 2 24q0 26 -14.5 36.5t-53.5 10.5h-49l-46 -237h105q48 0 74 24t45 92h89l-36 -190h-538l9 50q36 0 53 14t25 56l88 454q4 24 4 31q0 22 -12.5 30.5t-41.5 8.5
l10 53h514zM542 775h-311l18 87h311z" />
    <glyph glyph-name="emacron" unicode="&#x113;" horiz-adv-x="531" 
d="M521 386q0 -171 -294 -171h-23q-3 -15 -3 -43q0 -85 88 -85q84 0 146 53l33 -46q-92 -108 -231 -108q-103 0 -155 52t-52 148q0 143 89.5 243t216.5 100q185 0 185 -143zM366 410q0 22 -11 34.5t-30 12.5q-35 0 -64.5 -47t-45.5 -127q21 0 41 3q110 16 110 124zM506 605
h-311l18 87h311z" />
    <glyph glyph-name="Ebreve" unicode="&#x114;" horiz-adv-x="604" 
d="M629 697l-22 -177h-88q-6 61 -20.5 79t-68.5 18h-84l-44 -230h48q46 0 64.5 14t30.5 57h77l-43 -218h-77q2 14 2 24q0 26 -14.5 36.5t-53.5 10.5h-49l-46 -237h105q48 0 74 24t45 92h89l-36 -190h-538l9 50q36 0 53 14t25 56l88 454q4 24 4 31q0 22 -12.5 30.5t-41.5 8.5
l10 53h514zM391 745q-73 0 -109 52t-41 126l43 15q15 -42 41.5 -61t72.5 -19q83 0 148 83l39 -22q-69 -174 -194 -174z" />
    <glyph glyph-name="ebreve" unicode="&#x115;" horiz-adv-x="531" 
d="M521 386q0 -171 -294 -171h-23q-3 -15 -3 -43q0 -85 88 -85q84 0 146 53l33 -46q-92 -108 -231 -108q-103 0 -155 52t-52 148q0 143 89.5 243t216.5 100q185 0 185 -143zM366 410q0 22 -11 34.5t-30 12.5q-35 0 -64.5 -47t-45.5 -127q21 0 41 3q110 16 110 124zM367 564
q-73 0 -109 52t-41 126l43 15q15 -42 41.5 -61t72.5 -19q83 0 148 83l39 -22q-69 -174 -194 -174z" />
    <glyph glyph-name="Edotaccent" unicode="&#x116;" horiz-adv-x="604" 
d="M629 697l-22 -177h-88q-6 61 -20.5 79t-68.5 18h-84l-44 -230h48q46 0 64.5 14t30.5 57h77l-43 -218h-77q2 14 2 24q0 26 -14.5 36.5t-53.5 10.5h-49l-46 -237h105q48 0 74 24t45 92h89l-36 -190h-538l9 50q36 0 53 14t25 56l88 454q4 24 4 31q0 22 -12.5 30.5t-41.5 8.5
l10 53h514zM492 836q0 -38 -28 -65.5t-68 -27.5q-39 0 -67 27.5t-28 65.5q0 39 28.5 66.5t68.5 27.5t67 -27.5t27 -66.5z" />
    <glyph glyph-name="edotaccent" unicode="&#x117;" horiz-adv-x="531" 
d="M521 386q0 -171 -294 -171h-23q-3 -15 -3 -43q0 -85 88 -85q84 0 146 53l33 -46q-92 -108 -231 -108q-103 0 -155 52t-52 148q0 143 89.5 243t216.5 100q185 0 185 -143zM366 410q0 22 -11 34.5t-30 12.5q-35 0 -64.5 -47t-45.5 -127q21 0 41 3q110 16 110 124zM451 656
q0 -38 -28 -65.5t-68 -27.5q-39 0 -67 27.5t-28 65.5q0 39 28.5 66.5t68.5 27.5t67 -27.5t27 -66.5z" />
    <glyph glyph-name="Eogonek" unicode="&#x118;" horiz-adv-x="604" 
d="M469 -128l18 -30q-46 -47 -131 -47q-50 0 -85.5 20.5t-35.5 64.5q0 77 146 120h-401l9 50q36 0 53 14t25 56l88 454q4 24 4 31q0 22 -12.5 30.5t-41.5 8.5l10 53h514l-22 -177h-88q-6 61 -20.5 79t-68.5 18h-84l-44 -230h48q46 0 64.5 14t30.5 57h77l-43 -218h-77
q2 18 2 24q0 26 -14.5 36.5t-53.5 10.5h-49l-46 -237h105q48 0 74 24t45 92h89l-36 -190h-6q-59 0 -98.5 -31t-39.5 -67q0 -22 13.5 -33t32.5 -11q24 0 49 14z" />
    <glyph glyph-name="eogonek" unicode="&#x119;" horiz-adv-x="531" 
d="M350 -128l18 -30q-46 -47 -131 -47q-50 0 -85.5 20.5t-35.5 64.5q0 37 28.5 63t86.5 47h-5q-99 1 -147.5 51.5t-48.5 144.5q0 143 89.5 243t216.5 100q185 0 185 -143q0 -171 -294 -171h-23q-3 -15 -3 -43q0 -85 88 -85q84 0 146 53l33 -46q-43 -51 -116 -88
q-97 -49 -97 -104q0 -22 13.5 -33t32.5 -11q24 0 49 14zM366 410q0 22 -11 34.5t-30 12.5q-35 0 -64.5 -47t-45.5 -127q21 0 41 3q110 16 110 124z" />
    <glyph glyph-name="Ecaron" unicode="&#x11a;" horiz-adv-x="604" 
d="M629 697l-22 -177h-88q-6 61 -20.5 79t-68.5 18h-84l-44 -230h48q46 0 64.5 14t30.5 57h77l-43 -218h-77q2 14 2 24q0 26 -14.5 36.5t-53.5 10.5h-49l-46 -237h105q48 0 74 24t45 92h89l-36 -190h-538l9 50q36 0 53 14t25 56l88 454q4 24 4 31q0 22 -12.5 30.5t-41.5 8.5
l10 53h514zM271 955l139 -77l170 75l22 -38l-218 -183l-139 189z" />
    <glyph glyph-name="ecaron" unicode="&#x11b;" horiz-adv-x="531" 
d="M521 386q0 -171 -294 -171h-23q-3 -15 -3 -43q0 -85 88 -85q84 0 146 53l33 -46q-92 -108 -231 -108q-103 0 -155 52t-52 148q0 143 89.5 243t216.5 100q185 0 185 -143zM366 410q0 22 -11 34.5t-30 12.5q-35 0 -64.5 -47t-45.5 -127q21 0 41 3q110 16 110 124zM216 775
l137 -77l172 75l22 -38l-218 -183l-139 189z" />
    <glyph glyph-name="Gcircumflex" unicode="&#x11c;" horiz-adv-x="710" 
d="M417 78l30 154q4 18 4 31q0 22 -15 30.5t-52 8.5l11 52h315l-10 -52q-38 0 -54.5 -14t-24.5 -56l-37 -191q-44 -25 -108.5 -40t-124.5 -15q-153 0 -229.5 71t-76.5 207q0 87 27 165.5t77.5 141.5t133.5 100.5t186 37.5q135 0 216 -51l-29 -146h-121q0 62 -18.5 89
t-65.5 27q-96 0 -155.5 -113t-59.5 -291q0 -89 27 -125t87 -36q40 0 67 15zM640 731l-139 77l-170 -75l-22 38l218 183l139 -189z" />
    <glyph glyph-name="gcircumflex" unicode="&#x11d;" horiz-adv-x="541" 
d="M575 546l36 -108q-32 -20 -82 -20q-40 0 -66 16q35 -30 35 -85q0 -66 -57 -109.5t-184 -43.5q-5 0 -15.5 0.5t-12.5 0.5q-50 -12 -50 -33q0 -17 21 -19l130 -17q71 -9 109.5 -37.5t38.5 -91.5q0 -55 -24 -95t-66 -63t-93 -33.5t-112 -10.5q-116 0 -174.5 22.5t-58.5 77.5
q0 50 54 74l122 3q-20 -30 -20 -57q0 -30 21.5 -41.5t63.5 -11.5q127 0 127 77q0 27 -20 37t-67 15q-115 12 -130 14q-77 11 -77 79q0 93 134 124q-110 25 -110 131q0 87 66.5 137.5t177.5 50.5q40 0 99 -13t77 -13q58 0 107 43zM262 262q40 0 59 37.5t19 98.5q0 63 -49 63
q-40 0 -59 -39.5t-19 -96.5q0 -32 14.5 -47.5t34.5 -15.5zM489 552l-139 77l-170 -75l-22 38l218 183l139 -189z" />
    <glyph glyph-name="Gbreve" unicode="&#x11e;" horiz-adv-x="710" 
d="M417 78l30 154q4 18 4 31q0 22 -15 30.5t-52 8.5l11 52h315l-10 -52q-38 0 -54.5 -14t-24.5 -56l-37 -191q-44 -25 -108.5 -40t-124.5 -15q-153 0 -229.5 71t-76.5 207q0 87 27 165.5t77.5 141.5t133.5 100.5t186 37.5q135 0 216 -51l-29 -146h-121q0 62 -18.5 89
t-65.5 27q-96 0 -155.5 -113t-59.5 -291q0 -89 27 -125t87 -36q40 0 67 15zM464 744q-73 0 -109 52t-41 126l43 15q15 -42 41.5 -61t72.5 -19q83 0 148 83l39 -22q-69 -174 -194 -174z" />
    <glyph glyph-name="gbreve" unicode="&#x11f;" horiz-adv-x="541" 
d="M575 546l36 -108q-32 -20 -82 -20q-40 0 -66 16q35 -30 35 -85q0 -66 -57 -109.5t-184 -43.5q-5 0 -15.5 0.5t-12.5 0.5q-50 -12 -50 -33q0 -17 21 -19l130 -17q71 -9 109.5 -37.5t38.5 -91.5q0 -55 -24 -95t-66 -63t-93 -33.5t-112 -10.5q-116 0 -174.5 22.5t-58.5 77.5
q0 50 54 74l122 3q-20 -30 -20 -57q0 -30 21.5 -41.5t63.5 -11.5q127 0 127 77q0 27 -20 37t-67 15q-115 12 -130 14q-77 11 -77 79q0 93 134 124q-110 25 -110 131q0 87 66.5 137.5t177.5 50.5q40 0 99 -13t77 -13q58 0 107 43zM262 262q40 0 59 37.5t19 98.5q0 63 -49 63
q-40 0 -59 -39.5t-19 -96.5q0 -32 14.5 -47.5t34.5 -15.5zM319 564q-73 0 -109 52t-41 126l43 15q15 -42 41.5 -61t72.5 -19q83 0 148 83l39 -22q-69 -174 -194 -174z" />
    <glyph glyph-name="Gdotaccent" unicode="&#x120;" horiz-adv-x="710" 
d="M417 78l30 154q4 18 4 31q0 22 -15 30.5t-52 8.5l11 52h315l-10 -52q-38 0 -54.5 -14t-24.5 -56l-37 -191q-44 -25 -108.5 -40t-124.5 -15q-153 0 -229.5 71t-76.5 207q0 87 27 165.5t77.5 141.5t133.5 100.5t186 37.5q135 0 216 -51l-29 -146h-121q0 62 -18.5 89
t-65.5 27q-96 0 -155.5 -113t-59.5 -291q0 -89 27 -125t87 -36q40 0 67 15zM573 836q0 -38 -28 -65.5t-68 -27.5q-39 0 -67 27.5t-28 65.5q0 39 28.5 66.5t68.5 27.5t67 -27.5t27 -66.5z" />
    <glyph glyph-name="gdotaccent" unicode="&#x121;" horiz-adv-x="541" 
d="M575 546l36 -108q-32 -20 -82 -20q-40 0 -66 16q35 -30 35 -85q0 -66 -57 -109.5t-184 -43.5q-5 0 -15.5 0.5t-12.5 0.5q-50 -12 -50 -33q0 -17 21 -19l130 -17q71 -9 109.5 -37.5t38.5 -91.5q0 -55 -24 -95t-66 -63t-93 -33.5t-112 -10.5q-116 0 -174.5 22.5t-58.5 77.5
q0 50 54 74l122 3q-20 -30 -20 -57q0 -30 21.5 -41.5t63.5 -11.5q127 0 127 77q0 27 -20 37t-67 15q-115 12 -130 14q-77 11 -77 79q0 93 134 124q-110 25 -110 131q0 87 66.5 137.5t177.5 50.5q40 0 99 -13t77 -13q58 0 107 43zM262 262q40 0 59 37.5t19 98.5q0 63 -49 63
q-40 0 -59 -39.5t-19 -96.5q0 -32 14.5 -47.5t34.5 -15.5zM429 656q0 -38 -28 -65.5t-68 -27.5q-39 0 -67 27.5t-28 65.5q0 39 28.5 66.5t68.5 27.5t67 -27.5t27 -66.5z" />
    <glyph glyph-name="Gcommaaccent" unicode="&#x122;" horiz-adv-x="710" 
d="M417 78l30 154q4 18 4 31q0 22 -15 30.5t-52 8.5l11 52h315l-10 -52q-38 0 -54.5 -14t-24.5 -56l-37 -191q-44 -25 -108.5 -40t-124.5 -15q-153 0 -229.5 71t-76.5 207q0 87 27 165.5t77.5 141.5t133.5 100.5t186 37.5q135 0 216 -51l-29 -146h-121q0 62 -18.5 89
t-65.5 27q-96 0 -155.5 -113t-59.5 -291q0 -89 27 -125t87 -36q40 0 67 15zM393 -129q0 -66 -57 -107.5t-133 -53.5l-18 38q47 15 70.5 28t23.5 30q0 15 -20 24q-37 18 -37 62q0 31 23 51.5t61 20.5q41 0 64 -27.5t23 -65.5z" />
    <glyph glyph-name="gcommaaccent" unicode="&#x123;" horiz-adv-x="541" 
d="M575 546l36 -108q-32 -20 -82 -20q-40 0 -66 16q35 -30 35 -85q0 -66 -57 -109.5t-184 -43.5q-5 0 -15.5 0.5t-12.5 0.5q-50 -12 -50 -33q0 -17 21 -19l130 -17q71 -9 109.5 -37.5t38.5 -91.5q0 -55 -24 -95t-66 -63t-93 -33.5t-112 -10.5q-116 0 -174.5 22.5t-58.5 77.5
q0 50 54 74l122 3q-20 -30 -20 -57q0 -30 21.5 -41.5t63.5 -11.5q127 0 127 77q0 27 -20 37t-67 15q-115 12 -130 14q-77 11 -77 79q0 93 134 124q-110 25 -110 131q0 87 66.5 137.5t177.5 50.5q40 0 99 -13t77 -13q58 0 107 43zM262 262q40 0 59 37.5t19 98.5q0 63 -49 63
q-40 0 -59 -39.5t-19 -96.5q0 -32 14.5 -47.5t34.5 -15.5zM246 646q0 66 57 107.5t133 53.5l18 -38q-47 -15 -70.5 -28t-23.5 -30q0 -15 20 -24q37 -18 37 -62q0 -31 -23.5 -51.5t-60.5 -20.5q-41 0 -64 27.5t-23 65.5z" />
    <glyph glyph-name="Hcircumflex" unicode="&#x124;" horiz-adv-x="772" 
d="M468 120l37 190h-218l-37 -190q-4 -24 -4 -31q0 -22 12.5 -30.5t41.5 -8.5l-9 -50h-311l9 50q36 0 53 14t25 56l88 454q4 24 4 31q0 22 -12.5 30.5t-41.5 8.5l10 53h311l-10 -53q-36 0 -53 -14t-25 -56l-35 -179h218l35 179q4 24 4 31q0 22 -12.5 30.5t-41.5 8.5l10 53
h311l-10 -53q-36 0 -53 -14t-25 -56l-88 -454q-4 -24 -4 -31q0 -22 12.5 -30.5t41.5 -8.5l-9 -50h-311l9 50q36 0 53 14t25 56zM636 731l-139 77l-170 -75l-22 38l218 183l139 -189z" />
    <glyph glyph-name="hcircumflex" unicode="&#x125;" horiz-adv-x="600" 
d="M334 149l48 194q3 11 3 20q0 28 -29 28q-48 0 -110 -88l-67 -303h-169l123 565q5 21 5 43q0 24 -12.5 34t-42.5 10l12 52l202 26h13q6 -18 6 -52q0 -53 -14 -117l-35 -161q37 60 87 94.5t105 34.5q51 0 78 -29t27 -77q0 -22 -6 -46l-55 -232q-7 -30 -7 -41q0 -32 44 -32
q7 0 31 2l4 -45q-67 -38 -144 -38q-106 0 -106 96q0 27 9 62zM529 759l-139 77l-170 -75l-22 38l218 183l139 -189z" />
    <glyph glyph-name="Hbar" unicode="&#x126;" horiz-adv-x="772" 
d="M68 482l15 71h68l4 21q4 24 4 31q0 22 -12.5 30.5t-41.5 8.5l10 53h311l-10 -53q-36 0 -53 -14t-25 -56l-4 -21h218l4 21q4 24 4 31q0 22 -12.5 30.5t-41.5 8.5l10 53h311l-10 -53q-36 0 -53 -14t-25 -56l-4 -21h70l-15 -71h-69l-70 -362q-4 -24 -4 -31q0 -22 12.5 -30.5
t41.5 -8.5l-9 -50h-311l9 50q36 0 53 14t25 56l37 190h-218l-37 -190q-4 -24 -4 -31q0 -22 12.5 -30.5t41.5 -8.5l-9 -50h-311l9 50q36 0 53 14t25 56l70 362h-69zM303 395h218l17 87h-218z" />
    <glyph glyph-name="hbar" unicode="&#x127;" horiz-adv-x="600" 
d="M63 567l11 47h70q3 19 -4 26q-12 12 -57 12l12 52l202 26h13q6 -20 6 -53q0 -32 -5 -63h156l-11 -47h-153l-36 -167q37 60 87 94.5t105 34.5q51 0 78 -29t27 -77q0 -22 -6 -46l-55 -232q-7 -30 -7 -41q0 -17 10 -24.5t34 -7.5q7 0 31 2l4 -45q-67 -38 -144 -38
q-106 0 -106 96q0 27 9 62l48 194q3 11 3 20q0 28 -29 28q-48 0 -110 -88l-67 -303h-169l123 567h-70z" />
    <glyph glyph-name="Itilde" unicode="&#x128;" horiz-adv-x="371" 
d="M67 120l88 454q4 24 4 31q0 22 -12.5 30.5t-41.5 8.5l10 53h311l-10 -53q-36 0 -53 -14t-25 -56l-88 -454q-4 -24 -4 -31q0 -22 12.5 -30.5t41.5 -8.5l-9 -50h-311l9 50q36 0 53 14t25 56zM368 873q53 0 75 47l38 -17q-14 -62 -46 -102.5t-73 -40.5q-31 0 -75 16t-64 16
q-48 0 -73 -49l-36 16q8 61 40 105t75 44q30 0 72.5 -17.5t66.5 -17.5z" />
    <glyph glyph-name="itilde" unicode="&#x129;" horiz-adv-x="313" 
d="M271 386l-57 -241q-7 -30 -7 -41q0 -17 10 -24.5t34 -7.5q7 0 31 2l4 -45q-67 -38 -144 -38q-105 0 -105 97q0 25 8 61l51 208q6 23 6 38q0 49 -67 49l9 42q70 37 139 37q95 0 95 -85q0 -19 -7 -52zM286 693q53 0 75 47l38 -17q-14 -62 -46 -102.5t-73 -40.5
q-31 0 -75 16t-64 16q-48 0 -73 -49l-36 16q8 61 40 105t75 44q30 0 72.5 -17.5t66.5 -17.5z" />
    <glyph glyph-name="Imacron" unicode="&#x12a;" horiz-adv-x="371" 
d="M67 120l88 454q4 24 4 31q0 22 -12.5 30.5t-41.5 8.5l10 53h311l-10 -53q-36 0 -53 -14t-25 -56l-88 -454q-4 -24 -4 -31q0 -22 12.5 -30.5t41.5 -8.5l-9 -50h-311l9 50q36 0 53 14t25 56zM441 775h-311l18 87h311z" />
    <glyph glyph-name="imacron" unicode="&#x12b;" horiz-adv-x="313" 
d="M347 605h-294l18 87h294zM271 386l-57 -241q-7 -30 -7 -41q0 -17 10 -24.5t34 -7.5q7 0 31 2l4 -45q-67 -38 -144 -38q-105 0 -105 97q0 25 8 61l51 208q6 23 6 38q0 49 -67 49l9 42q70 37 139 37q95 0 95 -85q0 -19 -7 -52z" />
    <glyph glyph-name="Ibreve" unicode="&#x12c;" horiz-adv-x="371" 
d="M67 120l88 454q4 24 4 31q0 22 -12.5 30.5t-41.5 8.5l10 53h311l-10 -53q-36 0 -53 -14t-25 -56l-88 -454q-4 -24 -4 -31q0 -22 12.5 -30.5t41.5 -8.5l-9 -50h-311l9 50q36 0 53 14t25 56zM279 744q-73 0 -109 52t-41 126l43 15q15 -42 41.5 -61t72.5 -19q83 0 148 83
l39 -22q-69 -174 -194 -174z" />
    <glyph glyph-name="ibreve" unicode="&#x12d;" horiz-adv-x="313" 
d="M271 386l-57 -241q-7 -30 -7 -41q0 -17 10 -24.5t34 -7.5q7 0 31 2l4 -45q-67 -38 -144 -38q-105 0 -105 97q0 25 8 61l51 208q6 23 6 38q0 49 -67 49l9 42q70 37 139 37q95 0 95 -85q0 -19 -7 -52zM202 564q-73 0 -109 52t-41 126l43 15q15 -42 41.5 -61t72.5 -19
q83 0 148 83l39 -22q-69 -174 -194 -174z" />
    <glyph glyph-name="Iogonek" unicode="&#x12e;" horiz-adv-x="371" 
d="M249 -128l18 -30q-46 -47 -131 -47q-50 0 -85.5 21.5t-35.5 65.5q0 40 33 67.5t101 50.5h-169l9 50q36 0 53 14t25 56l88 454q4 24 4 31q0 22 -12.5 30.5t-41.5 8.5l10 53h311l-10 -53q-36 0 -53 -14t-25 -56l-88 -454q-4 -24 -4 -31q0 -22 12.5 -30.5t41.5 -8.5l-9 -50
h-18q-51 0 -85 -31t-34 -67q0 -22 13.5 -33t32.5 -11q24 0 49 14z" />
    <glyph glyph-name="iogonek" unicode="&#x12f;" horiz-adv-x="313" 
d="M282 74l4 -45q-9 -6 -41.5 -21t-52.5 -26.5t-38.5 -33.5t-18.5 -46q0 -22 13.5 -33t32.5 -11q24 0 49 14l18 -30q-46 -47 -131 -47q-50 0 -85.5 20.5t-35.5 64.5q0 70 120 115q-79 10 -79 95q0 24 8 59l51 208q6 23 6 38q0 49 -67 49l9 42q70 37 139 37q95 0 95 -85
q0 -19 -7 -52l-57 -241q-7 -30 -7 -41q0 -17 10 -24.5t34 -7.5q7 0 31 2zM324 660q0 -38 -28 -65t-67 -27q-38 0 -66 27t-28 65t28 65.5t68 27.5q39 0 66 -27.5t27 -65.5z" />
    <glyph glyph-name="Idotaccent" unicode="&#x130;" horiz-adv-x="371" 
d="M67 120l88 454q4 24 4 31q0 22 -12.5 30.5t-41.5 8.5l10 53h311l-10 -53q-36 0 -53 -14t-25 -56l-88 -454q-4 -24 -4 -31q0 -22 12.5 -30.5t41.5 -8.5l-9 -50h-311l9 50q36 0 53 14t25 56zM384 836q0 -38 -28 -65.5t-68 -27.5q-39 0 -67 27.5t-28 65.5q0 39 28.5 66.5
t68.5 27.5t67 -27.5t27 -66.5z" />
    <glyph glyph-name="dotlessi" unicode="&#x131;" horiz-adv-x="313" 
d="M271 386l-57 -241q-7 -30 -7 -41q0 -17 10 -24.5t34 -7.5q7 0 31 2l4 -45q-67 -38 -144 -38q-105 0 -105 97q0 25 8 61l51 208q6 23 6 38q0 49 -67 49l9 42q70 37 139 37q95 0 95 -85q0 -19 -7 -52z" />
    <glyph glyph-name="IJ" unicode="&#x132;" horiz-adv-x="732" 
d="M67 120l88 454q4 24 4 31q0 22 -12.5 30.5t-41.5 8.5l10 53h311l-10 -53q-36 0 -53 -14t-25 -56l-88 -454q-4 -24 -4 -31q0 -22 12.5 -30.5t41.5 -8.5l-9 -50h-311l9 50q36 0 53 14t25 56zM429 100l92 474q4 24 4 31q0 22 -12.5 30.5t-41.5 8.5l10 53h311l-10 -53
q-36 0 -53 -14t-25 -56l-94 -484q-24 -121 -100.5 -176.5t-221.5 -60.5l-14 51q79 22 108 63t47 133z" />
    <glyph glyph-name="ij" unicode="&#x133;" horiz-adv-x="600" 
d="M271 386l-57 -241q-7 -30 -7 -41q0 -17 10 -24.5t34 -7.5q7 0 31 2l4 -45q-67 -38 -144 -38q-105 0 -105 97q0 25 8 61l51 208q6 23 6 38q0 49 -67 49l9 42q70 37 139 37q95 0 95 -85q0 -19 -7 -52zM324 660q0 -38 -28 -65t-67 -27q-38 0 -66 27t-28 65t28 65.5t68 27.5
q39 0 66 -27.5t27 -65.5zM577 386l-80 -390q-19 -90 -82 -135t-196 -64l-16 61q65 19 90 48.5t41 108.5l68 342q4 20 4 37q0 27 -15 38.5t-50 11.5l9 42q70 37 139 37q94 0 94 -86q0 -23 -6 -51zM630 660q0 -38 -28 -65t-67 -27q-38 0 -66 27t-28 65t28 65.5t68 27.5
q39 0 66 -27.5t27 -65.5z" />
    <glyph glyph-name="Jcircumflex" unicode="&#x134;" horiz-adv-x="366" 
d="M63 100l92 474q4 24 4 31q0 22 -12.5 30.5t-41.5 8.5l10 53h311l-10 -53q-36 0 -53 -14t-25 -56l-94 -484q-24 -121 -100.5 -176.5t-221.5 -60.5l-14 51q79 22 108 63t47 133zM432 731l-139 77l-170 -75l-22 38l218 183l139 -189z" />
    <glyph glyph-name="jcircumflex" unicode="&#x135;" horiz-adv-x="292" 
d="M269 386l-80 -390q-19 -90 -82 -135t-196 -64l-16 61q65 19 90 48.5t41 108.5l68 342q4 20 4 37q0 27 -15 38.5t-50 11.5l9 42q70 37 139 37q94 0 94 -86q0 -23 -6 -51zM350 552l-139 77l-170 -75l-22 38l218 183l139 -189z" />
    <glyph glyph-name="Kcommaaccent" unicode="&#x136;" horiz-adv-x="683" 
d="M67 120l88 454q4 24 4 31q0 22 -12.5 30.5t-41.5 8.5l10 53h311l-10 -53q-36 0 -53 -14t-25 -56l-88 -454q-4 -24 -4 -31q0 -22 12.5 -30.5t41.5 -8.5l-9 -50h-311l9 50q36 0 53 14t25 56zM642 588l-174 -180l123 -309q11 -26 26.5 -36.5t44.5 -12.5l-9 -50h-225
l-119 340l226 252q12 14 12 28q0 26 -34 26l10 51h230l-10 -51q-30 -4 -51 -16.5t-50 -41.5zM398 -129q0 -66 -57 -107.5t-133 -53.5l-18 38q47 15 70.5 28t23.5 30q0 15 -20 24q-37 18 -37 62q0 31 23.5 51.5t60.5 20.5q41 0 64 -27.5t23 -65.5z" />
    <glyph glyph-name="kcommaaccent" unicode="&#x137;" horiz-adv-x="568" 
d="M393 328l60 -189q13 -41 26.5 -55.5t39.5 -14.5q10 0 26 2l4 -42q-58 -38 -132 -38q-55 0 -81.5 22t-42.5 81l-47 175l191 247h161l-9 -43q-32 0 -74.5 -28t-81.5 -72zM179 0h-169l121 565q5 21 5 42q0 25 -12.5 35t-42.5 10l12 52l202 26h13q6 -20 6 -53q0 -54 -14 -116
zM322 -129q0 -66 -57 -107.5t-133 -53.5l-18 38q47 15 70.5 28t23.5 30q0 15 -20 24q-37 18 -37 62q0 31 23.5 51.5t60.5 20.5q41 0 64 -27.5t23 -65.5z" />
    <glyph glyph-name="kgreenlandic" unicode="&#x138;" horiz-adv-x="583" 
d="M408 328l60 -189q13 -41 26.5 -55.5t39.5 -14.5q6 0 26 2l4 -42q-58 -38 -132 -38q-55 0 -81.5 22t-42.5 81l-47 175l191 247h161l-9 -43q-32 0 -74.5 -28t-81.5 -72zM276 386l-82 -386h-169l76 357q5 25 5 38q0 27 -15.5 38t-50.5 11l9 42q70 37 139 37q94 0 94 -87
q0 -22 -6 -50z" />
    <glyph glyph-name="Lacute" unicode="&#x139;" horiz-adv-x="574" 
d="M338 574l-97 -500h72q49 0 82.5 28.5t60.5 99.5h91l-53 -202h-514l9 50q36 0 53 14t25 56l88 454q4 24 4 31q0 22 -12.5 30.5t-41.5 8.5l10 53h311l-10 -53q-36 0 -53 -14t-25 -56zM187 721l-25 39l211 180l74 -146z" />
    <glyph glyph-name="lacute" unicode="&#x13a;" horiz-adv-x="312" 
d="M38 149l90 416q5 21 5 42q0 25 -12.5 35t-42.5 10l12 52l202 26h13q7 -23 7 -53q0 -49 -15 -116l-90 -416q-6 -25 -6 -40q0 -18 9.5 -25.5t35.5 -7.5q11 0 29 2l4 -45q-67 -38 -144 -38q-104 0 -104 97q0 30 7 61zM155 731l-25 39l211 180l74 -146z" />
    <glyph glyph-name="Lcommaaccent" unicode="&#x13b;" horiz-adv-x="574" 
d="M338 574l-97 -500h72q49 0 82.5 28.5t60.5 99.5h91l-53 -202h-514l9 50q36 0 53 14t25 56l88 454q4 24 4 31q0 22 -12.5 30.5t-41.5 8.5l10 53h311l-10 -53q-36 0 -53 -14t-25 -56zM335 -129q0 -66 -57 -107.5t-133 -53.5l-18 38q47 15 70.5 28t23.5 30q0 15 -20 24
q-37 18 -37 62q0 31 23.5 51.5t60.5 20.5q41 0 64 -27.5t23 -65.5z" />
    <glyph glyph-name="lcommaaccent" unicode="&#x13c;" horiz-adv-x="312" 
d="M38 149l90 416q5 21 5 42q0 25 -12.5 35t-42.5 10l12 52l202 26h13q7 -23 7 -53q0 -49 -15 -116l-90 -416q-6 -25 -6 -40q0 -18 9.5 -25.5t35.5 -7.5q11 0 29 2l4 -45q-67 -38 -144 -38q-104 0 -104 97q0 30 7 61zM171 -129q0 -66 -57 -107.5t-133 -53.5l-18 38
q47 15 70.5 28t23.5 30q0 15 -20 24q-37 18 -37 62q0 31 23 51.5t61 20.5q41 0 64 -27.5t23 -65.5z" />
    <glyph glyph-name="Lcaron" unicode="&#x13d;" horiz-adv-x="574" 
d="M338 574l-97 -500h72q49 0 82.5 28.5t60.5 99.5h91l-53 -202h-514l9 50q36 0 53 14t25 56l88 454q4 24 4 31q0 22 -12.5 30.5t-41.5 8.5l10 53h311l-10 -53q-36 0 -53 -14t-25 -56zM616 728l-89 -172l-67 8l32 176z" />
    <glyph glyph-name="lcaron" unicode="&#x13e;" horiz-adv-x="312" 
d="M38 149l90 416q5 21 5 42q0 25 -12.5 35t-42.5 10l12 52l202 26h13q7 -23 7 -53q0 -49 -15 -116l-90 -416q-6 -25 -6 -40q0 -18 9.5 -25.5t35.5 -7.5q11 0 29 2l4 -45q-67 -38 -144 -38q-104 0 -104 97q0 30 7 61zM483 728l-79 -172l-67 8l22 176z" />
    <glyph glyph-name="Ldot" unicode="&#x13f;" horiz-adv-x="574" 
d="M338 574l-97 -500h72q49 0 82.5 28.5t60.5 99.5h91l-53 -202h-514l9 50q36 0 53 14t25 56l88 454q4 24 4 31q0 22 -12.5 30.5t-41.5 8.5l10 53h311l-10 -53q-36 0 -53 -14t-25 -56zM601 382q0 -40 -29 -69t-70 -29q-40 0 -69 29t-29 69t29 69t69 29t69.5 -29t29.5 -69z
" />
    <glyph glyph-name="ldot" unicode="&#x140;" horiz-adv-x="473" 
d="M38 149l90 416q5 21 5 42q0 25 -12.5 35t-42.5 10l12 52l202 26h13q7 -23 7 -53q0 -49 -15 -116l-90 -416q-6 -25 -6 -40q0 -18 9.5 -25.5t35.5 -7.5q11 0 29 2l4 -45q-67 -38 -144 -38q-104 0 -104 97q0 30 7 61zM496 352q0 -39 -28.5 -67t-67.5 -28t-67 27.5t-28 67.5
q0 39 28 66.5t67 27.5t67.5 -27.5t28.5 -66.5z" />
    <glyph glyph-name="Lslash" unicode="&#x141;" horiz-adv-x="574" 
d="M338 574l-38 -195l179 59l-13 -63l-178 -59l-47 -242h72q49 0 82.5 28.5t60.5 99.5h91l-53 -202h-514l9 50q36 0 53 14t25 56l25 132l-71 -23l13 62l70 23l51 260q4 24 4 31q0 22 -12.5 30.5t-41.5 8.5l10 53h311l-10 -53q-36 0 -53 -14t-25 -56z" />
    <glyph glyph-name="lslash" unicode="&#x142;" horiz-adv-x="312" 
d="M41 149l36 166l-71 -26l20 65l64 24l41 187q5 21 5 42q0 25 -12.5 35t-42.5 10l12 52l202 26h13q7 -23 7 -53q0 -49 -15 -116l-25 -114l84 32l-20 -65l-77 -29l-52 -240q-6 -25 -6 -40q0 -18 9.5 -25.5t35.5 -7.5q11 0 29 2l4 -45q-67 -38 -144 -38q-104 0 -104 97
q0 30 7 61z" />
    <glyph glyph-name="Nacute" unicode="&#x143;" horiz-adv-x="710" 
d="M555 395l35 179q4 24 4 31q0 22 -12.5 30.5t-41.5 8.5l10 53h220l-10 -53q-36 0 -53 -14t-25 -56l-111 -574h-113l-170 377q-19 41 -31 79.5t-15.5 57.5t-3.5 28h-6q-9 -100 -22 -165l-49 -257q-4 -24 -4 -31q0 -22 12.5 -30.5t41.5 -8.5l-9 -50h-222l9 50q36 0 53 14
t25 56l88 454q4 24 4 31q0 22 -12.5 30.5t-41.5 8.5l10 53h243l135 -302q35 -79 35 -140h6q3 45 21 140zM361 721l-25 39l211 180l74 -146z" />
    <glyph glyph-name="nacute" unicode="&#x144;" horiz-adv-x="613" 
d="M347 149l48 194q3 11 3 20q0 28 -29 28q-48 0 -110 -88l-65 -303h-169l81 376q2 8 2 22q0 45 -66 46l9 42q74 37 138 37q84 0 84 -102q0 -17 -1 -27q81 135 200 135q51 0 78 -29t27 -77q0 -22 -6 -46l-55 -232q-7 -30 -7 -41q0 -18 10 -25t34 -7q11 0 31 2l4 -45
q-67 -38 -144 -38q-106 0 -106 96q0 27 9 62zM274 554l-28 36l192 200l88 -139z" />
    <glyph glyph-name="Ncommaaccent" unicode="&#x145;" horiz-adv-x="710" 
d="M555 395l35 179q4 24 4 31q0 22 -12.5 30.5t-41.5 8.5l10 53h220l-10 -53q-36 0 -53 -14t-25 -56l-111 -574h-113l-170 377q-19 41 -31 79.5t-15.5 57.5t-3.5 28h-6q-9 -100 -22 -165l-49 -257q-4 -24 -4 -31q0 -22 12.5 -30.5t41.5 -8.5l-9 -50h-222l9 50q36 0 53 14
t25 56l88 454q4 24 4 31q0 22 -12.5 30.5t-41.5 8.5l10 53h243l135 -302q35 -79 35 -140h6q3 45 21 140zM377 -129q0 -66 -57 -107.5t-133 -53.5l-18 38q47 15 70.5 28t23.5 30q0 15 -20 24q-37 18 -37 62q0 31 23 51.5t61 20.5q41 0 64 -27.5t23 -65.5z" />
    <glyph glyph-name="ncommaaccent" unicode="&#x146;" horiz-adv-x="613" 
d="M347 149l48 194q3 11 3 20q0 28 -29 28q-48 0 -110 -88l-65 -303h-169l81 376q2 8 2 22q0 45 -66 46l9 42q74 37 138 37q84 0 84 -102q0 -17 -1 -27q81 135 200 135q51 0 78 -29t27 -77q0 -22 -6 -46l-55 -232q-7 -30 -7 -41q0 -18 10 -25t34 -7q11 0 31 2l4 -45
q-67 -38 -144 -38q-106 0 -106 96q0 27 9 62zM343 -129q0 -66 -57 -107.5t-133 -53.5l-18 38q47 15 70.5 28t23.5 30q0 15 -20 24q-37 18 -37 62q0 31 23 51.5t61 20.5q41 0 64 -27.5t23 -65.5z" />
    <glyph glyph-name="Ncaron" unicode="&#x147;" horiz-adv-x="710" 
d="M555 395l35 179q4 24 4 31q0 22 -12.5 30.5t-41.5 8.5l10 53h220l-10 -53q-36 0 -53 -14t-25 -56l-111 -574h-113l-170 377q-19 41 -31 79.5t-15.5 57.5t-3.5 28h-6q-9 -100 -22 -165l-49 -257q-4 -24 -4 -31q0 -22 12.5 -30.5t41.5 -8.5l-9 -50h-222l9 50q36 0 53 14
t25 56l88 454q4 24 4 31q0 22 -12.5 30.5t-41.5 8.5l10 53h243l135 -302q35 -79 35 -140h6q3 45 21 140zM327 955l139 -77l170 75l22 -38l-218 -183l-139 189z" />
    <glyph glyph-name="ncaron" unicode="&#x148;" horiz-adv-x="613" 
d="M347 149l48 194q3 11 3 20q0 28 -29 28q-48 0 -110 -88l-65 -303h-169l81 376q2 8 2 22q0 45 -66 46l9 42q74 37 138 37q84 0 84 -102q0 -17 -1 -27q81 135 200 135q51 0 78 -29t27 -77q0 -22 -6 -46l-55 -232q-7 -30 -7 -41q0 -18 10 -25t34 -7q11 0 31 2l4 -45
q-67 -38 -144 -38q-106 0 -106 96q0 27 9 62zM232 775l137 -77l172 75l22 -38l-218 -183l-139 189z" />
    <glyph glyph-name="napostrophe" unicode="&#x149;" horiz-adv-x="613" 
d="M50 619q0 -66 -57 -107.5t-133 -53.5l-18 38q47 15 70.5 28t23.5 30q0 15 -20 24q-37 18 -37 62q0 31 23.5 51.5t60.5 20.5q41 0 64 -27.5t23 -65.5zM347 149l48 194q3 11 3 20q0 28 -29 28q-48 0 -110 -88l-65 -303h-169l81 376q2 8 2 22q0 45 -66 46l9 42q74 37 138 37
q84 0 84 -102q0 -17 -1 -27q81 135 200 135q51 0 78 -29t27 -77q0 -22 -6 -46l-55 -232q-7 -30 -7 -41q0 -18 10 -25t34 -7q11 0 31 2l4 -45q-67 -38 -144 -38q-106 0 -106 96q0 27 9 62z" />
    <glyph glyph-name="Eng" unicode="&#x14a;" horiz-adv-x="710" 
d="M682 574l-102 -526q-24 -123 -90.5 -177.5t-198.5 -59.5l-14 51q79 22 108 63t47 133l-144 319q-19 41 -31 79.5t-15.5 57.5t-3.5 28h-6q-9 -100 -22 -165l-49 -257q-4 -24 -4 -31q0 -22 12.5 -30.5t41.5 -8.5l-9 -50h-222l9 50q36 0 53 14t25 56l88 454q4 24 4 31
q0 22 -12.5 30.5t-41.5 8.5l10 53h243l135 -302q35 -79 35 -140h6q3 45 21 140l35 179q4 24 4 31q0 22 -12.5 30.5t-41.5 8.5l10 53h220l-10 -53q-36 0 -53 -14t-25 -56z" />
    <glyph glyph-name="eng" unicode="&#x14b;" horiz-adv-x="592" 
d="M195 -142q65 19 90 49t41 107l69 329q3 11 3 20q0 28 -29 28q-48 0 -110 -88l-65 -303h-169l81 376q2 8 2 22q0 45 -66 46l9 42q74 37 138 37q84 0 84 -102q0 -17 -1 -27q81 135 200 135q51 0 78 -29t27 -77q0 -22 -6 -46l-81 -381q-19 -90 -82.5 -135t-196.5 -64z" />
    <glyph glyph-name="Omacron" unicode="&#x14c;" horiz-adv-x="716" 
d="M323 -14q-135 0 -207 81t-72 211q0 61 14 122t44.5 116.5t72.5 98.5t102.5 68.5t131.5 25.5q131 0 206.5 -77.5t75.5 -215.5q0 -64 -13.5 -125t-43 -117t-72 -97.5t-104 -66t-135.5 -24.5zM409 629q-59 0 -91 -51q-42 -68 -62.5 -169.5t-20.5 -199.5q0 -147 87 -147
q63 0 97 50q39 57 59.5 161t20.5 201q0 82 -20 118.5t-70 36.5zM586 775h-311l18 87h311z" />
    <glyph glyph-name="omacron" unicode="&#x14d;" horiz-adv-x="567" 
d="M546 316q0 -138 -76 -234t-224 -96q-100 0 -158.5 57t-58.5 154q0 61 18 118.5t52.5 106t93 78t132.5 29.5q100 0 160.5 -52.5t60.5 -160.5zM251 56q51 0 76 69q17 46 30.5 119.5t13.5 136.5q0 77 -50 77q-25 0 -42 -15t-31 -53q-19 -54 -32 -130t-13 -139q0 -65 48 -65z
M499 605h-311l18 87h311z" />
    <glyph glyph-name="Obreve" unicode="&#x14e;" horiz-adv-x="716" 
d="M323 -14q-135 0 -207 81t-72 211q0 61 14 122t44.5 116.5t72.5 98.5t102.5 68.5t131.5 25.5q131 0 206.5 -77.5t75.5 -215.5q0 -64 -13.5 -125t-43 -117t-72 -97.5t-104 -66t-135.5 -24.5zM409 629q-59 0 -91 -51q-42 -68 -62.5 -169.5t-20.5 -199.5q0 -147 87 -147
q63 0 97 50q39 57 59.5 161t20.5 201q0 82 -20 118.5t-70 36.5zM421 744q-73 0 -109 52t-41 126l43 15q15 -42 41.5 -61t72.5 -19q83 0 148 83l39 -22q-69 -174 -194 -174z" />
    <glyph glyph-name="obreve" unicode="&#x14f;" horiz-adv-x="567" 
d="M546 316q0 -138 -76 -234t-224 -96q-100 0 -158.5 57t-58.5 154q0 61 18 118.5t52.5 106t93 78t132.5 29.5q100 0 160.5 -52.5t60.5 -160.5zM251 56q51 0 76 69q17 46 30.5 119.5t13.5 136.5q0 77 -50 77q-25 0 -42 -15t-31 -53q-19 -54 -32 -130t-13 -139q0 -65 48 -65z
M335 564q-73 0 -109 52t-41 126l43 15q15 -42 41.5 -61t72.5 -19q83 0 148 83l39 -22q-69 -174 -194 -174z" />
    <glyph glyph-name="Ohungarumlaut" unicode="&#x150;" horiz-adv-x="716" 
d="M323 -14q-135 0 -207 81t-72 211q0 61 14 122t44.5 116.5t72.5 98.5t102.5 68.5t131.5 25.5q131 0 206.5 -77.5t75.5 -215.5q0 -64 -13.5 -125t-43 -117t-72 -97.5t-104 -66t-135.5 -24.5zM409 629q-59 0 -91 -51q-42 -68 -62.5 -169.5t-20.5 -199.5q0 -147 87 -147
q63 0 97 50q39 57 59.5 161t20.5 201q0 82 -20 118.5t-70 36.5zM511 939l-161 -200l-52 21l80 228zM689 905l-181 -176l-46 26l102 224z" />
    <glyph glyph-name="ohungarumlaut" unicode="&#x151;" horiz-adv-x="567" 
d="M546 316q0 -138 -76 -234t-224 -96q-100 0 -158.5 57t-58.5 154q0 61 18 118.5t52.5 106t93 78t132.5 29.5q100 0 160.5 -52.5t60.5 -160.5zM251 56q51 0 76 69q17 46 30.5 119.5t13.5 136.5q0 77 -50 77q-25 0 -42 -15t-31 -53q-19 -54 -32 -130t-13 -139q0 -65 48 -65z
M422 760l-161 -200l-52 21l80 228zM600 726l-181 -176l-46 26l102 224z" />
    <glyph glyph-name="OE" unicode="&#x152;" horiz-adv-x="957" 
d="M359 74h53l105 543h-61q-51 0 -87.5 -16.5t-63.5 -61.5q-33 -55 -51.5 -141t-18.5 -175q0 -67 34 -108t90 -41zM871 0h-518q-144 0 -226.5 71.5t-82.5 206.5q0 179 108 299t287 120h543l-22 -177h-88q-6 61 -20.5 79t-68.5 18h-84l-44 -230h48q46 0 64.5 14t30.5 57h77
l-43 -218h-77q5 41 -7.5 56t-58.5 15h-49l-46 -237h105q48 0 74 24t45 92h89z" />
    <glyph glyph-name="oe" unicode="&#x153;" horiz-adv-x="859" 
d="M849 386q0 -171 -294 -171h-23q-3 -15 -3 -43q0 -85 88 -85q84 0 146 53l33 -46q-92 -108 -231 -108q-106 0 -150 53q-62 -53 -169 -53q-100 0 -158.5 57t-58.5 154q0 61 18 118.5t52.5 106t93 78t132.5 29.5q109 0 164 -67q70 67 175 67q185 0 185 -143zM251 56
q51 0 76 69q17 46 30.5 119.5t13.5 136.5q0 77 -50 77q-25 0 -42 -15t-31 -53q-19 -54 -32 -130t-13 -139q0 -65 48 -65zM694 410q0 22 -11 34.5t-30 12.5q-35 0 -64.5 -47t-45.5 -127q151 0 151 127z" />
    <glyph glyph-name="Racute" unicode="&#x154;" horiz-adv-x="675" 
d="M444 306v-4q26 -9 53 -29t41 -45q25 -44 49 -120q10 -32 22 -45t38 -13l-9 -50h-215q-29 115 -54 193q-15 47 -34 64t-54 23l-31 -160q-4 -24 -4 -31q0 -22 12.5 -30.5t41.5 -8.5l-9 -50h-311l9 50q36 0 53 14t25 56l88 454q4 24 4 31q0 22 -12.5 30.5t-41.5 8.5l10 53
h308q238 0 238 -173q0 -91 -59.5 -146.5t-157.5 -71.5zM346 617l-49 -255h42q63 0 99 45t36 119q0 49 -20.5 70t-68.5 21h-39zM308 721l-25 39l211 180l74 -146z" />
    <glyph glyph-name="racute" unicode="&#x155;" horiz-adv-x="445" 
d="M484 517l-42 -172q-34 13 -66 13q-55 0 -87 -29.5t-51 -121.5l-44 -207h-169l81 376q6 30 -4 46q-13 21 -60 22l9 42q74 37 138 37q79 0 79 -112q0 -7 -2 -31q29 68 71.5 108.5t92.5 40.5q31 0 54 -12zM227 554l-28 36l192 200l88 -139z" />
    <glyph glyph-name="Rcommaaccent" unicode="&#x156;" horiz-adv-x="675" 
d="M444 306v-4q26 -9 53 -29t41 -45q25 -44 49 -120q10 -32 22 -45t38 -13l-9 -50h-215q-29 115 -54 193q-15 47 -34 64t-54 23l-31 -160q-4 -24 -4 -31q0 -22 12.5 -30.5t41.5 -8.5l-9 -50h-311l9 50q36 0 53 14t25 56l88 454q4 24 4 31q0 22 -12.5 30.5t-41.5 8.5l10 53
h308q238 0 238 -173q0 -91 -59.5 -146.5t-157.5 -71.5zM346 617l-49 -255h42q63 0 99 45t36 119q0 49 -20.5 70t-68.5 21h-39zM384 -129q0 -66 -57 -107.5t-133 -53.5l-18 38q47 15 70.5 28t23.5 30q0 15 -20 24q-37 18 -37 62q0 31 23.5 51.5t60.5 20.5q41 0 64 -27.5
t23 -65.5z" />
    <glyph glyph-name="rcommaaccent" unicode="&#x157;" horiz-adv-x="445" 
d="M484 517l-42 -172q-34 13 -66 13q-55 0 -87 -29.5t-51 -121.5l-44 -207h-169l81 376q6 30 -4 46q-13 21 -60 22l9 42q74 37 138 37q79 0 79 -112q0 -7 -2 -31q29 68 71.5 108.5t92.5 40.5q31 0 54 -12zM172 -129q0 -66 -57 -107.5t-133 -53.5l-18 38q47 15 70.5 28
t23.5 30q0 15 -20 24q-37 18 -37 62q0 31 23.5 51.5t60.5 20.5q41 0 64 -27.5t23 -65.5z" />
    <glyph glyph-name="Rcaron" unicode="&#x158;" horiz-adv-x="675" 
d="M444 306v-4q26 -9 53 -29t41 -45q25 -44 49 -120q10 -32 22 -45t38 -13l-9 -50h-215q-29 115 -54 193q-15 47 -34 64t-54 23l-31 -160q-4 -24 -4 -31q0 -22 12.5 -30.5t41.5 -8.5l-9 -50h-311l9 50q36 0 53 14t25 56l88 454q4 24 4 31q0 22 -12.5 30.5t-41.5 8.5l10 53
h308q238 0 238 -173q0 -91 -59.5 -146.5t-157.5 -71.5zM346 617l-49 -255h42q63 0 99 45t36 119q0 49 -20.5 70t-68.5 21h-39zM267 955l139 -77l170 75l22 -38l-218 -183l-139 189z" />
    <glyph glyph-name="rcaron" unicode="&#x159;" horiz-adv-x="445" 
d="M484 517l-42 -172q-34 13 -66 13q-55 0 -87 -29.5t-51 -121.5l-44 -207h-169l81 376q6 30 -4 46q-13 21 -60 22l9 42q74 37 138 37q79 0 79 -112q0 -7 -2 -31q29 68 71.5 108.5t92.5 40.5q31 0 54 -12zM182 775l137 -77l172 75l22 -38l-218 -183l-139 189z" />
    <glyph glyph-name="Sacute" unicode="&#x15a;" horiz-adv-x="551" 
d="M235 -14q-90 0 -151 19t-89 44l26 143h118q-1 -73 24 -107.5t80 -34.5q48 0 77.5 26.5t29.5 80.5q0 41 -19 63.5t-68 43.5l-67 28q-126 53 -126 186q0 107 73.5 169t194.5 62q129 0 222 -53l-28 -147h-114q2 69 -21.5 99.5t-73.5 30.5q-46 0 -73.5 -25.5t-27.5 -68.5
q0 -61 75 -93l72 -30q76 -31 113.5 -73.5t37.5 -121.5q0 -115 -80 -178t-205 -63zM257 721l-25 39l211 180l74 -146z" />
    <glyph glyph-name="sacute" unicode="&#x15b;" horiz-adv-x="470" 
d="M181 -14q-119 0 -181 47l18 111h103q0 -86 75 -86q84 0 84 61q0 23 -14.5 36t-46.5 23l-40 12q-120 36 -120 149q0 91 63 140.5t164 49.5q95 0 175 -39l-19 -113h-100q0 83 -69 83q-32 0 -55.5 -16.5t-23.5 -46.5q0 -33 59 -50l40 -12q71 -21 102.5 -57t31.5 -98
q0 -92 -64.5 -143t-181.5 -51zM199 554l-28 36l192 200l88 -139z" />
    <glyph glyph-name="Scircumflex" unicode="&#x15c;" horiz-adv-x="551" 
d="M235 -14q-90 0 -151 19t-89 44l26 143h118q-1 -73 24 -107.5t80 -34.5q48 0 77.5 26.5t29.5 80.5q0 41 -19 63.5t-68 43.5l-67 28q-126 53 -126 186q0 107 73.5 169t194.5 62q129 0 222 -53l-28 -147h-114q2 69 -21.5 99.5t-73.5 30.5q-46 0 -73.5 -25.5t-27.5 -68.5
q0 -61 75 -93l72 -30q76 -31 113.5 -73.5t37.5 -121.5q0 -115 -80 -178t-205 -63zM510 731l-139 77l-170 -75l-22 38l218 183l139 -189z" />
    <glyph glyph-name="scircumflex" unicode="&#x15d;" horiz-adv-x="470" 
d="M181 -14q-119 0 -181 47l18 111h103q0 -86 75 -86q84 0 84 61q0 23 -14.5 36t-46.5 23l-40 12q-120 36 -120 149q0 91 63 140.5t164 49.5q95 0 175 -39l-19 -113h-100q0 83 -69 83q-32 0 -55.5 -16.5t-23.5 -46.5q0 -33 59 -50l40 -12q71 -21 102.5 -57t31.5 -98
q0 -92 -64.5 -143t-181.5 -51zM462 552l-139 77l-170 -75l-22 38l218 183l139 -189z" />
    <glyph glyph-name="Scedilla" unicode="&#x15e;" horiz-adv-x="551" 
d="M326 -121q0 -85 -126 -85q-69 0 -106 25l17 42q30 -19 68 -19q34 0 34 25q0 29 -55 31l1 21l30 69q-138 9 -194 61l26 143h118v-12q0 -130 104 -130q48 0 77.5 26.5t29.5 80.5q0 41 -19 63.5t-68 43.5l-67 28q-126 53 -126 186q0 107 73.5 169t194.5 62q129 0 222 -53
l-28 -147h-114v12q0 61 -23 89.5t-72 28.5q-46 0 -73.5 -25.5t-27.5 -68.5q0 -61 75 -93l72 -30q76 -31 113.5 -73.5t37.5 -121.5q0 -114 -79 -177t-203 -64l-13 -28q101 -6 101 -79z" />
    <glyph glyph-name="scedilla" unicode="&#x15f;" horiz-adv-x="470" 
d="M284 -121q0 -85 -126 -85q-69 0 -106 25l17 42q30 -19 68 -19q34 0 34 25q0 29 -55 31l1 21l30 68q-98 6 -147 46l18 111h103q0 -86 75 -86q84 0 84 61q0 23 -14.5 36t-46.5 23l-40 12q-120 36 -120 149q0 91 63 140.5t164 49.5q95 0 175 -39l-19 -113h-100q0 83 -69 83
q-32 0 -55.5 -16.5t-23.5 -46.5q0 -33 59 -50l40 -12q71 -21 102.5 -57t31.5 -98q0 -89 -60 -139.5t-171 -54.5l-13 -28q101 -6 101 -79z" />
    <glyph glyph-name="Scaron" unicode="&#x160;" horiz-adv-x="551" 
d="M235 -14q-90 0 -151 19t-89 44l26 143h118q-1 -73 24 -107.5t80 -34.5q48 0 77.5 26.5t29.5 80.5q0 41 -19 63.5t-68 43.5l-67 28q-126 53 -126 186q0 107 73.5 169t194.5 62q129 0 222 -53l-28 -147h-114q2 69 -21.5 99.5t-73.5 30.5q-46 0 -73.5 -25.5t-27.5 -68.5
q0 -61 75 -93l72 -30q76 -31 113.5 -73.5t37.5 -121.5q0 -115 -80 -178t-205 -63zM220 955l139 -77l170 75l22 -38l-218 -183l-139 189z" />
    <glyph glyph-name="scaron" unicode="&#x161;" horiz-adv-x="470" 
d="M181 -14q-119 0 -181 47l18 111h103q0 -86 75 -86q84 0 84 61q0 23 -14.5 36t-46.5 23l-40 12q-120 36 -120 149q0 91 63 140.5t164 49.5q95 0 175 -39l-19 -113h-100q0 83 -69 83q-32 0 -55.5 -16.5t-23.5 -46.5q0 -33 59 -50l40 -12q71 -21 102.5 -57t31.5 -98
q0 -92 -64.5 -143t-181.5 -51zM165 775l137 -77l172 75l22 -38l-218 -183l-139 189z" />
    <glyph glyph-name="Tcommaaccent" unicode="&#x162;" horiz-adv-x="634" 
d="M110 697h579l-26 -197h-87l-1 13q-5 65 -16.5 84.5t-54.5 19.5h-29l-96 -497q-3 -18 -3 -30q0 -23 14 -31.5t49 -8.5l-9 -50h-139l-20 -42q101 -6 101 -79q0 -85 -126 -85q-69 0 -106 25l17 42q30 -19 68 -19q34 0 34 25q0 29 -55 31l1 21l35 81h-141l9 50q44 0 62 14
t26 56l96 497h-29q-46 0 -65 -22t-51 -95h-87z" />
    <glyph glyph-name="tcommaaccent" unicode="&#x163;" horiz-adv-x="372" 
d="M412 516l-31 -80h-106l-56 -260q-6 -30 -6 -49q0 -53 50 -53q35 0 68 12l8 -52q-59 -46 -155 -48l-13 -28q101 -6 101 -79q0 -85 -126 -85q-69 0 -106 25l17 42q30 -19 68 -19q34 0 34 25q0 29 -55 31l1 21l31 71q-94 16 -94 105q0 34 10 81l54 260h-59l12 57l71 23
q39 104 92 142l117 8q-25 -59 -46 -150h119z" />
    <glyph glyph-name="Tcaron" unicode="&#x164;" horiz-adv-x="634" 
d="M110 697h579l-26 -197h-87q-6 75 -17.5 96t-54.5 21h-29l-96 -497q-3 -18 -3 -30q0 -23 14 -31.5t49 -8.5l-9 -50h-331l9 50q44 0 62 14t26 56l96 497h-29q-46 0 -65 -22t-51 -95h-87zM276 955l139 -77l170 75l22 -38l-218 -183l-139 189z" />
    <glyph glyph-name="tcaron" unicode="&#x165;" horiz-adv-x="372" 
d="M412 516l-31 -80h-106l-56 -260q-6 -30 -6 -49q0 -53 50 -53q35 0 68 12l8 -52q-61 -48 -161 -48q-68 0 -102 29.5t-34 79.5q0 34 10 81l54 260h-59l12 57l71 23q39 104 92 142l117 8q-25 -59 -46 -150h119zM514 728l-79 -172l-67 8l22 176z" />
    <glyph glyph-name="Tbar" unicode="&#x166;" horiz-adv-x="634" 
d="M110 697h579l-26 -197h-87q-6 75 -17.5 96t-54.5 21h-29l-44 -224h117l-16 -86h-117l-36 -187q-3 -18 -3 -30q0 -23 14 -31.5t49 -8.5l-9 -50h-331l9 50q44 0 62 14t26 56l36 187h-107l16 86h107l44 224h-29q-46 0 -65 -22t-51 -95h-87z" />
    <glyph glyph-name="tbar" unicode="&#x167;" horiz-adv-x="372" 
d="M412 516l-31 -80h-106l-20 -91h115l-17 -76h-114l-20 -93q-6 -30 -6 -49q0 -53 50 -53q35 0 68 12l8 -52q-61 -48 -161 -48q-68 0 -102 29.5t-34 79.5q0 34 10 81l19 93h-59l17 76h58l19 91h-59l12 57l71 23q39 104 92 142l117 8q-25 -59 -46 -150h119z" />
    <glyph glyph-name="Utilde" unicode="&#x168;" horiz-adv-x="691" 
d="M512 228l67 346q4 24 4 31q0 22 -12.5 30.5t-41.5 8.5l10 53h217l-10 -53q-36 0 -53 -14t-25 -56l-67 -346q-23 -120 -87 -181t-182 -61q-252 0 -255 192q0 42 9 92l59 304q4 24 4 31q0 22 -12.5 30.5t-41.5 8.5l10 53h311l-10 -53q-36 0 -53 -14t-25 -56l-62 -317
q-9 -49 -9 -84q1 -49 28 -72t84 -23q114 0 143 150zM545 873q53 0 75 47l38 -17q-14 -62 -46 -102.5t-73 -40.5q-31 0 -75 16t-64 16q-48 0 -73 -49l-36 16q8 61 40 105t75 44q30 0 72.5 -17.5t66.5 -17.5z" />
    <glyph glyph-name="utilde" unicode="&#x169;" horiz-adv-x="591" 
d="M323 88q-67 -102 -179 -102q-55 0 -83 28t-28 79q0 28 7 56l51 208q6 23 6 38q0 49 -67 49l9 42q70 37 139 37q95 0 95 -86q0 -18 -7 -51l-51 -210q-5 -19 -5 -37q0 -34 31 -34q45 0 101 89l68 322h166l-77 -371q-6 -25 -6 -40q0 -18 10 -25.5t35 -7.5q11 0 29 2l4 -45
q-67 -38 -144 -38q-64 0 -88 34q-16 22 -16 63zM433 693q53 0 75 47l38 -17q-14 -62 -46 -102.5t-73 -40.5q-31 0 -75 16t-64 16q-48 0 -73 -49l-36 16q8 61 40 105t75 44q30 0 72.5 -17.5t66.5 -17.5z" />
    <glyph glyph-name="Umacron" unicode="&#x16a;" horiz-adv-x="691" 
d="M512 228l67 346q4 24 4 31q0 22 -12.5 30.5t-41.5 8.5l10 53h217l-10 -53q-36 0 -53 -14t-25 -56l-67 -346q-23 -120 -87 -181t-182 -61q-252 0 -255 192q0 42 9 92l59 304q4 24 4 31q0 22 -12.5 30.5t-41.5 8.5l10 53h311l-10 -53q-36 0 -53 -14t-25 -56l-62 -317
q-9 -49 -9 -84q1 -49 28 -72t84 -23q114 0 143 150zM617 775h-311l18 87h311z" />
    <glyph glyph-name="umacron" unicode="&#x16b;" horiz-adv-x="591" 
d="M323 88q-67 -102 -179 -102q-55 0 -83 28t-28 79q0 28 7 56l51 208q6 23 6 38q0 49 -67 49l9 42q70 37 139 37q95 0 95 -86q0 -18 -7 -51l-51 -210q-5 -19 -5 -37q0 -34 31 -34q45 0 101 89l68 322h166l-77 -371q-6 -25 -6 -40q0 -18 10 -25.5t35 -7.5q11 0 29 2l4 -45
q-67 -38 -144 -38q-64 0 -88 34q-16 22 -16 63zM501 605h-311l18 87h311z" />
    <glyph glyph-name="Ubreve" unicode="&#x16c;" horiz-adv-x="691" 
d="M512 228l67 346q4 24 4 31q0 22 -12.5 30.5t-41.5 8.5l10 53h217l-10 -53q-36 0 -53 -14t-25 -56l-67 -346q-23 -120 -87 -181t-182 -61q-252 0 -255 192q0 42 9 92l59 304q4 24 4 31q0 22 -12.5 30.5t-41.5 8.5l10 53h311l-10 -53q-36 0 -53 -14t-25 -56l-62 -317
q-9 -49 -9 -84q1 -49 28 -72t84 -23q114 0 143 150zM471 744q-73 0 -109 52t-41 126l43 15q15 -42 41.5 -61t72.5 -19q83 0 148 83l39 -22q-69 -174 -194 -174z" />
    <glyph glyph-name="ubreve" unicode="&#x16d;" horiz-adv-x="591" 
d="M323 88q-67 -102 -179 -102q-55 0 -83 28t-28 79q0 28 7 56l51 208q6 23 6 38q0 49 -67 49l9 42q70 37 139 37q95 0 95 -86q0 -18 -7 -51l-51 -210q-5 -19 -5 -37q0 -34 31 -34q45 0 101 89l68 322h166l-77 -371q-6 -25 -6 -40q0 -18 10 -25.5t35 -7.5q11 0 29 2l4 -45
q-67 -38 -144 -38q-64 0 -88 34q-16 22 -16 63zM333 564q-73 0 -109 52t-41 126l43 15q15 -42 41.5 -61t72.5 -19q83 0 148 83l39 -22q-69 -174 -194 -174z" />
    <glyph glyph-name="Uring" unicode="&#x16e;" horiz-adv-x="691" 
d="M512 228l67 346q4 24 4 31q0 22 -12.5 30.5t-41.5 8.5l10 53h217l-10 -53q-36 0 -53 -14t-25 -56l-67 -346q-23 -120 -87 -181t-182 -61q-252 0 -255 192q0 42 9 92l59 304q4 24 4 31q0 22 -12.5 30.5t-41.5 8.5l10 53h311l-10 -53q-36 0 -53 -14t-25 -56l-62 -317
q-9 -49 -9 -84q1 -49 28 -72t84 -23q114 0 143 150zM471 723q-53 0 -86 33.5t-33 82.5q0 56 37 92t95 36q53 0 85 -33.5t32 -83.5q0 -57 -35.5 -92t-94.5 -35zM479 905q-26 0 -41 -17.5t-15 -45.5q0 -24 13 -39t36 -15q26 0 42 17t16 43q0 25 -13.5 41t-37.5 16z" />
    <glyph glyph-name="uring" unicode="&#x16f;" horiz-adv-x="591" 
d="M323 88q-67 -102 -179 -102q-55 0 -83 28t-28 79q0 28 7 56l51 208q6 23 6 38q0 49 -67 49l9 42q70 37 139 37q95 0 95 -86q0 -18 -7 -51l-51 -210q-5 -19 -5 -37q0 -34 31 -34q45 0 101 89l68 322h166l-77 -371q-6 -25 -6 -40q0 -18 10 -25.5t35 -7.5q11 0 29 2l4 -45
q-67 -38 -144 -38q-64 0 -88 34q-16 22 -16 63zM343 563q-53 0 -86 33.5t-33 82.5q0 56 37 92t95 36q53 0 85 -33.5t32 -83.5q0 -57 -35.5 -92t-94.5 -35zM351 745q-26 0 -41 -17.5t-15 -45.5q0 -24 13 -39t36 -15q26 0 42 17t16 43q0 25 -13.5 41t-37.5 16z" />
    <glyph glyph-name="Uhungarumlaut" unicode="&#x170;" horiz-adv-x="691" 
d="M512 228l67 346q4 24 4 31q0 22 -12.5 30.5t-41.5 8.5l10 53h217l-10 -53q-36 0 -53 -14t-25 -56l-67 -346q-23 -120 -87 -181t-182 -61q-252 0 -255 192q0 42 9 92l59 304q4 24 4 31q0 22 -12.5 30.5t-41.5 8.5l10 53h311l-10 -53q-36 0 -53 -14t-25 -56l-62 -317
q-9 -49 -9 -84q1 -49 28 -72t84 -23q114 0 143 150zM556 939l-161 -200l-52 21l80 228zM734 905l-181 -176l-46 26l102 224z" />
    <glyph glyph-name="uhungarumlaut" unicode="&#x171;" horiz-adv-x="591" 
d="M323 88q-67 -102 -179 -102q-55 0 -83 28t-28 79q0 28 7 56l51 208q6 23 6 38q0 49 -67 49l9 42q70 37 139 37q95 0 95 -86q0 -18 -7 -51l-51 -210q-5 -19 -5 -37q0 -34 31 -34q45 0 101 89l68 322h166l-77 -371q-6 -25 -6 -40q0 -18 10 -25.5t35 -7.5q11 0 29 2l4 -45
q-67 -38 -144 -38q-64 0 -88 34q-16 22 -16 63zM430 760l-161 -200l-52 21l80 228zM608 726l-181 -176l-46 26l102 224z" />
    <glyph glyph-name="Uogonek" unicode="&#x172;" horiz-adv-x="691" 
d="M435 -128l18 -30q-46 -47 -131 -47q-50 0 -85.5 20.5t-35.5 64.5q0 64 111 106q-108 0 -171 51t-64 141q0 42 9 92l59 304q4 24 4 31q0 22 -12.5 30.5t-41.5 8.5l10 53h311l-10 -53q-36 0 -53 -14t-25 -56l-62 -317q-9 -49 -9 -84q1 -49 28 -72t84 -23q114 0 143 150
l67 346q4 24 4 31q0 22 -12.5 30.5t-41.5 8.5l10 53h217l-10 -53q-36 0 -53 -14t-25 -56l-67 -346q-16 -83 -51 -136t-95 -81l-18 -8q-28 -13 -41.5 -20t-28.5 -19t-21 -26.5t-6 -35.5q0 -22 13.5 -33t32.5 -11q24 0 49 14z" />
    <glyph glyph-name="uogonek" unicode="&#x173;" horiz-adv-x="591" 
d="M567 74l4 -45q-12 -7 -45 -21.5t-55.5 -25.5t-42 -32.5t-19.5 -47.5q0 -22 13.5 -33t32.5 -11q24 0 49 14l18 -30q-46 -47 -131 -47q-50 0 -85.5 20.5t-35.5 64.5q0 38 31.5 65.5t92.5 49.5q-31 7 -49 28q-22 25 -22 65q-67 -102 -179 -102q-55 0 -83 28t-28 79
q0 28 7 56l51 208q6 23 6 38q0 49 -67 49l9 42q70 37 139 37q95 0 95 -86q0 -18 -7 -51l-51 -210q-5 -19 -5 -37q0 -34 31 -34q45 0 101 89l68 322h166l-77 -371q-6 -25 -6 -40q0 -18 10 -25.5t35 -7.5q11 0 29 2z" />
    <glyph glyph-name="Wcircumflex" unicode="&#x174;" horiz-adv-x="948" 
d="M523 0l-15 282q-1 16 -1 48q0 77 5 107h-6q-22 -84 -49 -144l-128 -293h-173l-32 587q-2 33 -12 43t-37 14l10 53h297l-10 -53q-62 0 -62 -47v-3l8 -313v-21q0 -28 -4 -108h6q26 91 43 132l166 413h131l19 -448q2 -36 -3 -96h6q15 64 41 130l119 310q6 15 6 25
q0 26 -51 26l10 53h226l-10 -53q-34 -4 -50 -14t-30 -42l-248 -588h-172zM754 731l-139 77l-170 -75l-22 38l218 183l139 -189z" />
    <glyph glyph-name="wcircumflex" unicode="&#x175;" horiz-adv-x="792" 
d="M394 324l-147 -324h-138l-31 362q-5 53 -16.5 69t-56.5 16l8 42q21 13 58.5 23.5t69.5 10.5q41 0 63 -21.5t27 -69.5l15 -151q3 -29 3 -52q-1 -52 -8 -72h6l148 359h130l17 -234q3 -41 3 -87q0 -9 -0.5 -17.5t-0.5 -14v-6.5h6q7 15 21.5 43.5t25 49.5t14.5 31
q34 75 46 127.5t14 114.5l146 -13v-47l-278 -463h-129l-15 203q-2 34 -2 46q0 35 5 75h-4zM622 552l-139 77l-170 -75l-22 38l218 183l139 -189z" />
    <glyph glyph-name="Ycircumflex" unicode="&#x176;" horiz-adv-x="643" 
d="M375 347h6l145 239q12 21 12 32q0 26 -42 26l10 53h222l-10 -53q-31 -4 -46 -13.5t-36 -42.5l-226 -333l-26 -135q-3 -18 -3 -30q0 -23 14 -31.5t49 -8.5l-9 -50h-331l9 50q44 0 62 14t26 56l26 134l-95 334q-9 33 -20 42.5t-37 13.5l10 53h289l-10 -53q-48 0 -48 -40
q0 -6 2 -18zM598 731l-139 77l-170 -75l-22 38l218 183l139 -189z" />
    <glyph glyph-name="ycircumflex" unicode="&#x177;" horiz-adv-x="505" 
d="M188 18l-75 -3q-4 104 -17 203l-22 160q-6 47 -19.5 58t-49.5 11l8 43q69 33 128 33q50 0 70 -30.5t29 -104.5l13 -107q5 -36 5 -79q0 -54 -9 -99h6l38 85q56 126 73.5 198.5t17.5 136.5l146 -13v-46l-255 -473q-93 -171 -259 -196l-71 115q43 6 61 9.5t54 12t55 18.5
t40 27.5t33 40.5zM458 552l-139 77l-170 -75l-22 38l218 183l139 -189z" />
    <glyph glyph-name="Ydieresis" unicode="&#x178;" horiz-adv-x="643" 
d="M375 347h6l145 239q12 21 12 32q0 26 -42 26l10 53h222l-10 -53q-31 -4 -46 -13.5t-36 -42.5l-226 -333l-26 -135q-3 -18 -3 -30q0 -23 14 -31.5t49 -8.5l-9 -50h-331l9 50q44 0 62 14t26 56l26 134l-95 334q-9 33 -20 42.5t-37 13.5l10 53h289l-10 -53q-48 0 -48 -40
q0 -6 2 -18zM415 830q0 -37 -27 -63t-65 -26t-64.5 26t-26.5 63t27.5 63.5t65.5 26.5t64 -26t26 -64zM644 830q0 -37 -27 -63t-65 -26t-64.5 26t-26.5 63t27.5 63.5t65.5 26.5t64 -26t26 -64z" />
    <glyph glyph-name="Zacute" unicode="&#x179;" horiz-adv-x="579" 
d="M618 641l-411 -567h112q56 0 85.5 26.5t59.5 96.5h88l-48 -197h-534l10 56l415 569h-95q-48 0 -73.5 -25t-53.5 -88h-92l44 185h504zM279 721l-25 39l211 180l74 -146z" />
    <glyph glyph-name="zacute" unicode="&#x17a;" horiz-adv-x="500" 
d="M509 441l-339 -301q36 6 63 6t61 -5.5t43 -5.5q43 0 61.5 11.5t36.5 51.5l44 -13q-15 -113 -57 -156t-111 -43q-51 0 -100 24t-83 24q-46 0 -76 -34h-62l15 74l325 293q-38 1 -74.5 4.5t-51.5 3.5q-36 0 -59 -12t-34 -50l-51 10q5 96 47.5 148t119.5 52q47 0 101 -23.5
t70 -23.5q20 0 32.5 7.5t38.5 32.5h56zM220 554l-28 36l192 200l88 -139z" />
    <glyph glyph-name="Zdotaccent" unicode="&#x17b;" horiz-adv-x="579" 
d="M618 641l-411 -567h112q56 0 85.5 26.5t59.5 96.5h88l-48 -197h-534l10 56l415 569h-95q-48 0 -73.5 -25t-53.5 -88h-92l44 185h504zM484 836q0 -38 -28 -65.5t-68 -27.5q-39 0 -67 27.5t-28 65.5q0 39 28.5 66.5t68.5 27.5t67 -27.5t27 -66.5z" />
    <glyph glyph-name="zdotaccent" unicode="&#x17c;" horiz-adv-x="500" 
d="M509 441l-339 -301q36 6 63 6t61 -5.5t43 -5.5q43 0 61.5 11.5t36.5 51.5l44 -13q-15 -113 -57 -156t-111 -43q-51 0 -100 24t-83 24q-46 0 -76 -34h-62l15 74l325 293q-38 1 -74.5 4.5t-51.5 3.5q-36 0 -59 -12t-34 -50l-51 10q5 96 47.5 148t119.5 52q47 0 101 -23.5
t70 -23.5q20 0 32.5 7.5t38.5 32.5h56zM425 656q0 -38 -28 -65.5t-68 -27.5q-39 0 -67 27.5t-28 65.5q0 39 28.5 66.5t68.5 27.5t67 -27.5t27 -66.5z" />
    <glyph glyph-name="Zcaron" unicode="&#x17d;" horiz-adv-x="579" 
d="M618 641l-411 -567h112q56 0 85.5 26.5t59.5 96.5h88l-48 -197h-534l10 56l415 569h-95q-48 0 -73.5 -25t-53.5 -88h-92l44 185h504zM246 955l139 -77l170 75l22 -38l-218 -183l-139 189z" />
    <glyph glyph-name="zcaron" unicode="&#x17e;" horiz-adv-x="500" 
d="M509 441l-339 -301q36 6 63 6t61 -5.5t43 -5.5q43 0 61.5 11.5t36.5 51.5l44 -13q-15 -113 -57 -156t-111 -43q-51 0 -100 24t-83 24q-46 0 -76 -34h-62l15 74l325 293q-38 1 -74.5 4.5t-51.5 3.5q-36 0 -59 -12t-34 -50l-51 10q5 96 47.5 148t119.5 52q47 0 101 -23.5
t70 -23.5q20 0 32.5 7.5t38.5 32.5h56zM193 775l137 -77l172 75l22 -38l-218 -183l-139 189z" />
    <glyph glyph-name="longs" unicode="&#x17f;" horiz-adv-x="372" 
d="M323 616l-133 -653q-16 -77 -67.5 -114t-127.5 -37q-54 0 -90 18v41q62 4 84.5 24.5t33.5 81.5l90 459h-63l15 57l66 22l14 59q18 77 78.5 118.5t141.5 41.5q93 0 147 -26l-18 -101h-102q0 30 -7 42.5t-25 12.5q-27 0 -37 -46z" />
    <glyph glyph-name="uni018F" unicode="&#x18f;" horiz-adv-x="651" 
d="M20 172q0 57 23 99.5t59 67t89 40t104 20.5t113 5h33q4 17 4 58q0 128 -130 128q-98 0 -189 -79l-42 55q118 144 299 144q131 0 189.5 -67.5t58.5 -197.5q0 -194 -106.5 -326.5t-269.5 -132.5q-235 0 -235 186zM205 139q0 -38 15.5 -58.5t43.5 -20.5q106 0 159 268
q-27 0 -51 -3q-167 -23 -167 -186z" />
    <glyph glyph-name="florin" unicode="&#x192;" horiz-adv-x="453" 
d="M52 361l17 64l76 13l23 76q31 103 93 149t168 46q102 0 156 -33l-31 -113h-98q2 14 2 36t-7.5 32t-26.5 10q-24 0 -40.5 -18.5t-29.5 -65.5l-34 -122h116l-14 -74h-122l-105 -381q-47 -168 -299 -171l3 44q52 12 78 35.5t42 81.5l105 391h-72z" />
    <glyph glyph-name="uni01B5" unicode="&#x1b5;" horiz-adv-x="579" 
d="M618 641l-171 -236h96l-10 -81h-145l-181 -250h112q56 0 85.5 26.5t59.5 96.5h88l-48 -197h-534l10 56l195 268h-99l10 81h148l161 220h-95q-48 0 -73.5 -25t-53.5 -88h-92l44 185h504z" />
    <glyph glyph-name="uni01B6" unicode="&#x1b6;" horiz-adv-x="500" 
d="M509 441l-180 -160h89l-10 -45h-130l-108 -96q36 6 63 6t61 -5.5t43 -5.5q43 0 61.5 11.5t36.5 51.5l44 -13q-15 -113 -57 -156t-111 -43q-51 0 -100 24t-83 24q-46 0 -76 -34h-62l15 74l179 162h-79l10 45h119l96 86q-38 1 -74.5 4.5t-51.5 3.5q-36 0 -59 -12t-34 -50
l-51 10q5 96 47.5 148t119.5 52q47 0 101 -23.5t70 -23.5q20 0 32.5 7.5t38.5 32.5h56z" />
    <glyph glyph-name="Aringacute" unicode="&#x1fa;" horiz-adv-x="650" 
d="M379 98l-10 77h-207l-32 -68q-8 -19 -8 -29q0 -25 51 -28l-9 -50h-224l9 50q32 4 48 15t33 44l304 588h138l100 -588q6 -34 14.5 -44.5t33.5 -14.5l-9 -50h-304l9 50q37 1 50.5 9.5t13.5 25.5q0 5 -1 13zM286 435l-84 -175h155l-22 170q-6 43 -6 88h-6q-13 -33 -37 -83z
M400 723q-53 0 -86 33.5t-33 82.5q0 56 37 92t95 36q53 0 85 -33.5t32 -83.5q0 -57 -35.5 -92t-94.5 -35zM408 905q-26 0 -41 -17.5t-15 -45.5q0 -24 13 -39t36 -15q26 0 42 17t16 43q0 25 -13.5 41t-37.5 16zM301 967l-25 39l211 180l74 -146z" />
    <glyph glyph-name="aringacute" unicode="&#x1fb;" horiz-adv-x="593" 
d="M338 196l56 237q-14 14 -43 14q-40 0 -77 -45t-58.5 -111t-21.5 -129q0 -69 33 -69q43 0 111 103zM322 93q-68 -107 -173 -107q-61 0 -95 38.5t-34 109.5q0 100 44.5 191.5t120 147.5t159.5 56t100 -59q15 27 41 46h107q-24 -55 -41 -128l-55 -243q-7 -30 -7 -41
q0 -17 10 -24.5t34 -7.5q15 0 31 2l4 -45q-67 -38 -144 -38q-70 0 -91 45q-11 24 -11 57zM389 551q-53 0 -86 33.5t-33 82.5q0 56 37 92t95 36q53 0 85 -33.5t32 -83.5q0 -57 -35.5 -92t-94.5 -35zM397 733q-26 0 -41 -17.5t-15 -45.5q0 -24 13 -39t36 -15q26 0 42 17t16 43
q0 25 -13.5 41t-37.5 16zM297 800l-25 39l211 180l74 -146z" />
    <glyph glyph-name="AEacute" unicode="&#x1fc;" horiz-adv-x="939" 
d="M402 120l21 111h-191l-88 -124q-16 -22 -16 -34q0 -20 45 -23l-9 -50h-224l9 50q32 4 52.5 16t42.5 43l326 465q16 20 16 36q0 34 -56 34l10 53h624l-22 -177h-88q-6 61 -20.5 79t-68.5 18h-84l-44 -230h48q46 0 64.5 14t30.5 57h77l-43 -218h-77q5 41 -7.5 56t-58.5 15
h-49l-46 -237h105q48 0 74 24t45 92h89l-36 -190h-538l9 50q36 0 53 14t25 56zM507 616l-213 -299h146l16 79q27 139 57 220h-6zM576 721l-25 39l211 180l74 -146z" />
    <glyph glyph-name="aeacute" unicode="&#x1fd;" horiz-adv-x="809" 
d="M799 386q0 -41 -17.5 -71t-44 -47.5t-66.5 -27.5t-77 -13.5t-82 -3.5h-30q-3 -15 -3 -51q0 -85 88 -85q84 0 146 53l33 -46q-92 -108 -231 -108q-123 0 -175 80q-64 -80 -164 -80q-70 0 -110.5 37.5t-40.5 103.5q0 174 269 174h33l9 50q7 38 7 54q0 27 -11 38.5t-36 11.5
q-34 0 -53 -18t-30 -60h-122l20 108q85 44 205 44q102 0 140 -49q71 49 158 49q185 0 185 -143zM644 410q0 22 -11 34.5t-30 12.5q-36 0 -65.5 -42.5t-44.5 -121.5q73 0 112 26.5t39 90.5zM309 186q0 31 4 47h-15q-100 0 -100 -80q0 -64 53 -64q36 0 66 25q-8 32 -8 72z
M387 554l-28 36l192 200l88 -139z" />
    <glyph glyph-name="Oslashacute" unicode="&#x1fe;" horiz-adv-x="716" 
d="M680 703l-61 -80q72 -80 72 -207q0 -64 -13.5 -125t-43 -117t-72 -97.5t-104 -66t-135.5 -24.5q-93 0 -160 43l-59 -77l-47 33l62 82q-75 81 -75 211q0 61 14 122t44.5 116.5t72.5 98.5t102.5 68.5t131.5 25.5q97 0 166 -47l57 74zM409 629q-63 0 -95 -51
q-42 -68 -63.5 -169.5t-21.5 -198.5l267 349q-18 70 -87 70zM423 112q40 58 61 162.5t21 200.5l-266 -347q22 -66 83 -66q67 0 101 50zM353 721l-25 39l211 180l74 -146z" />
    <glyph glyph-name="oslashacute" unicode="&#x1ff;" horiz-adv-x="567" 
d="M544 529l-50 -62q52 -54 52 -151q0 -138 -76 -234t-224 -96q-69 0 -120 28l-51 -63l-40 30l51 63q-57 55 -57 153q0 61 18 118.5t52.5 106t93 78t132.5 29.5q77 0 130 -31l49 61zM242 390q-33 -91 -42 -206l175 216q-7 58 -54 58q-55 0 -79 -68zM251 56q56 0 81 69
q30 82 41 193l-175 -215q7 -47 53 -47zM250 554l-28 36l192 200l88 -139z" />
    <glyph glyph-name="Scommaaccent" unicode="&#x218;" horiz-adv-x="551" 
d="M235 -14q-90 0 -151 19t-89 44l26 143h118q-1 -73 24 -107.5t80 -34.5q48 0 77.5 26.5t29.5 80.5q0 41 -19 63.5t-68 43.5l-67 28q-126 53 -126 186q0 107 73.5 169t194.5 62q129 0 222 -53l-28 -147h-114q2 69 -21.5 99.5t-73.5 30.5q-46 0 -73.5 -25.5t-27.5 -68.5
q0 -61 75 -93l72 -30q76 -31 113.5 -73.5t37.5 -121.5q0 -115 -80 -178t-205 -63zM300 -129q0 -66 -57 -107.5t-133 -53.5l-18 38q47 15 70.5 28t23.5 30q0 15 -20 24q-37 18 -37 62q0 31 23.5 51.5t60.5 20.5q41 0 64 -27.5t23 -65.5z" />
    <glyph glyph-name="scommaaccent" unicode="&#x219;" horiz-adv-x="470" 
d="M181 -14q-119 0 -181 47l18 111h103q0 -86 75 -86q84 0 84 61q0 23 -14.5 36t-46.5 23l-40 12q-120 36 -120 149q0 91 63 140.5t164 49.5q95 0 175 -39l-19 -113h-100q0 83 -69 83q-32 0 -55.5 -16.5t-23.5 -46.5q0 -33 59 -50l40 -12q71 -21 102.5 -57t31.5 -98
q0 -92 -64.5 -143t-181.5 -51zM260 -129q0 -66 -57 -107.5t-133 -53.5l-18 38q47 15 70.5 28t23.5 30q0 15 -20 24q-37 18 -37 62q0 31 23.5 51.5t60.5 20.5q41 0 64 -27.5t23 -65.5z" />
    <glyph glyph-name="uni021A" unicode="&#x21a;" horiz-adv-x="634" 
d="M110 697h579l-26 -197h-87q-6 75 -17.5 96t-54.5 21h-29l-96 -497q-3 -18 -3 -30q0 -23 14 -31.5t49 -8.5l-9 -50h-331l9 50q44 0 62 14t26 56l96 497h-29q-46 0 -65 -22t-51 -95h-87zM334 -129q0 -66 -57 -107.5t-133 -53.5l-18 38q47 15 70.5 28t23.5 30q0 15 -20 24
q-37 18 -37 62q0 31 23.5 51.5t60.5 20.5q41 0 64 -27.5t23 -65.5z" />
    <glyph glyph-name="uni021B" unicode="&#x21b;" horiz-adv-x="372" 
d="M412 516l-31 -80h-106l-56 -260q-6 -30 -6 -49q0 -53 50 -53q35 0 68 12l8 -52q-61 -48 -161 -48q-68 0 -102 29.5t-34 79.5q0 34 10 81l54 260h-59l12 57l71 23q39 104 92 142l117 8q-25 -59 -46 -150h119zM215 -129q0 -66 -57 -107.5t-133 -53.5l-18 38q47 15 70.5 28
t23.5 30q0 15 -20 24q-37 18 -37 62q0 31 23 51.5t61 20.5q41 0 64 -27.5t23 -65.5z" />
    <glyph glyph-name="uni0237" unicode="&#x237;" horiz-adv-x="292" 
d="M269 386l-80 -390q-19 -90 -82 -135t-196 -64l-16 61q65 19 90 48.5t41 108.5l68 342q4 20 4 37q0 27 -15 38.5t-50 11.5l9 42q70 37 139 37q94 0 94 -86q0 -23 -6 -51z" />
    <glyph glyph-name="uni0259" unicode="&#x259;" horiz-adv-x="530" 
d="M18 129q0 171 294 171h23q3 15 3 43q0 85 -88 85q-84 0 -146 -53l-33 46q91 108 231 108q103 0 155 -52t52 -148q0 -143 -89.5 -243t-216.5 -100q-185 0 -185 143zM173 105q0 -22 11 -34.5t30 -12.5q35 0 64.5 47t45.5 127q-30 0 -55 -6q-96 -21 -96 -121z" />
    <glyph glyph-name="uni02BB" unicode="&#x2bb;" horiz-adv-x="253" 
d="M60 491q0 81 63 140.5t156 78.5l24 -42q-54 -15 -85.5 -40t-31.5 -52q0 -24 27 -36q24 -10 37 -25t13 -45q0 -37 -27 -62.5t-69 -25.5q-53 0 -80 31.5t-27 77.5z" />
    <glyph glyph-name="afii57929" unicode="&#x2bc;" horiz-adv-x="253" 
d="M303 600q0 -81 -63 -140.5t-156 -78.5l-24 42q54 15 85.5 40t31.5 52q0 24 -27 36q-24 10 -37 25t-13 45q0 37 27 62.5t69 25.5q53 0 80 -31.5t27 -77.5z" />
    <glyph glyph-name="circumflex" unicode="&#x2c6;" horiz-adv-x="517" 
d="M411 552l-139 77l-170 -75l-22 38l218 183l139 -189z" />
    <glyph glyph-name="caron" unicode="&#x2c7;" horiz-adv-x="517" 
d="M106 775l137 -77l172 75l22 -38l-218 -183l-139 189z" />
    <glyph glyph-name="breve" unicode="&#x2d8;" horiz-adv-x="504" 
d="M230 564q-73 0 -109 52t-41 126l43 15q15 -42 41.5 -61t72.5 -19q83 0 148 83l39 -22q-69 -174 -194 -174z" />
    <glyph glyph-name="dotaccent" unicode="&#x2d9;" horiz-adv-x="351" 
d="M271 656q0 -38 -28 -65.5t-68 -27.5q-39 0 -67 27.5t-28 65.5q0 39 28.5 66.5t68.5 27.5t67 -27.5t27 -66.5z" />
    <glyph glyph-name="ring" unicode="&#x2da;" horiz-adv-x="410" 
d="M200 563q-53 0 -86 33.5t-33 82.5q0 56 37 92t95 36q53 0 85 -33.5t32 -83.5q0 -57 -35.5 -92t-94.5 -35zM208 745q-26 0 -41 -17.5t-15 -45.5q0 -24 13 -39t36 -15q26 0 42 17t16 43q0 25 -13.5 41t-37.5 16z" />
    <glyph glyph-name="ogonek" unicode="&#x2db;" horiz-adv-x="415" 
d="M314 -128l18 -30q-46 -47 -131 -47q-50 0 -85.5 20.5t-35.5 64.5q0 52 53.5 84t170.5 62l16 -23q-101 -40 -101 -101q0 -22 13.5 -33t32.5 -11q24 0 49 14z" />
    <glyph glyph-name="tilde" unicode="&#x2dc;" horiz-adv-x="527" 
d="M334 693q53 0 75 47l38 -17q-14 -62 -46 -102.5t-73 -40.5q-31 0 -75 16t-64 16q-48 0 -73 -49l-36 16q8 61 40 105t75 44q30 0 72.5 -17.5t66.5 -17.5z" />
    <glyph glyph-name="hungarumlaut" unicode="&#x2dd;" horiz-adv-x="551" 
d="M293 760l-161 -200l-52 21l80 228zM471 726l-181 -176l-46 26l102 224z" />
    <glyph glyph-name="gravecomb" unicode="&#x300;" 
d="M-90 590l-28 -36l-252 97l88 139z" />
    <glyph glyph-name="acutecomb" unicode="&#x301;" 
d="M-317 554l-28 36l192 200l88 -139z" />
    <glyph glyph-name="uni0302" unicode="&#x302;" 
d="M-70 552l-139 77l-170 -75l-22 38l218 183l139 -189z" />
    <glyph glyph-name="tildecomb" unicode="&#x303;" 
d="M-147 693q53 0 75 47l38 -17q-14 -62 -46 -102.5t-73 -40.5q-31 0 -75 16t-64 16q-48 0 -73 -49l-36 16q8 61 40 105t75 44q30 0 72.5 -17.5t66.5 -17.5z" />
    <glyph glyph-name="uni0304" unicode="&#x304;" 
d="M-97 617h-311l18 87h311z" />
    <glyph glyph-name="uni0306" unicode="&#x306;" 
d="M-273 552q-73 0 -109 52t-41 126l43 15q15 -42 41.5 -61t72.5 -19q83 0 148 83l39 -22q-69 -174 -194 -174z" />
    <glyph glyph-name="uni0307" unicode="&#x307;" 
d="M12 660q0 -38 -28 -65t-67 -27q-38 0 -66 27t-28 65t28 65.5t68 27.5q39 0 66 -27.5t27 -65.5z" />
    <glyph glyph-name="uni0308" unicode="&#x308;" 
d="M-308 650q0 -37 -27 -63t-65 -26t-64.5 26t-26.5 63t27.5 63.5t65.5 26.5t64 -26t26 -64zM-79 650q0 -37 -27 -63t-65 -26t-64.5 26t-26.5 63t27.5 63.5t65.5 26.5t64 -26t26 -64z" />
    <glyph glyph-name="uni030A" unicode="&#x30a;" 
d="M-209 563q-53 0 -86 33.5t-33 82.5q0 56 37 92t95 36q53 0 85 -33.5t32 -83.5q0 -57 -35.5 -92t-94.5 -35zM-201 745q-26 0 -41 -17.5t-15 -45.5q0 -24 13 -39t36 -15q26 0 42 17t16 43q0 25 -13.5 41t-37.5 16z" />
    <glyph glyph-name="uni030B" unicode="&#x30b;" 
d="M-257 764l-161 -200l-52 21l80 228zM-79 730l-181 -176l-46 26l102 224z" />
    <glyph glyph-name="uni030C" unicode="&#x30c;" 
d="M-306 775l137 -77l172 75l22 -38l-218 -183l-139 189z" />
    <glyph glyph-name="uni0312" unicode="&#x312;" 
d="M-284 646q0 66 57 107.5t133 53.5l18 -38q-47 -15 -70.5 -28t-23.5 -30q0 -15 20 -24q37 -18 37 -62q0 -31 -23.5 -51.5t-60.5 -20.5q-41 0 -64 27.5t-23 65.5z" />
    <glyph glyph-name="uni0313" unicode="&#x313;" 
d="M-96 728l-79 -172l-67 8l22 176z" />
    <glyph glyph-name="dotbelowcomb" unicode="&#x323;" 
d="M243 -140q0 -41 -29.5 -69.5t-71.5 -28.5q-41 0 -70 29t-29 69t30 69t72 29q41 0 69.5 -28.5t28.5 -69.5z" />
    <glyph glyph-name="uni0326" unicode="&#x326;" 
d="M281 -129q0 -66 -57 -107.5t-133 -53.5l-18 38q47 15 70.5 28t23.5 30q0 15 -20 24q-37 18 -37 62q0 31 23 51.5t61 20.5q41 0 64 -27.5t23 -65.5z" />
    <glyph glyph-name="uni0327" unicode="&#x327;" 
d="M-79 -121q0 -85 -126 -85q-69 0 -106 25l17 42q30 -19 68 -19q34 0 34 25q0 29 -55 31l1 21l44 100l48 -6l-26 -55q101 -6 101 -79z" />
    <glyph glyph-name="uni0328" unicode="&#x328;" 
d="M-100 -129l18 -30q-46 -47 -131 -47q-50 0 -85.5 20.5t-35.5 64.5q0 52 53.5 84t170.5 62l16 -23q-101 -40 -101 -101q0 -22 13.5 -33t32.5 -11q24 0 49 14z" />
    <glyph glyph-name="uni0335" unicode="&#x335;" 
d="M-97 214h-311l18 87h311z" />
    <glyph glyph-name="uni0336" unicode="&#x336;" 
d="M-58 201h-714l24 113h714z" />
    <glyph glyph-name="uni037E" unicode="&#x37e;" horiz-adv-x="287" 
d="M262 373q0 -43 -30.5 -73t-72.5 -30t-72 30t-30 73q0 41 30 71t72 30t72.5 -30t30.5 -71zM218 67q0 -81 -63 -140.5t-156 -78.5l-24 42q54 15 85.5 40t31.5 52q0 24 -27 36q-24 10 -37 25t-13 45q0 37 27 62.5t69 25.5q51 0 79 -32t28 -77z" />
    <glyph glyph-name="tonos" unicode="&#x384;" horiz-adv-x="392" 
d="M205 557l-100 4l60 214l148 -31z" />
    <glyph glyph-name="dieresistonos" unicode="&#x385;" horiz-adv-x="490" 
d="M169 645q0 -33 -24.5 -56.5t-58.5 -23.5t-57.5 23.5t-23.5 56.5q0 34 24 57.5t59 23.5q34 0 57.5 -23.5t23.5 -57.5zM485 645q0 -33 -24 -56.5t-58 -23.5t-58 23.5t-24 56.5q0 34 24 57.5t59 23.5q34 0 57.5 -23.5t23.5 -57.5zM267 567l-90 4l28 227l136 -40z" />
    <glyph glyph-name="Alphatonos" unicode="&#x386;" horiz-adv-x="650" 
d="M379 98l-10 77h-207l-32 -68q-8 -19 -8 -29q0 -25 51 -28l-9 -50h-224l9 50q32 4 48 15t33 44l304 588h138l100 -588q6 -34 14.5 -44.5t33.5 -14.5l-9 -50h-304l9 50q37 1 50.5 9.5t13.5 25.5q0 5 -1 13zM286 435l-84 -175h155l-22 170q-6 43 -6 88h-6q-13 -33 -37 -83z
M149 497l-100 4l57 214l148 -31z" />
    <glyph glyph-name="anoteleia" unicode="&#x387;" horiz-adv-x="295" 
d="M255 294q0 -43 -30.5 -73t-72.5 -30t-72 30t-30 73q0 41 30 71t72 30t72.5 -30t30.5 -71z" />
    <glyph glyph-name="Epsilontonos" unicode="&#x388;" horiz-adv-x="604" 
d="M629 697l-22 -177h-88q-6 61 -20.5 79t-68.5 18h-84l-44 -230h48q46 0 64.5 14t30.5 57h77l-43 -218h-77q2 14 2 24q0 26 -14.5 36.5t-53.5 10.5h-49l-46 -237h105q48 0 74 24t45 92h89l-36 -190h-538l9 50q36 0 53 14t25 56l88 454q4 24 4 31q0 22 -12.5 30.5t-41.5 8.5
l10 53h514zM-17 497l-100 4l57 214l148 -31z" />
    <glyph glyph-name="Etatonos" unicode="&#x389;" horiz-adv-x="772" 
d="M468 120l37 190h-218l-37 -190q-4 -24 -4 -31q0 -22 12.5 -30.5t41.5 -8.5l-9 -50h-311l9 50q36 0 53 14t25 56l88 454q4 24 4 31q0 22 -12.5 30.5t-41.5 8.5l10 53h311l-10 -53q-36 0 -53 -14t-25 -56l-35 -179h218l35 179q4 24 4 31q0 22 -12.5 30.5t-41.5 8.5l10 53
h311l-10 -53q-36 0 -53 -14t-25 -56l-88 -454q-4 -24 -4 -31q0 -22 12.5 -30.5t41.5 -8.5l-9 -50h-311l9 50q36 0 53 14t25 56zM-17 497l-100 4l57 214l148 -31z" />
    <glyph glyph-name="Iotatonos" unicode="&#x38a;" horiz-adv-x="371" 
d="M67 120l88 454q4 24 4 31q0 22 -12.5 30.5t-41.5 8.5l10 53h311l-10 -53q-36 0 -53 -14t-25 -56l-88 -454q-4 -24 -4 -31q0 -22 12.5 -30.5t41.5 -8.5l-9 -50h-311l9 50q36 0 53 14t25 56zM-17 497l-100 4l57 214l148 -31z" />
    <glyph glyph-name="Omicrontonos" unicode="&#x38c;" horiz-adv-x="716" 
d="M323 -14q-135 0 -207 81t-72 211q0 61 14 122t44.5 116.5t72.5 98.5t102.5 68.5t131.5 25.5q131 0 206.5 -77.5t75.5 -215.5q0 -64 -13.5 -125t-43 -117t-72 -97.5t-104 -66t-135.5 -24.5zM409 629q-59 0 -91 -51q-42 -68 -62.5 -169.5t-20.5 -199.5q0 -147 87 -147
q63 0 97 50q39 57 59.5 161t20.5 201q0 82 -20 118.5t-70 36.5zM27 497l-100 4l57 214l148 -31z" />
    <glyph glyph-name="Upsilontonos" unicode="&#x38e;" horiz-adv-x="643" 
d="M375 347h6l145 239q12 21 12 32q0 26 -42 26l10 53h222l-10 -53q-31 -4 -46 -13.5t-36 -42.5l-226 -333l-26 -135q-3 -18 -3 -30q0 -23 14 -31.5t49 -8.5l-9 -50h-331l9 50q44 0 62 14t26 56l26 134l-95 334q-9 33 -20 42.5t-37 13.5l10 53h289l-10 -53q-48 0 -48 -40
q0 -6 2 -18zM-54 497l-100 4l57 214l148 -31z" />
    <glyph glyph-name="Omegatonos" unicode="&#x38f;" horiz-adv-x="759" 
d="M444 634q-50 0 -87.5 -32t-57.5 -85t-29.5 -111.5t-9.5 -122.5q0 -129 56 -185l-20 -98h-296l20 172h71q0 -49 24 -61.5t79 -12.5h35q-61 37 -107.5 107t-46.5 156q0 145 102 246.5t274 101.5q136 0 209.5 -68.5t73.5 -185.5q0 -65 -27.5 -126t-70.5 -105.5t-88 -76.5
t-89 -49h35q55 0 83.5 12.5t50.5 61.5h68l-46 -172h-296l20 98q80 57 127.5 165.5t47.5 249.5q0 60 -23.5 90.5t-81.5 30.5zM46 497l-100 4l57 214l148 -31z" />
    <glyph glyph-name="iotadieresistonos" unicode="&#x390;" horiz-adv-x="312" 
d="M285 525l-79 -362q-11 -47 -11 -59q0 -17 10 -24.5t34 -7.5q7 0 31 2l4 -45q-67 -38 -144 -38q-105 0 -105 97q0 25 8 61l48 225q15 69 20 129l154 22h30zM140 645q0 -33 -24.5 -56.5t-58.5 -23.5t-57.5 23.5t-23.5 56.5q0 34 24 57.5t59 23.5q34 0 57.5 -23.5
t23.5 -57.5zM456 645q0 -33 -24 -56.5t-58 -23.5t-58 23.5t-24 56.5q0 34 24 57.5t59 23.5q34 0 57.5 -23.5t23.5 -57.5zM238 567l-90 4l28 227l136 -40z" />
    <glyph glyph-name="Alpha" unicode="&#x391;" horiz-adv-x="650" 
d="M379 98l-10 77h-207l-32 -68q-8 -19 -8 -29q0 -25 51 -28l-9 -50h-224l9 50q32 4 48 15t33 44l304 588h138l100 -588q6 -34 14.5 -44.5t33.5 -14.5l-9 -50h-304l9 50q37 1 50.5 9.5t13.5 25.5q0 5 -1 13zM286 435l-84 -175h155l-22 170q-6 43 -6 88h-6q-13 -33 -37 -83z
" />
    <glyph glyph-name="Beta" unicode="&#x392;" horiz-adv-x="656" 
d="M346 617l-44 -229h24q72 0 98 26q40 38 40 120q0 50 -20 66.5t-66 16.5h-32zM353 311h-66l-46 -237h33q83 0 113 20q49 33 49 125q0 51 -20 71.5t-63 20.5zM460 355v-4q82 -7 123 -44.5t41 -99.5q0 -69 -36.5 -117t-100.5 -67q-75 -23 -196 -23h-311l9 50q36 0 53 14
t25 56l88 454q4 24 4 31q0 22 -12.5 30.5t-41.5 8.5l10 53h324q217 0 217 -157q0 -82 -56.5 -130.5t-139.5 -54.5z" />
    <glyph glyph-name="Gamma" unicode="&#x393;" horiz-adv-x="577" 
d="M346 617l-96 -493q-5 -23 -5 -33q0 -24 16 -32.5t58 -8.5l-9 -50h-330l9 50q36 0 52.5 14t24.5 56l88 454q4 20 4 31q0 22 -12.5 30.5t-41.5 8.5l10 53h518l-25 -195h-88q-3 72 -17 93.5t-68 21.5h-88z" />
    <glyph glyph-name="uni0394" unicode="&#x394;" horiz-adv-x="615" 
d="M550 0h-580l10 55l340 642h134l106 -642zM89 76h281l-46 336q-6 47 -7 63q-2 32 -2 47h-6q-11 -35 -50 -112z" />
    <glyph glyph-name="Epsilon" unicode="&#x395;" horiz-adv-x="604" 
d="M629 697l-22 -177h-88q-6 61 -20.5 79t-68.5 18h-84l-44 -230h48q46 0 64.5 14t30.5 57h77l-43 -218h-77q2 14 2 24q0 26 -14.5 36.5t-53.5 10.5h-49l-46 -237h105q48 0 74 24t45 92h89l-36 -190h-538l9 50q36 0 53 14t25 56l88 454q4 24 4 31q0 22 -12.5 30.5t-41.5 8.5
l10 53h514z" />
    <glyph glyph-name="Zeta" unicode="&#x396;" horiz-adv-x="579" 
d="M618 641l-411 -567h112q56 0 85.5 26.5t59.5 96.5h88l-48 -197h-534l10 56l415 569h-95q-48 0 -73.5 -25t-53.5 -88h-92l44 185h504z" />
    <glyph glyph-name="Eta" unicode="&#x397;" horiz-adv-x="772" 
d="M468 120l37 190h-218l-37 -190q-4 -24 -4 -31q0 -22 12.5 -30.5t41.5 -8.5l-9 -50h-311l9 50q36 0 53 14t25 56l88 454q4 24 4 31q0 22 -12.5 30.5t-41.5 8.5l10 53h311l-10 -53q-36 0 -53 -14t-25 -56l-35 -179h218l35 179q4 24 4 31q0 22 -12.5 30.5t-41.5 8.5l10 53
h311l-10 -53q-36 0 -53 -14t-25 -56l-88 -454q-4 -24 -4 -31q0 -22 12.5 -30.5t41.5 -8.5l-9 -50h-311l9 50q36 0 53 14t25 56z" />
    <glyph glyph-name="Theta" unicode="&#x398;" horiz-adv-x="727" 
d="M330 -14q-131 0 -208.5 77.5t-77.5 215.5q0 65 13 125.5t42 116.5t71.5 97.5t105.5 66t140 24.5q131 0 208.5 -77.5t77.5 -215.5q0 -82 -22 -156.5t-65 -137t-116.5 -99.5t-168.5 -37zM416 629q-74 0 -117 -62q-40 -59 -62 -156.5t-22 -189.5q0 -76 32 -117.5t82 -41.5
q74 0 115 60q41 59 64 160t23 192q0 77 -31 116t-84 39zM374 389h13q31 0 43.5 10.5t21.5 40.5h45l-35 -181h-45q1 6 1 17q0 21 -10 28t-37 7h-11q-31 0 -42 -10t-20 -42h-45l35 181h45q-2 -11 -2 -20q0 -18 9 -24.5t34 -6.5z" />
    <glyph glyph-name="Iota" unicode="&#x399;" horiz-adv-x="371" 
d="M67 120l88 454q4 24 4 31q0 22 -12.5 30.5t-41.5 8.5l10 53h311l-10 -53q-36 0 -53 -14t-25 -56l-88 -454q-4 -24 -4 -31q0 -22 12.5 -30.5t41.5 -8.5l-9 -50h-311l9 50q36 0 53 14t25 56z" />
    <glyph glyph-name="Kappa" unicode="&#x39a;" horiz-adv-x="683" 
d="M67 120l88 454q4 24 4 31q0 22 -12.5 30.5t-41.5 8.5l10 53h311l-10 -53q-36 0 -53 -14t-25 -56l-88 -454q-4 -24 -4 -31q0 -22 12.5 -30.5t41.5 -8.5l-9 -50h-311l9 50q36 0 53 14t25 56zM642 588l-174 -180l123 -309q11 -26 26.5 -36.5t44.5 -12.5l-9 -50h-225
l-119 340l226 252q12 14 12 28q0 26 -34 26l10 51h230l-10 -51q-30 -4 -51 -16.5t-50 -41.5z" />
    <glyph glyph-name="Lambda" unicode="&#x39b;" horiz-adv-x="637" 
d="M367 115l-34 323q-5 43 -5 80h-6q-7 -22 -36 -83l-160 -333q-10 -22 -10 -31q0 -12 12 -15t45 -5l-10 -51h-223l10 51q32 4 47 14.5t32 43.5l304 588h138l87 -588q5 -32 14 -43t35 -15l-10 -51h-300l10 51q18 1 28 2t22.5 9.5t12.5 23.5q0 6 -3 29z" />
    <glyph glyph-name="Mu" unicode="&#x39c;" horiz-adv-x="914" 
d="M954 697l-10 -52q-50 -3 -64.5 -18t-20.5 -58l-56 -441q-2 -15 -2 -31q0 -26 12 -36t46 -11l-9 -50h-315l9 50q46 1 59 14t19 57l39 293q10 80 22 145h-6q-33 -88 -61 -146l-201 -413h-106l-34 399q-3 38 -3 74q0 53 3 86h-6q-15 -86 -33 -146l-83 -291q-7 -24 -7 -37
q0 -20 13 -27.5t45 -7.5l-9 -50h-230l9 50q42 1 58 16.5t29 61.5l125 441q8 27 8 41q0 18 -13.5 25.5t-49.5 9.5l10 52h285l22 -316q4 -60 4 -111q0 -11 -0.5 -23.5t-0.5 -13.5h6q14 59 50 138l150 326h297z" />
    <glyph glyph-name="Nu" unicode="&#x39d;" horiz-adv-x="710" 
d="M555 395l35 179q4 24 4 31q0 22 -12.5 30.5t-41.5 8.5l10 53h220l-10 -53q-36 0 -53 -14t-25 -56l-111 -574h-113l-170 377q-19 41 -31 79.5t-15.5 57.5t-3.5 28h-6q-9 -100 -22 -165l-49 -257q-4 -24 -4 -31q0 -22 12.5 -30.5t41.5 -8.5l-9 -50h-222l9 50q36 0 53 14
t25 56l88 454q4 24 4 31q0 22 -12.5 30.5t-41.5 8.5l10 53h243l135 -302q35 -79 35 -140h6q3 45 21 140z" />
    <glyph glyph-name="Xi" unicode="&#x39e;" horiz-adv-x="603" 
d="M522 0h-547l33 210h89q-1 -8 -1 -22q0 -39 18.5 -54t61.5 -15h190q48 0 73 19t42 72h89zM435 583h-148q-55 0 -80 -20.5t-45 -72.5h-88l49 207h520l-31 -207h-88q0 52 -17 72.5t-72 20.5zM277 306q-44 0 -61 -11.5t-30 -46.5h-77l41 202h77v-1q0 -36 12.5 -46.5
t57.5 -10.5h56q46 0 62.5 11t29.5 47h77l-41 -202h-77v3q0 33 -12.5 44t-56.5 11h-58z" />
    <glyph glyph-name="Omicron" unicode="&#x39f;" horiz-adv-x="716" 
d="M323 -14q-135 0 -207 81t-72 211q0 61 14 122t44.5 116.5t72.5 98.5t102.5 68.5t131.5 25.5q131 0 206.5 -77.5t75.5 -215.5q0 -64 -13.5 -125t-43 -117t-72 -97.5t-104 -66t-135.5 -24.5zM409 629q-59 0 -91 -51q-42 -68 -62.5 -169.5t-20.5 -199.5q0 -147 87 -147
q63 0 97 50q39 57 59.5 161t20.5 201q0 82 -20 118.5t-70 36.5z" />
    <glyph glyph-name="Pi" unicode="&#x3a0;" horiz-adv-x="762" 
d="M458 120l96 495h-209l-96 -495q-4 -21 -4 -35q0 -20 11 -27.5t38 -7.5l-9 -50h-305l9 50q36 0 52.5 14t24.5 56l88 454q4 24 4 31q0 22 -12.5 30.5t-41.5 8.5l10 53h703l-10 -53q-36 0 -53 -14t-25 -56l-88 -454q-4 -24 -4 -31q0 -22 12.5 -30.5t41.5 -8.5l-9 -50h-306
l9 50q36 0 50.5 14t22.5 56z" />
    <glyph glyph-name="Rho" unicode="&#x3a1;" horiz-adv-x="628" 
d="M277 258l-27 -138q-3 -17 -3 -29q0 -24 16 -32.5t57 -8.5l-9 -50h-331l9 50q36 0 53 14t25 56l88 454q4 24 4 31q0 22 -12.5 30.5t-41.5 8.5l10 53h305q118 0 178 -44.5t60 -146.5q0 -76 -36.5 -134.5t-110.5 -88.5q-63 -25 -162 -25h-72zM470 509q0 57 -20 82.5
t-68 25.5h-36l-53 -274h34q66 0 98 30q45 42 45 136z" />
    <glyph glyph-name="Sigma" unicode="&#x3a3;" horiz-adv-x="588" 
d="M255 341l-159 298l11 58h511l-22 -175h-88q-6 63 -20 82.5t-67 19.5h-117l129 -245l-259 -254h166q52 0 74.5 18.5t51.5 78.5h88l-65 -222h-519l12 65z" />
    <glyph glyph-name="Tau" unicode="&#x3a4;" horiz-adv-x="634" 
d="M110 697h579l-26 -197h-87q-6 75 -17.5 96t-54.5 21h-29l-96 -497q-3 -18 -3 -30q0 -23 14 -31.5t49 -8.5l-9 -50h-331l9 50q44 0 62 14t26 56l96 497h-29q-46 0 -65 -22t-51 -95h-87z" />
    <glyph glyph-name="Upsilon" unicode="&#x3a5;" horiz-adv-x="643" 
d="M375 347h6l145 239q12 21 12 32q0 26 -42 26l10 53h222l-10 -53q-31 -4 -46 -13.5t-36 -42.5l-226 -333l-26 -135q-3 -18 -3 -30q0 -23 14 -31.5t49 -8.5l-9 -50h-331l9 50q44 0 62 14t26 56l26 134l-95 334q-9 33 -20 42.5t-37 13.5l10 53h289l-10 -53q-48 0 -48 -40
q0 -6 2 -18z" />
    <glyph glyph-name="Phi" unicode="&#x3a6;" horiz-adv-x="873" 
d="M30 294q0 152 99.5 226t277.5 76q3 27 -8 37t-44 11l10 53h304l-10 -53q-32 0 -48 -10t-25 -38q282 -3 282 -189q0 -302 -378 -307q-4 -28 8.5 -39t44.5 -11l-9 -50h-304l9 50q32 0 48 10t25 40q-282 3 -282 194zM213 273q0 -54 27 -76t87 -25l68 351q-84 -3 -122 -47
q-25 -29 -42.5 -90t-17.5 -113zM685 423q0 54 -27 76t-87 24l-68 -351q76 5 113 39q29 27 49 91.5t20 120.5z" />
    <glyph glyph-name="Chi" unicode="&#x3a7;" horiz-adv-x="700" 
d="M636 588l-188 -207l122 -272q14 -31 28 -43t42 -16l-9 -50h-313l9 50q34 0 46.5 15.5t1.5 42.5l-66 156h-6l-121 -148q-20 -24 -20 -40q0 -24 43 -26l-9 -50h-226l9 50q30 4 50.5 16.5t45.5 42.5l195 234l-107 245q-13 30 -25 41t-36 15l11 53h299l-10 -53q-54 0 -54 -31
q0 -8 5 -21l57 -137h6l110 132q18 21 18 36q0 21 -38 21l10 53h226l-10 -53q-30 -4 -50 -15.5t-46 -40.5z" />
    <glyph glyph-name="Psi" unicode="&#x3a8;" horiz-adv-x="822" 
d="M554 574l-47 -238q51 8 78 45.5t55 133.5q32 110 78 149t152 45l17 -105q-32 -9 -48 -29.5t-37 -88.5q-43 -136 -103 -180q-71 -52 -209 -59l-24 -127q-4 -19 -4 -31q0 -22 12.5 -30.5t41.5 -8.5l-9 -50h-307l9 50q36 0 53 14t25 56l25 128q-109 6 -165 64
q-47 49 -47 140q0 13 2 42.5t2 44.5q0 37 -7 51t-27 21l34 98q85 -5 122.5 -37.5t37.5 -110.5q0 -17 -3 -53t-3 -58q0 -55 16.5 -80.5t54.5 -33.5l46 238q4 20 4 36q0 20 -10 27t-37 7l10 53h293l-10 -53q-35 0 -49 -13.5t-22 -56.5z" />
    <glyph glyph-name="uni03A9" unicode="&#x3a9;" horiz-adv-x="759" 
d="M444 634q-50 0 -87.5 -32t-57.5 -85t-29.5 -111.5t-9.5 -122.5q0 -129 56 -185l-20 -98h-296l20 172h71q0 -49 24 -61.5t79 -12.5h35q-61 37 -107.5 107t-46.5 156q0 145 102 246.5t274 101.5q136 0 209.5 -68.5t73.5 -185.5q0 -65 -27.5 -126t-70.5 -105.5t-88 -76.5
t-89 -49h35q55 0 83.5 12.5t50.5 61.5h68l-46 -172h-296l20 98q80 57 127.5 165.5t47.5 249.5q0 60 -23.5 90.5t-81.5 30.5z" />
    <glyph glyph-name="Iotadieresis" unicode="&#x3aa;" horiz-adv-x="371" 
d="M67 120l88 454q4 24 4 31q0 22 -12.5 30.5t-41.5 8.5l10 53h311l-10 -53q-36 0 -53 -14t-25 -56l-88 -454q-4 -24 -4 -31q0 -22 12.5 -30.5t41.5 -8.5l-9 -50h-311l9 50q36 0 53 14t25 56zM274 830q0 -37 -27 -63t-65 -26t-64.5 26t-26.5 63t27.5 63.5t65.5 26.5t64 -26
t26 -64zM503 830q0 -37 -27 -63t-65 -26t-64.5 26t-26.5 63t27.5 63.5t65.5 26.5t64 -26t26 -64z" />
    <glyph glyph-name="Upsilondieresis" unicode="&#x3ab;" horiz-adv-x="643" 
d="M375 347h6l145 239q12 21 12 32q0 26 -42 26l10 53h222l-10 -53q-31 -4 -46 -13.5t-36 -42.5l-226 -333l-26 -135q-3 -18 -3 -30q0 -23 14 -31.5t49 -8.5l-9 -50h-331l9 50q44 0 62 14t26 56l26 134l-95 334q-9 33 -20 42.5t-37 13.5l10 53h289l-10 -53q-48 0 -48 -40
q0 -6 2 -18zM415 830q0 -37 -27 -63t-65 -26t-64.5 26t-26.5 63t27.5 63.5t65.5 26.5t64 -26t26 -64zM644 830q0 -37 -27 -63t-65 -26t-64.5 26t-26.5 63t27.5 63.5t65.5 26.5t64 -26t26 -64z" />
    <glyph glyph-name="alphatonos" unicode="&#x3ac;" horiz-adv-x="590" 
d="M585 480q-57 -112 -112 -199q5 -131 17 -170.5t50 -39.5q14 0 32 3l4 -45q-63 -38 -132 -38q-45 0 -66.5 26.5t-23.5 99.5h-4q-46 -75 -87 -103.5t-92 -28.5q-75 0 -110.5 44.5t-35.5 112.5q0 57 12.5 113t38 105.5t60.5 87t82.5 59.5t101.5 22q115 0 134 -132h4
q37 79 51 130l73 -13zM232 93q18 0 39 25t75 112q1 26 1 71q0 84 -10 118t-33 34q-38 0 -71.5 -97.5t-33.5 -193.5q0 -69 33 -69zM363 557l-100 4l60 214l148 -31z" />
    <glyph glyph-name="epsilontonos" unicode="&#x3ad;" horiz-adv-x="508" 
d="M279 84q75 0 159 46l27 -47q-98 -96 -254 -96q-91 0 -151 33t-60 101q0 70 46.5 107t128.5 42v6q-48 8 -73 32t-25 58q0 80 70 121.5t182 41.5q111 0 184 -43l-23 -110h-117q3 18 3 31q0 53 -48 53q-40 0 -60.5 -33.5t-20.5 -80.5q0 -43 53 -43h45l-15 -72h-46
q-43 0 -69.5 -23t-26.5 -66q0 -58 91 -58zM351 557l-100 4l60 214l148 -31z" />
    <glyph glyph-name="etatonos" unicode="&#x3ae;" horiz-adv-x="613" 
d="M347 149l48 194q3 14 3 20q0 28 -29 28q-48 0 -110 -88l-65 -303h-169v36q15 32 35 126l45 209q3 15 3 27q0 45 -66 46l9 42q74 37 138 37q84 0 84 -102q0 -16 -2 -28q81 136 201 136q51 0 78 -29t27 -77q0 -22 -6 -46l-55 -232q-7 -30 -7 -41q0 -18 10 -25t34 -7
q11 0 31 2l4 -45q-67 -38 -144 -38q-106 0 -106 96q0 22 9 62zM402 557l-100 4l60 214l148 -31z" />
    <glyph glyph-name="iotatonos" unicode="&#x3af;" horiz-adv-x="312" 
d="M285 525l-79 -362q-11 -47 -11 -59q0 -17 10 -24.5t34 -7.5q7 0 31 2l4 -45q-67 -38 -144 -38q-105 0 -105 97q0 25 8 61l48 225q15 69 20 129l154 22h30zM239 557l-100 4l60 214l148 -31z" />
    <glyph glyph-name="upsilondieresistonos" unicode="&#x3b0;" horiz-adv-x="613" 
d="M390 477l6 29l145 23q16 -22 29 -63t13 -89q0 -173 -94 -281.5t-269 -108.5q-76 0 -121 32.5t-45 91.5q0 17 5 42l43 203q4 20 4 36q0 25 -13.5 38t-50.5 14l9 42q80 39 135 39q102 0 102 -89q0 -22 -8 -60l-50 -234q-7 -32 -7 -52q0 -35 29 -35q35 0 65.5 35t48 87
t27.5 105t10 95q0 57 -13 100zM263 645q0 -33 -24.5 -56.5t-58.5 -23.5t-57.5 23.5t-23.5 56.5q0 34 24 57.5t59 23.5q34 0 57.5 -23.5t23.5 -57.5zM579 645q0 -33 -24 -56.5t-58 -23.5t-58 23.5t-24 56.5q0 34 24 57.5t59 23.5q34 0 57.5 -23.5t23.5 -57.5zM361 567l-90 4
l28 227l136 -40z" />
    <glyph glyph-name="alpha" unicode="&#x3b1;" horiz-adv-x="590" 
d="M585 480q-57 -112 -112 -199q5 -131 17 -170.5t50 -39.5q14 0 32 3l4 -45q-63 -38 -132 -38q-45 0 -66.5 26.5t-23.5 99.5h-4q-46 -75 -87 -103.5t-92 -28.5q-75 0 -110.5 44.5t-35.5 112.5q0 57 12.5 113t38 105.5t60.5 87t82.5 59.5t101.5 22q115 0 134 -132h4
q37 79 51 130l73 -13zM232 93q18 0 39 25t75 112q1 26 1 71q0 84 -10 118t-33 34q-38 0 -71.5 -97.5t-33.5 -193.5q0 -69 33 -69z" />
    <glyph glyph-name="beta" unicode="&#x3b2;" horiz-adv-x="590" 
d="M289 -13q-70 0 -112 27q-4 -55 -24 -148l-11 -50l-182 -24v34q29 70 54 188l109 516q23 109 85 159.5t175 50.5q100 0 151 -42t51 -110q0 -74 -42 -123.5t-124 -67.5v-5q61 -6 96.5 -46t35.5 -97q0 -122 -66.5 -192t-195.5 -70zM288 362l21 65h17q45 0 68 61t23 134
q0 54 -36 54q-31 0 -49.5 -29.5t-37.5 -121.5l-97 -451q24 -21 61 -21q32 0 56.5 25t37 62.5t18 72t5.5 63.5q0 47 -16 66.5t-56 19.5h-15z" />
    <glyph glyph-name="gamma" unicode="&#x3b3;" horiz-adv-x="533" 
d="M152 -6q0 50 -34 248q-8 44 -12 69q-11 64 -25 94.5t-26.5 36t-38.5 5.5l8 43q69 33 128 33q51 0 76.5 -31.5t34.5 -103.5q14 -107 15 -184q2 -80 -10 -135h6l40 85q60 127 79 198t19 171l141 -13v-46q-108 -274 -253 -473q-71 -98 -139 -148t-154 -63l-17 92v32
q46 3 77.5 9.5t48 13.5t25 19.5t10 21.5t1.5 26z" />
    <glyph glyph-name="delta" unicode="&#x3b4;" horiz-adv-x="588" 
d="M166 564q0 87 63.5 131.5t160.5 44.5q87 0 135 -29.5t48 -78.5q0 -33 -22 -70l-73 -15q-13 107 -119 107q-31 0 -56 -11t-25 -37q0 -22 28 -43.5t115 -72.5q135 -81 135 -201q0 -130 -79 -216t-218 -86q-230 0 -230 174q0 108 51.5 177t144.5 113q-59 49 -59 113z
M208 122q0 -68 50 -68q49 0 74 58q16 38 27 89t11 83q0 44 -16.5 69t-62.5 52q-41 -50 -62 -126.5t-21 -156.5z" />
    <glyph glyph-name="epsilon" unicode="&#x3b5;" horiz-adv-x="508" 
d="M279 84q75 0 159 46l27 -47q-98 -96 -254 -96q-91 0 -151 33t-60 101q0 70 46.5 107t128.5 42v6q-48 8 -73 32t-25 58q0 80 70 121.5t182 41.5q111 0 184 -43l-23 -110h-117q3 18 3 31q0 53 -48 53q-40 0 -60.5 -33.5t-20.5 -80.5q0 -43 53 -43h45l-15 -72h-46
q-43 0 -69.5 -23t-26.5 -66q0 -58 91 -58z" />
    <glyph glyph-name="zeta" unicode="&#x3b6;" horiz-adv-x="471" 
d="M260 560q-29 16 -45 49.5t-16 72.5q0 17 5 37l64 24q17 -89 110 -102l153 93l65 -19l-4 -28q-28 -74 -86 -111t-136 -37q-61 -42 -109 -140.5t-48 -176.5q0 -40 23 -61t81 -40q62 -20 89 -42t27 -64q0 -45 -28.5 -90.5t-59 -72.5t-79.5 -64l-81 52q68 65 68 109
q0 17 -14 27.5t-48 18.5q-166 43 -166 185q0 198 235 380z" />
    <glyph glyph-name="eta" unicode="&#x3b7;" horiz-adv-x="613" 
d="M347 149l48 194q3 14 3 20q0 28 -29 28q-48 0 -110 -88l-65 -303h-169v36q15 32 35 126l45 209q3 15 3 27q0 45 -66 46l9 42q74 37 138 37q84 0 84 -102q0 -16 -2 -28q81 136 201 136q51 0 78 -29t27 -77q0 -22 -6 -46l-55 -232q-7 -30 -7 -41q0 -18 10 -25t34 -7
q11 0 31 2l4 -45q-67 -38 -144 -38q-106 0 -106 96q0 22 9 62z" />
    <glyph glyph-name="theta" unicode="&#x3b8;" horiz-adv-x="581" 
d="M576 510q0 -62 -10 -129.5t-35 -138.5t-61 -127t-93.5 -92t-127.5 -36q-98 0 -151 60t-53 173q0 64 9.5 131t34 138t60.5 125.5t94 90t130 35.5q92 0 147.5 -58t55.5 -172zM335 151q20 55 44 180h-149q-25 -138 -25 -198q0 -79 47 -79t83 97zM289 583q-23 -56 -47 -185
h150q25 148 25 198q0 74 -46 74q-24 0 -44 -20.5t-38 -66.5z" />
    <glyph glyph-name="iota" unicode="&#x3b9;" horiz-adv-x="312" 
d="M285 525l-79 -362q-11 -47 -11 -59q0 -17 10 -24.5t34 -7.5q7 0 31 2l4 -45q-67 -38 -144 -38q-105 0 -105 97q0 25 8 61l48 225q15 69 20 129l154 22h30z" />
    <glyph glyph-name="kappa" unicode="&#x3ba;" horiz-adv-x="596" 
d="M443 357l-23 -22l58 -174q11 -32 24 -43t47 -18l-31 -109q-60 0 -98.5 8.5t-60 29t-31 41.5t-18.5 58l-22 88l-39 -31q-23 -105 -45 -185h-179v25q26 37 55 171l37 175q3 15 3 27q0 45 -66 46l9 42q74 37 140 37q42 0 66.5 -27t24.5 -80q0 -22 -7 -54l-14 -67
q79 71 125 124q36 43 53.5 60t55 33.5t89.5 17.5v-125l-56 -7q-41 -5 -58 -12.5t-39 -28.5z" />
    <glyph glyph-name="lambda" unicode="&#x3bb;" horiz-adv-x="550" 
d="M286 438h-5l-201 -448h-30l-85 26q43 39 87 132l180 381l43 -7l-4 77q-2 31 -26 41t-76 10l8 58q62 32 128 32q118 0 125 -92l41 -521q2 -31 9 -43t26 -12q13 0 30 4l4 -58q-57 -30 -117 -30q-69 0 -92.5 38t-27.5 108z" />
    <glyph glyph-name="uni03BC" unicode="&#x3bc;" horiz-adv-x="605" 
d="M581 74l4 -45q-67 -38 -144 -38q-45 0 -65.5 18.5t-24.5 57.5q-1 8 -1 26q-21 -51 -54.5 -78.5t-71.5 -27.5q-27 0 -41 8t-23 30l-4 -1q13 -44 13 -83q0 -36 -11 -75l-14 -48l-174 -26v34q22 51 54 188l81 343q6 23 6 38q0 49 -67 49l9 42q70 37 139 37q95 0 95 -86
q0 -18 -7 -51l-51 -210q-6 -22 -6 -37q0 -34 32 -34q45 0 101 89l68 322h166l-76 -366q-7 -33 -7 -45q0 -18 10 -25.5t35 -7.5q11 0 29 2z" />
    <glyph glyph-name="nu" unicode="&#x3bd;" horiz-adv-x="511" 
d="M287 0h-157q-3 60 -35 252l-18 108q-5 31 -12.5 49.5t-20 26.5t-22 9.5t-27.5 1.5l8 43q69 33 128 33q50 0 73 -31t33 -104l14 -106q11 -74 11 -178h6l45 85q47 89 61 159t15 175l137 -13v-46q-59 -150 -111.5 -255.5t-127.5 -208.5z" />
    <glyph glyph-name="xi" unicode="&#x3be;" horiz-adv-x="469" 
d="M237 568q-57 32 -57 108q0 22 6 43l64 24q16 -84 104 -97l164 87l66 -19l-5 -28q-19 -43 -45.5 -71.5t-59.5 -42t-64.5 -18.5t-73.5 -5q-64 -44 -64 -99q0 -73 125 -73h40l-15 -72h-37q-33 0 -63 -4.5t-60.5 -15.5t-48.5 -33.5t-18 -53.5q0 -30 28 -46.5t101 -33.5
q61 -15 89 -38.5t28 -64.5q0 -35 -15 -69t-43 -63.5t-51.5 -50t-57.5 -44.5l-81 52q22 23 33 35t23.5 34.5t12.5 41.5q0 17 -14.5 26.5t-48.5 17.5q-92 20 -140.5 56t-48.5 97q0 85 73 134.5t166 57.5v6q-131 7 -131 88q0 25 10.5 46t31 38t36.5 27t41 23z" />
    <glyph glyph-name="omicron" unicode="&#x3bf;" horiz-adv-x="567" 
d="M546 316q0 -138 -76 -234t-224 -96q-100 0 -158.5 57t-58.5 154q0 61 18 118.5t52.5 106t93 78t132.5 29.5q100 0 160.5 -52.5t60.5 -160.5zM251 56q51 0 76 69q17 46 30.5 119.5t13.5 136.5q0 77 -50 77q-25 0 -42 -15t-31 -53q-19 -54 -32 -130t-13 -139q0 -65 48 -65z
" />
    <glyph glyph-name="pi" unicode="&#x3c0;" horiz-adv-x="645" 
d="M395 370h-126q-44 -237 -111 -370h-148v35q58 37 99.5 120t78.5 215q-37 0 -60.5 -11.5t-49.5 -37.5l-25 33q55 162 224 162h264q67 0 119 19h25l-46 -144q-30 -16 -88 -21l-46 -224q-6 -30 -6 -42q0 -18 8.5 -25t28.5 -7q7 0 27 2l4 -45q-67 -38 -126 -38q-99 0 -99 89
q0 28 9 69z" />
    <glyph glyph-name="rho" unicode="&#x3c1;" horiz-adv-x="619" 
d="M160 -134l-11 -50l-182 -24v34q25 60 52 188l58 274q25 116 94 178.5t199 62.5q104 0 166 -50t62 -140q0 -66 -18.5 -128t-54.5 -112.5t-94 -81t-130 -30.5q-39 0 -70 12t-44 30l-4 -1q0 -56 -23 -162zM274 55q48 0 80 61q26 50 45 135t19 139q0 39 -14.5 54.5
t-42.5 15.5q-36 0 -63 -34.5t-45 -122.5l-45 -210q6 -14 24 -26t42 -12z" />
    <glyph glyph-name="sigma1" unicode="&#x3c2;" horiz-adv-x="486" 
d="M299 115q64 -20 91.5 -40.5t27.5 -59.5q0 -35 -15 -69t-43 -63.5t-51.5 -50t-57.5 -44.5l-81 52q22 23 33 35t23.5 34.5t12.5 41.5t-13.5 28t-49.5 18q-71 17 -111 67t-40 119q0 145 84 245.5t226 100.5q108 0 168 -46l-25 -112h-121v34q-1 30 -8.5 42.5t-23.5 12.5
q-41 0 -73 -57q-46 -80 -46 -185q0 -44 19 -65.5t74 -37.5z" />
    <glyph glyph-name="sigma" unicode="&#x3c3;" horiz-adv-x="613" 
d="M542 305q0 -61 -17.5 -116.5t-52 -101.5t-93.5 -73.5t-135 -27.5q-99 0 -157 57t-58 154q0 61 17.5 118.5t51.5 106t92.5 78t132.5 29.5q31 0 94.5 -6.5t107.5 -6.5q63 0 113 19v-78l-6 -30q-32 -14 -66 -14q-30 0 -77 27l-3 -5q56 -44 56 -130zM249 56q49 0 74 69
q17 46 30.5 119.5t13.5 136.5q0 40 -11 58.5t-37 18.5q-25 0 -41 -14.5t-30 -53.5q-19 -54 -32 -130t-13 -139q0 -65 46 -65z" />
    <glyph glyph-name="tau" unicode="&#x3c4;" horiz-adv-x="565" 
d="M456 372h-77l-43 -219q-7 -34 -7 -49q0 -17 10 -24.5t34 -7.5q7 0 31 2l7 -45q-67 -38 -144 -38q-105 0 -105 97q0 22 8 62q10 49 34 125q10 31 34 97h-82q-54 0 -110 -43l-31 30q33 77 87 117t144 40h217q67 0 107 13h30l-46 -136q-37 -21 -98 -21z" />
    <glyph glyph-name="upsilon" unicode="&#x3c5;" horiz-adv-x="613" 
d="M390 477l6 29l145 23q16 -22 29 -63t13 -89q0 -173 -94 -281.5t-269 -108.5q-76 0 -121 32.5t-45 91.5q0 17 5 42l43 203q4 20 4 36q0 25 -13.5 38t-50.5 14l9 42q80 39 135 39q102 0 102 -89q0 -22 -8 -60l-50 -234q-7 -32 -7 -52q0 -35 29 -35q35 0 65.5 35t48 87
t27.5 105t10 95q0 57 -13 100z" />
    <glyph glyph-name="phi" unicode="&#x3c6;" horiz-adv-x="838" 
d="M818 346q0 -355 -373 -359l-36 -171l-179 -24v34q26 63 47 162q-116 6 -181.5 52t-65.5 132q0 103 55.5 197t148.5 157l131 -18q-73 -64 -119 -158.5t-46 -190.5q0 -98 92 -104l50 233q26 122 82.5 181.5t177.5 59.5q103 0 159.5 -46t56.5 -137zM513 303l-53 -248
q76 3 121 66q32 45 49 127.5t17 150.5q0 35 -12.5 48t-36.5 13q-30 0 -47.5 -32t-37.5 -125z" />
    <glyph glyph-name="chi" unicode="&#x3c7;" horiz-adv-x="578" 
d="M393 285l57 -157q13 -34 24 -45t32 -11q11 0 26 3l5 -45q-59 -42 -118 -42q-60 0 -86 24.5t-45 83.5l-28 87h-5l-168 -193h-30l-82 26q51 30 122 110l121 136l-44 133q-10 30 -21.5 40.5t-34.5 10.5q-13 0 -27 -2l8 41q74 39 128 39q51 0 69.5 -19t36.5 -77l21 -65h5
l136 159h30l88 -26q-46 -27 -122 -108z" />
    <glyph glyph-name="psi" unicode="&#x3c8;" horiz-adv-x="835" 
d="M69 203l33 153q4 20 4 36q0 25 -13.5 38t-50.5 14l9 42q80 39 134 39q100 0 100 -89q0 -19 -5 -46l-43 -201q-7 -35 -7 -52q0 -71 72 -80l104 487q25 114 33 169l143 23h30l-145 -680q70 11 115.5 108.5t45.5 212.5q0 57 -13 100l6 29l142 23q16 -22 29 -63t13 -89
q0 -171 -91 -278.5t-262 -110.5l-36 -172l-178 -24v34q26 64 49 161q-104 3 -163.5 48t-59.5 126q0 17 5 42z" />
    <glyph glyph-name="omega" unicode="&#x3c9;" horiz-adv-x="829" 
d="M336 263q2 10 14 101l148 19h30l-47 -215q-11 -51 -11 -74q0 -39 29 -39q39 0 69 61q55 116 55 249q0 62 -18 109l6 30l143 24q16 -25 30.5 -76t14.5 -104q0 -157 -86.5 -259t-220.5 -102q-56 0 -92.5 20.5t-51.5 53.5q-46 -74 -142 -74q-81 0 -128.5 42.5t-47.5 129.5
q0 108 55.5 204t153.5 163l134 -18q-90 -78 -130.5 -181.5t-40.5 -209.5q0 -60 36 -60q59 0 98 206z" />
    <glyph glyph-name="iotadieresis" unicode="&#x3ca;" horiz-adv-x="312" 
d="M285 525l-79 -362q-11 -47 -11 -59q0 -17 10 -24.5t34 -7.5q7 0 31 2l4 -45q-67 -38 -144 -38q-105 0 -105 97q0 25 8 61l48 225q15 69 20 129l154 22h30zM195 650q0 -37 -27 -63t-65 -26t-64.5 26t-26.5 63t27.5 63.5t65.5 26.5t64 -26t26 -64zM424 650q0 -37 -27 -63
t-65 -26t-64.5 26t-26.5 63t27.5 63.5t65.5 26.5t64 -26t26 -64z" />
    <glyph glyph-name="upsilondieresis" unicode="&#x3cb;" horiz-adv-x="613" 
d="M390 477l6 29l145 23q16 -22 29 -63t13 -89q0 -173 -94 -281.5t-269 -108.5q-76 0 -121 32.5t-45 91.5q0 17 5 42l43 203q4 20 4 36q0 25 -13.5 38t-50.5 14l9 42q80 39 135 39q102 0 102 -89q0 -22 -8 -60l-50 -234q-7 -32 -7 -52q0 -35 29 -35q35 0 65.5 35t48 87
t27.5 105t10 95q0 57 -13 100zM303 650q0 -37 -27 -63t-65 -26t-64.5 26t-26.5 63t27.5 63.5t65.5 26.5t64 -26t26 -64zM532 650q0 -37 -27 -63t-65 -26t-64.5 26t-26.5 63t27.5 63.5t65.5 26.5t64 -26t26 -64z" />
    <glyph glyph-name="omicrontonos" unicode="&#x3cc;" horiz-adv-x="567" 
d="M546 316q0 -138 -76 -234t-224 -96q-100 0 -158.5 57t-58.5 154q0 61 18 118.5t52.5 106t93 78t132.5 29.5q100 0 160.5 -52.5t60.5 -160.5zM251 56q51 0 76 69q17 46 30.5 119.5t13.5 136.5q0 77 -50 77q-25 0 -42 -15t-31 -53q-19 -54 -32 -130t-13 -139q0 -65 48 -65z
M379 557l-100 4l60 214l148 -31z" />
    <glyph glyph-name="upsilontonos" unicode="&#x3cd;" horiz-adv-x="613" 
d="M390 477l6 29l145 23q16 -22 29 -63t13 -89q0 -173 -94 -281.5t-269 -108.5q-76 0 -121 32.5t-45 91.5q0 17 5 42l43 203q4 20 4 36q0 25 -13.5 38t-50.5 14l9 42q80 39 135 39q102 0 102 -89q0 -22 -8 -60l-50 -234q-7 -32 -7 -52q0 -35 29 -35q35 0 65.5 35t48 87
t27.5 105t10 95q0 57 -13 100zM376 557l-100 4l60 214l148 -31z" />
    <glyph glyph-name="omegatonos" unicode="&#x3ce;" horiz-adv-x="829" 
d="M336 263q2 10 14 101l148 19h30l-47 -215q-11 -51 -11 -74q0 -39 29 -39q39 0 69 61q55 116 55 249q0 62 -18 109l6 30l143 24q16 -25 30.5 -76t14.5 -104q0 -157 -86.5 -259t-220.5 -102q-56 0 -92.5 20.5t-51.5 53.5q-46 -74 -142 -74q-81 0 -128.5 42.5t-47.5 129.5
q0 108 55.5 204t153.5 163l134 -18q-90 -78 -130.5 -181.5t-40.5 -209.5q0 -60 36 -60q59 0 98 206zM530 557l-100 4l60 214l148 -31z" />
    <glyph glyph-name="uni03D0" unicode="&#x3d0;" horiz-adv-x="600" 
d="M590 594q0 -144 -144 -206q109 -42 109 -136q0 -129 -75 -197t-219 -68q-105 0 -163 58.5t-58 173.5q0 49 13 110q48 226 128.5 318.5t199.5 92.5q99 0 154 -38.5t55 -107.5zM380 271q0 61 -33 87q-37 -7 -77 -12l3 68q146 23 146 199q0 63 -44 63q-25 0 -43.5 -22.5
t-43 -98t-55.5 -218.5q-28 -128 -28 -192q0 -92 56 -92q31 0 55.5 22.5t37.5 57t19.5 70t6.5 68.5z" />
    <glyph glyph-name="theta1" unicode="&#x3d1;" horiz-adv-x="616" 
d="M36 302l109 40q57 -36 57 -105q0 -17 -6 -54t-6 -57q0 -42 16.5 -57.5t48.5 -15.5q33 0 55 20t43.5 74.5t44.5 157.5q-138 27 -208.5 73t-70.5 126q0 111 72.5 173.5t195.5 62.5q100 0 157 -54.5t57 -168.5q0 -62 -20 -165q-39 -198 -115 -281.5t-210 -83.5
q-225 0 -225 156q0 18 6.5 55.5t6.5 57.5q0 25 -8 46zM292 494q0 -48 27.5 -75t94.5 -40q27 135 27 221q0 44 -15 60t-43 16q-43 0 -67 -57t-24 -125z" />
    <glyph glyph-name="Upsilon1" unicode="&#x3d2;" horiz-adv-x="668" 
d="M133 50q46 0 62 9.5t24 50.5l21 110q11 57 11 107q0 214 -186 264l30 118q162 0 224 -76.5t62 -228.5q0 -19 -2 -59h4q41 176 130 269.5t224 93.5l6 -89q-125 -20 -206 -125.5t-114 -276.5l-21 -107q-3 -16 -3 -28q0 -21 13.5 -26.5t51.5 -5.5l-9 -50h-331z" />
    <glyph glyph-name="uni03D3" unicode="&#x3d3;" horiz-adv-x="668" 
d="M133 50q46 0 62 9.5t24 50.5l21 110q11 57 11 107q0 214 -186 264l30 118q162 0 224 -76.5t62 -228.5q0 -19 -2 -59h4q41 176 130 269.5t224 93.5l6 -89q-125 -20 -206 -125.5t-114 -276.5l-21 -107q-3 -16 -3 -28q0 -21 13.5 -26.5t51.5 -5.5l-9 -50h-331zM-40 497
l-100 4l57 214l148 -31z" />
    <glyph glyph-name="uni03D4" unicode="&#x3d4;" horiz-adv-x="668" 
d="M405 830q0 -37 -27 -63t-65 -26t-64.5 26t-26.5 63t27.5 63.5t65.5 26.5t64 -26t26 -64zM634 830q0 -37 -27 -63t-65 -26t-64.5 26t-26.5 63t27.5 63.5t65.5 26.5t64 -26t26 -64zM133 50q46 0 62 9.5t24 50.5l21 110q11 57 11 107q0 214 -186 264l30 118q162 0 224 -76.5
t62 -228.5q0 -19 -2 -59h4q41 176 130 269.5t224 93.5l6 -89q-125 -20 -206 -125.5t-114 -276.5l-21 -107q-3 -16 -3 -28q0 -21 13.5 -26.5t51.5 -5.5l-9 -50h-331z" />
    <glyph glyph-name="phi1" unicode="&#x3d5;" horiz-adv-x="858" 
d="M617 736l-45 -208q265 -12 265 -195q0 -330 -380 -345l-36 -172l-178 -24v34q26 66 49 162q-263 12 -263 195q0 330 378 345l4 16q22 100 32 169l144 23h30zM653 354q0 56 -24 79t-71 26l-86 -403q76 7 118 66q28 39 45.5 103t17.5 129zM213 162q0 -57 23.5 -80t70.5 -26
l86 403q-77 -7 -117 -65q-28 -39 -45.5 -103t-17.5 -129z" />
    <glyph glyph-name="uni0400" unicode="&#x400;" horiz-adv-x="604" 
d="M629 697l-22 -177h-88q-6 61 -20.5 79t-68.5 18h-84l-44 -230h48q46 0 64.5 14t30.5 57h77l-43 -218h-77q2 14 2 24q0 26 -14.5 36.5t-53.5 10.5h-49l-46 -237h105q48 0 74 24t45 92h89l-36 -190h-538l9 50q36 0 53 14t25 56l88 454q4 24 4 31q0 22 -12.5 30.5t-41.5 8.5
l10 53h514zM510 760l-25 -39l-260 73l74 146z" />
    <glyph glyph-name="afii10023" unicode="&#x401;" horiz-adv-x="604" 
d="M629 697l-22 -177h-88q-6 61 -20.5 79t-68.5 18h-84l-44 -230h48q46 0 64.5 14t30.5 57h77l-43 -218h-77q2 14 2 24q0 26 -14.5 36.5t-53.5 10.5h-49l-46 -237h105q48 0 74 24t45 92h89l-36 -190h-538l9 50q36 0 53 14t25 56l88 454q4 24 4 31q0 22 -12.5 30.5t-41.5 8.5
l10 53h514zM375 830q0 -37 -27 -63t-65 -26t-64.5 26t-26.5 63t27.5 63.5t65.5 26.5t64 -26t26 -64zM604 830q0 -37 -27 -63t-65 -26t-64.5 26t-26.5 63t27.5 63.5t65.5 26.5t64 -26t26 -64z" />
    <glyph glyph-name="afii10051" unicode="&#x402;" horiz-adv-x="845" 
d="M110 697h579l-26 -187h-87q-5 72 -16 89.5t-56 17.5h-29l-39 -199q93 51 178 51q100 0 149 -39t49 -110q0 -20 -5 -48l-10 -59q-20 -117 -100 -176t-220 -85l-11 54q35 15 57 29t36 26.5t23.5 36t14.5 42.5t13 59l11 60q4 23 4 36q0 38 -20.5 53.5t-62.5 15.5
q-54 0 -122 -29l-41 -215q-4 -21 -4 -34q0 -21 12.5 -28.5t41.5 -7.5l-9 -50h-321l9 50q44 0 62 14t26 56l96 497h-29q-46 0 -65 -22t-51 -95h-87z" />
    <glyph glyph-name="afii10052" unicode="&#x403;" horiz-adv-x="577" 
d="M346 617l-96 -493q-5 -23 -5 -33q0 -24 16 -32.5t58 -8.5l-9 -50h-330l9 50q36 0 52.5 14t24.5 56l88 454q4 20 4 31q0 22 -12.5 30.5t-41.5 8.5l10 53h518l-25 -195h-88q-3 72 -17 93.5t-68 21.5h-88zM283 721l-25 39l211 180l74 -146z" />
    <glyph glyph-name="afii10053" unicode="&#x404;" horiz-adv-x="640" 
d="M319 65q57 0 90.5 31t55.5 96h122l-27 -147q-39 -25 -104.5 -41.5t-136.5 -16.5q-130 0 -202.5 66t-72.5 190q0 212 111 339t279 127q135 0 231 -53l-28 -141h-124q0 59 -18.5 86t-65.5 27q-92 0 -139 -124q-20 -53 -32 -109h218l-17 -85h-217q-9 -66 -9 -131
q0 -114 86 -114z" />
    <glyph glyph-name="afii10054" unicode="&#x405;" horiz-adv-x="551" 
d="M235 -14q-90 0 -151 19t-89 44l26 143h118q-1 -73 24 -107.5t80 -34.5q48 0 77.5 26.5t29.5 80.5q0 41 -19 63.5t-68 43.5l-67 28q-126 53 -126 186q0 107 73.5 169t194.5 62q129 0 222 -53l-28 -147h-114q2 69 -21.5 99.5t-73.5 30.5q-46 0 -73.5 -25.5t-27.5 -68.5
q0 -61 75 -93l72 -30q76 -31 113.5 -73.5t37.5 -121.5q0 -115 -80 -178t-205 -63z" />
    <glyph glyph-name="afii10055" unicode="&#x406;" horiz-adv-x="371" 
d="M67 120l88 454q4 24 4 31q0 22 -12.5 30.5t-41.5 8.5l10 53h311l-10 -53q-36 0 -53 -14t-25 -56l-88 -454q-4 -24 -4 -31q0 -22 12.5 -30.5t41.5 -8.5l-9 -50h-311l9 50q36 0 53 14t25 56z" />
    <glyph glyph-name="afii10056" unicode="&#x407;" horiz-adv-x="371" 
d="M67 120l88 454q4 24 4 31q0 22 -12.5 30.5t-41.5 8.5l10 53h311l-10 -53q-36 0 -53 -14t-25 -56l-88 -454q-4 -24 -4 -31q0 -22 12.5 -30.5t41.5 -8.5l-9 -50h-311l9 50q36 0 53 14t25 56zM274 830q0 -37 -27 -63t-65 -26t-64.5 26t-26.5 63t27.5 63.5t65.5 26.5t64 -26
t26 -64zM503 830q0 -37 -27 -63t-65 -26t-64.5 26t-26.5 63t27.5 63.5t65.5 26.5t64 -26t26 -64z" />
    <glyph glyph-name="afii10057" unicode="&#x408;" horiz-adv-x="366" 
d="M63 100l92 474q4 24 4 31q0 22 -12.5 30.5t-41.5 8.5l10 53h311l-10 -53q-36 0 -53 -14t-25 -56l-94 -484q-24 -121 -100.5 -176.5t-221.5 -60.5l-14 51q79 22 108 63t47 133z" />
    <glyph glyph-name="afii10058" unicode="&#x409;" horiz-adv-x="967" 
d="M236 574q3 18 3 30q0 23 -12.5 31.5t-41.5 8.5l11 53h576l-11 -53q-36 0 -52.5 -14t-24.5 -56l-29 -147h72q101 0 163 -41t62 -126q0 -121 -76.5 -190.5t-214.5 -69.5h-334l10 50q36 0 52 14t24 56l96 495h-174q-59 -294 -123 -448q-44 -104 -95.5 -143.5t-144.5 -39.5
l-12 114q81 16 129 64q83 83 147 412zM674 347h-34l-51 -264h48q35 0 60 17t37.5 45.5t17.5 57.5t5 61q0 43 -20.5 63t-62.5 20z" />
    <glyph glyph-name="afii10059" unicode="&#x40a;" horiz-adv-x="1012" 
d="M458 120l41 207h-208l-41 -207q-4 -20 -4 -31q0 -23 11 -31t39 -8l-9 -50h-307l9 50q36 0 53 14t25 56l88 454q3 16 3 31q0 23 -12 31t-41 8l10 53h307l-10 -53q-36 0 -51 -14t-23 -56l-31 -162h208l31 162q3 20 3 31q0 23 -10.5 31t-38.5 8l10 53h307l-10 -53
q-36 0 -53 -14t-25 -56l-32 -162h71q101 0 165 -41t64 -125q0 -119 -76.5 -182.5t-214.5 -63.5h-331l9 50q36 0 51 14t23 56zM715 332h-33l-48 -249h48q65 0 92.5 49t27.5 118q0 82 -87 82z" />
    <glyph glyph-name="afii10060" unicode="&#x40b;" horiz-adv-x="874" 
d="M824 50l-9 -50h-299l9 50q30 0 44 14t22 56l27 140q4 23 4 36q0 38 -20.5 53.5t-62.5 15.5q-54 0 -118 -27l-42 -218q-4 -21 -4 -34q0 -21 12.5 -28.5t41.5 -7.5l-9 -50h-321l9 50q44 0 62 14t26 56l96 497h-29q-46 0 -65 -22t-51 -95h-87l50 197h579l-26 -187h-87
q-5 72 -16 89.5t-56 17.5h-29l-38 -196q91 49 174 49q100 0 149 -39t49 -110q0 -23 -5 -48l-30 -153q-3 -12 -3 -31q0 -23 12 -31t41 -8z" />
    <glyph glyph-name="afii10061" unicode="&#x40c;" horiz-adv-x="697" 
d="M289 330l-41 -210q-4 -23 -4 -32q0 -22 11.5 -30t40.5 -8l-9 -50h-307l9 50q36 0 52 14t24 56l89 454q3 16 3 30q0 23 -12.5 31.5t-41.5 8.5l10 53h308l-10 -53q-36 0 -51 -14t-23 -56l-32 -164h26q66 0 107.5 29t72.5 120q27 79 77 113t144 37l5 -128l-51 -7
q-43 -6 -69 -24t-45 -62q-19 -43 -45 -70.5t-72 -39.5v-5q71 -6 100 -45t29 -119q0 -51 16 -78t61 -34l-28 -112q-113 0 -168.5 43t-57.5 139q-2 99 -15.5 131t-51.5 32h-51zM360 721l-25 39l211 180l74 -146z" />
    <glyph glyph-name="uni040D" unicode="&#x40d;" horiz-adv-x="757" 
d="M528 454h-4q-28 -46 -88 -125l-171 -224q-26 -35 -39 -105h-246l9 50q36 0 52.5 14t24.5 56l88 454q3 16 3 31q0 23 -12 31t-41 8l10 53h309l-10 -53q-36 0 -52.5 -14t-24.5 -56l-40 -206q-9 -50 -33 -125h4q28 46 88 125l171 223q25 33 39 106h247l-10 -53
q-36 0 -53 -14t-25 -56l-88 -454q-4 -20 -4 -31q0 -22 12.5 -30.5t41.5 -8.5l-9 -50h-309l9 50q36 0 52.5 14t24.5 56l41 209q14 67 33 125zM570 760l-25 -39l-260 73l74 146z" />
    <glyph glyph-name="afii10062" unicode="&#x40e;" horiz-adv-x="671" 
d="M299 185l-45 -5l-126 411q-9 32 -19 41.5t-34 13.5l10 51h298l-10 -51q-25 0 -43.5 -10.5t-18.5 -34.5q0 -7 3 -18l63 -244h20q6 21 59 100l93 143q12 20 12 34q0 30 -50 30l10 51h235l-10 -51q-31 -4 -46 -14.5t-36 -43.5l-264 -408q-34 -53 -54.5 -81t-46 -54.5
t-51 -37t-58.5 -17t-80 -6.5l-11 116q85 9 128.5 26.5t71.5 58.5zM448 730q-69 0 -106 42t-39 107l45 22q30 -68 116 -68q79 0 141 69l42 -23q-23 -64 -76 -106.5t-123 -42.5z" />
    <glyph glyph-name="afii10145" unicode="&#x40f;" horiz-adv-x="760" 
d="M358 -180h-114q17 88 17 126q0 54 -34 54h-247l10 50q36 0 52.5 14t24.5 56l88 454q3 18 3 30q0 23 -12.5 31.5t-41.5 8.5l11 53h309l-11 -53q-36 0 -51.5 -14t-23.5 -56l-96 -492h206l96 492q4 20 4 31q0 23 -12 31t-41 8l11 53h309l-11 -53q-36 0 -52.5 -14t-24.5 -56
l-88 -454q-4 -21 -4 -31q0 -22 12.5 -30.5t41.5 -8.5l-10 -50h-237q-28 -1 -46 -40.5t-38 -139.5z" />
    <glyph glyph-name="afii10017" unicode="&#x410;" horiz-adv-x="650" 
d="M379 98l-10 77h-207l-32 -68q-8 -19 -8 -29q0 -25 51 -28l-9 -50h-224l9 50q32 4 48 15t33 44l304 588h138l100 -588q6 -34 14.5 -44.5t33.5 -14.5l-9 -50h-304l9 50q37 1 50.5 9.5t13.5 25.5q0 5 -1 13zM286 435l-84 -175h155l-22 170q-6 43 -6 88h-6q-13 -33 -37 -83z
" />
    <glyph glyph-name="afii10018" unicode="&#x411;" horiz-adv-x="631" 
d="M423 621h-77l-37 -194h78q101 0 163 -41t62 -126q0 -121 -76.5 -190.5t-214.5 -69.5h-341l9 50q36 0 52.5 14t24.5 56l88 454q3 14 3 31q0 23 -12 31t-41 8l10 53h507l-22 -182h-87q-1 65 -18.5 85.5t-70.5 20.5zM297 83q35 0 60 17t37.5 45.5t17.5 57.5t5 61
q0 43 -20.5 63t-62.5 20h-41l-51 -264h55z" />
    <glyph glyph-name="afii10019" unicode="&#x412;" horiz-adv-x="656" 
d="M346 617l-44 -229h24q72 0 98 26q40 38 40 120q0 50 -20 66.5t-66 16.5h-32zM353 311h-66l-46 -237h33q83 0 113 20q49 33 49 125q0 51 -20 71.5t-63 20.5zM460 355v-4q82 -7 123 -44.5t41 -99.5q0 -69 -36.5 -117t-100.5 -67q-75 -23 -196 -23h-311l9 50q36 0 53 14
t25 56l88 454q4 24 4 31q0 22 -12.5 30.5t-41.5 8.5l10 53h324q217 0 217 -157q0 -82 -56.5 -130.5t-139.5 -54.5z" />
    <glyph glyph-name="afii10020" unicode="&#x413;" horiz-adv-x="577" 
d="M346 617l-96 -493q-5 -23 -5 -33q0 -24 16 -32.5t58 -8.5l-9 -50h-330l9 50q36 0 52.5 14t24.5 56l88 454q4 20 4 31q0 22 -12.5 30.5t-41.5 8.5l10 53h518l-25 -195h-88q-3 72 -17 93.5t-68 21.5h-88z" />
    <glyph glyph-name="afii10021" unicode="&#x414;" horiz-adv-x="731" 
d="M161 89v-7h249l104 533h-177q-65 -318 -104 -404q-38 -84 -72 -122zM28 -180h-103l51 262h37q46 26 91 88q42 60 70 144.5t62 259.5q3 18 3 30q0 23 -12.5 31.5t-41.5 8.5l11 53h580l-10 -53q-36 0 -52.5 -14t-24.5 -56l-79 -408q-10 -50 -10 -54q0 -30 47 -30h30
l-16 -82l-63 -180h-98q19 95 19 131q0 49 -36 49h-344q-75 0 -111 -180z" />
    <glyph glyph-name="afii10022" unicode="&#x415;" horiz-adv-x="604" 
d="M629 697l-22 -177h-88q-6 61 -20.5 79t-68.5 18h-84l-44 -230h48q46 0 64.5 14t30.5 57h77l-43 -218h-77q2 14 2 24q0 26 -14.5 36.5t-53.5 10.5h-49l-46 -237h105q48 0 74 24t45 92h89l-36 -190h-538l9 50q36 0 53 14t25 56l88 454q4 24 4 31q0 22 -12.5 30.5t-41.5 8.5
l10 53h514z" />
    <glyph glyph-name="afii10024" unicode="&#x416;" horiz-adv-x="1003" 
d="M646 330h-41l-41 -210q-4 -20 -4 -32q0 -22 11.5 -30t40.5 -8l-9 -50h-303l9 50q36 0 51 14t23 56l41 210h-46q-36 0 -57 -29.5t-62 -133.5q-43 -108 -99 -145t-168 -37l-12 115q46 7 64 28t41 81q31 81 75 119.5t126 44.5v5q-41 20 -56.5 46.5t-18.5 63.5q-3 43 -21 64
q-19 22 -61 28l-43 5l28 124q96 -3 140 -43q38 -34 38 -107q0 -90 34 -119.5t98 -29.5h16l32 164q4 20 4 32q0 22 -12 30t-40 8l10 53h303l-10 -53q-36 0 -51 -14t-23 -56l-32 -164h16q65 0 106 29t74 120q29 79 78 113t143 37l5 -128l-51 -7q-43 -6 -69 -24t-45 -62
q-19 -43 -45 -70.5t-72 -39.5v-5q71 -6 100 -45t29 -119q0 -51 16 -78t61 -34l-28 -112q-113 0 -168.5 43t-57.5 139q-2 99 -15.5 131t-51.5 32z" />
    <glyph glyph-name="afii10025" unicode="&#x417;" horiz-adv-x="607" 
d="M270 323h-72l16 83h72q56 0 89 44.5t33 104.5q0 73 -67 73q-43 0 -71.5 -26.5t-50.5 -85.5h-119l28 142q91 51 224 51q125 0 187.5 -43t62.5 -111q0 -79 -55 -127.5t-137 -54.5v-4q73 -9 117 -46t44 -95q0 -120 -87.5 -180.5t-227.5 -60.5q-151 0 -251 67l27 144h119
q0 -67 20 -100t71 -33q64 0 98 50.5t34 119.5q0 88 -104 88z" />
    <glyph glyph-name="afii10026" unicode="&#x418;" horiz-adv-x="757" 
d="M528 454h-4q-28 -46 -88 -125l-171 -224q-26 -35 -39 -105h-246l9 50q36 0 52.5 14t24.5 56l88 454q3 16 3 31q0 23 -12 31t-41 8l10 53h309l-10 -53q-36 0 -52.5 -14t-24.5 -56l-40 -206q-9 -50 -33 -125h4q28 46 88 125l171 223q25 33 39 106h247l-10 -53
q-36 0 -53 -14t-25 -56l-88 -454q-4 -20 -4 -31q0 -22 12.5 -30.5t41.5 -8.5l-9 -50h-309l9 50q36 0 52.5 14t24.5 56l41 209q14 67 33 125z" />
    <glyph glyph-name="afii10027" unicode="&#x419;" horiz-adv-x="757" 
d="M528 454h-4q-28 -46 -88 -125l-171 -224q-26 -35 -39 -105h-246l9 50q36 0 52.5 14t24.5 56l88 454q3 16 3 31q0 23 -12 31t-41 8l10 53h309l-10 -53q-36 0 -52.5 -14t-24.5 -56l-40 -206q-9 -50 -33 -125h4q28 46 88 125l171 223q25 33 39 106h247l-10 -53
q-36 0 -53 -14t-25 -56l-88 -454q-4 -20 -4 -31q0 -22 12.5 -30.5t41.5 -8.5l-9 -50h-309l9 50q36 0 52.5 14t24.5 56l41 209q14 67 33 125zM480 730q-69 0 -106 42t-39 107l45 22q30 -68 116 -68q79 0 141 69l42 -23q-23 -64 -76 -106.5t-123 -42.5z" />
    <glyph glyph-name="afii10028" unicode="&#x41a;" horiz-adv-x="697" 
d="M289 330l-41 -210q-4 -23 -4 -32q0 -22 11.5 -30t40.5 -8l-9 -50h-307l9 50q36 0 52 14t24 56l89 454q3 16 3 30q0 23 -12.5 31.5t-41.5 8.5l10 53h308l-10 -53q-36 0 -51 -14t-23 -56l-32 -164h26q66 0 107.5 29t72.5 120q27 79 77 113t144 37l5 -128l-51 -7
q-43 -6 -69 -24t-45 -62q-19 -43 -45 -70.5t-72 -39.5v-5q71 -6 100 -45t29 -119q0 -51 16 -78t61 -34l-28 -112q-113 0 -168.5 43t-57.5 139q-2 99 -15.5 131t-51.5 32h-51z" />
    <glyph glyph-name="afii10029" unicode="&#x41b;" horiz-adv-x="722" 
d="M236 574q3 18 3 30q0 23 -12.5 31.5t-41.5 8.5l11 53h581l-11 -53q-36 0 -52.5 -14t-24.5 -56l-88 -454q-4 -20 -4 -31q0 -22 12.5 -30.5t41.5 -8.5l-10 -50h-309l10 50q36 0 52 14t24 56l96 495h-179q-59 -294 -123 -448q-44 -104 -95.5 -143.5t-144.5 -39.5l-12 114
q81 16 129 64q83 83 147 412z" />
    <glyph glyph-name="afii10030" unicode="&#x41c;" horiz-adv-x="914" 
d="M954 697l-10 -52q-50 -3 -64.5 -18t-20.5 -58l-56 -441q-2 -15 -2 -31q0 -26 12 -36t46 -11l-9 -50h-315l9 50q46 1 59 14t19 57l39 293q10 80 22 145h-6q-33 -88 -61 -146l-201 -413h-106l-34 399q-3 38 -3 74q0 53 3 86h-6q-15 -86 -33 -146l-83 -291q-7 -24 -7 -37
q0 -20 13 -27.5t45 -7.5l-9 -50h-230l9 50q42 1 58 16.5t29 61.5l125 441q8 27 8 41q0 18 -13.5 25.5t-49.5 9.5l10 52h285l22 -316q4 -60 4 -111q0 -11 -0.5 -23.5t-0.5 -13.5h6q14 59 50 138l150 326h297z" />
    <glyph glyph-name="afii10031" unicode="&#x41d;" horiz-adv-x="772" 
d="M468 120l37 190h-218l-37 -190q-4 -24 -4 -31q0 -22 12.5 -30.5t41.5 -8.5l-9 -50h-311l9 50q36 0 53 14t25 56l88 454q4 24 4 31q0 22 -12.5 30.5t-41.5 8.5l10 53h311l-10 -53q-36 0 -53 -14t-25 -56l-35 -179h218l35 179q4 24 4 31q0 22 -12.5 30.5t-41.5 8.5l10 53
h311l-10 -53q-36 0 -53 -14t-25 -56l-88 -454q-4 -24 -4 -31q0 -22 12.5 -30.5t41.5 -8.5l-9 -50h-311l9 50q36 0 53 14t25 56z" />
    <glyph glyph-name="afii10032" unicode="&#x41e;" horiz-adv-x="716" 
d="M323 -14q-135 0 -207 81t-72 211q0 61 14 122t44.5 116.5t72.5 98.5t102.5 68.5t131.5 25.5q131 0 206.5 -77.5t75.5 -215.5q0 -64 -13.5 -125t-43 -117t-72 -97.5t-104 -66t-135.5 -24.5zM409 629q-59 0 -91 -51q-42 -68 -62.5 -169.5t-20.5 -199.5q0 -147 87 -147
q63 0 97 50q39 57 59.5 161t20.5 201q0 82 -20 118.5t-70 36.5z" />
    <glyph glyph-name="afii10033" unicode="&#x41f;" horiz-adv-x="762" 
d="M458 120l96 495h-209l-96 -495q-4 -21 -4 -35q0 -20 11 -27.5t38 -7.5l-9 -50h-305l9 50q36 0 52.5 14t24.5 56l88 454q4 24 4 31q0 22 -12.5 30.5t-41.5 8.5l10 53h703l-10 -53q-36 0 -53 -14t-25 -56l-88 -454q-4 -24 -4 -31q0 -22 12.5 -30.5t41.5 -8.5l-9 -50h-306
l9 50q36 0 50.5 14t22.5 56z" />
    <glyph glyph-name="afii10034" unicode="&#x420;" horiz-adv-x="628" 
d="M277 258l-27 -138q-3 -17 -3 -29q0 -24 16 -32.5t57 -8.5l-9 -50h-331l9 50q36 0 53 14t25 56l88 454q4 24 4 31q0 22 -12.5 30.5t-41.5 8.5l10 53h305q118 0 178 -44.5t60 -146.5q0 -76 -36.5 -134.5t-110.5 -88.5q-63 -25 -162 -25h-72zM470 509q0 57 -20 82.5
t-68 25.5h-36l-53 -274h34q66 0 98 30q45 42 45 136z" />
    <glyph glyph-name="afii10035" unicode="&#x421;" horiz-adv-x="634" 
d="M328 -14q-142 0 -213 72.5t-71 206.5q0 118 47 218t142.5 163t221.5 63q135 0 209 -51l-29 -146h-125q0 61 -15.5 88.5t-57.5 27.5q-91 0 -146.5 -118t-55.5 -298q0 -81 26.5 -113.5t79.5 -32.5q50 0 79.5 30t51.5 95h126l-30 -151q-36 -24 -104 -39t-136 -15z" />
    <glyph glyph-name="afii10036" unicode="&#x422;" horiz-adv-x="634" 
d="M110 697h579l-26 -197h-87q-6 75 -17.5 96t-54.5 21h-29l-96 -497q-3 -18 -3 -30q0 -23 14 -31.5t49 -8.5l-9 -50h-331l9 50q44 0 62 14t26 56l96 497h-29q-46 0 -65 -22t-51 -95h-87z" />
    <glyph glyph-name="afii10037" unicode="&#x423;" horiz-adv-x="671" 
d="M299 185l-45 -5l-126 411q-9 32 -19 41.5t-34 13.5l10 51h298l-10 -51q-25 0 -43.5 -10.5t-18.5 -34.5q0 -7 3 -18l63 -244h20q6 21 59 100l93 143q12 20 12 34q0 30 -50 30l10 51h235l-10 -51q-31 -4 -46 -14.5t-36 -43.5l-264 -408q-34 -53 -54.5 -81t-46 -54.5
t-51 -37t-58.5 -17t-80 -6.5l-11 116q85 9 128.5 26.5t71.5 58.5z" />
    <glyph glyph-name="afii10038" unicode="&#x424;" horiz-adv-x="880" 
d="M30 314q0 156 98.5 235t284.5 82q4 27 -8 37.5t-44 10.5l10 53h304l-10 -53q-31 0 -47.5 -10t-25.5 -37q138 -2 210.5 -58.5t72.5 -155.5q0 -157 -99 -236t-286 -81q-4 -30 9 -40.5t44 -10.5l-9 -50h-304l9 50q32 0 48 10t25 40q-137 2 -209.5 58t-72.5 156zM692 441
q0 57 -27 85.5t-88 32.5l-74 -386q94 7 141.5 77.5t47.5 190.5zM213 291q0 -57 27 -86t87 -33l74 386q-94 -7 -141 -77t-47 -190z" />
    <glyph glyph-name="afii10039" unicode="&#x425;" horiz-adv-x="700" 
d="M636 588l-188 -207l122 -272q14 -31 28 -43t42 -16l-9 -50h-313l9 50q34 0 46.5 15.5t1.5 42.5l-66 156h-6l-121 -148q-20 -24 -20 -40q0 -24 43 -26l-9 -50h-226l9 50q30 4 50.5 16.5t45.5 42.5l195 234l-107 245q-13 30 -25 41t-36 15l11 53h299l-10 -53q-54 0 -54 -31
q0 -8 5 -21l57 -137h6l110 132q18 21 18 36q0 21 -38 21l10 53h226l-10 -53q-30 -4 -50 -15.5t-46 -40.5z" />
    <glyph glyph-name="afii10040" unicode="&#x426;" horiz-adv-x="770" 
d="M637 -180h-98q19 95 19 131q0 26 -9 37.5t-29 11.5h-540l10 50q36 0 52.5 14t24.5 56l88 454q3 15 3 30q0 23 -12.5 31.5t-41.5 8.5l11 53h309l-11 -53q-36 0 -51.5 -14t-23.5 -56l-96 -492h206l96 492q4 20 4 31q0 23 -12 31t-41 8l11 53h309l-11 -53q-36 0 -52.5 -14
t-24.5 -56l-86 -444q-2 -10 -2 -17q0 -30 47 -31h29l-15 -82z" />
    <glyph glyph-name="afii10041" unicode="&#x427;" horiz-adv-x="741" 
d="M80 644l10 53h299l-10 -53q-30 0 -44 -14t-22 -56l-32 -167q-4 -23 -4 -36q0 -38 20.5 -53.5t62.5 -15.5q56 0 117 24l48 248q4 21 4 33q0 21 -10.5 29t-33.5 8l10 53h301l-10 -53q-36 0 -53 -14t-25 -56l-88 -454q-4 -21 -4 -31q0 -22 12.5 -30.5t41.5 -8.5l-9 -50h-311
l9 50q36 0 53 14t25 56l23 120q-79 -43 -162 -43q-101 0 -154.5 39.5t-53.5 109.5q0 23 5 48l32 165q6 31 6 46q0 23 -12 31t-41 8z" />
    <glyph glyph-name="afii10042" unicode="&#x428;" horiz-adv-x="1060" 
d="M-20 0l9 50q36 0 52.5 14t24.5 56l88 454q3 15 3 31q0 23 -12 31t-41 8l10 53h297l-10 -53q-28 0 -43 -14.5t-23 -55.5l-96 -495h160l96 495q4 21 4 33q0 21 -10 29t-32 8l10 53h295l-10 -53q-36 0 -53 -14t-25 -56l-96 -495h172l96 495q4 21 4 33q0 21 -10 29t-32 8
l10 53h297l-10 -53q-36 0 -53 -14t-25 -56l-88 -454q-4 -19 -4 -31q0 -22 12.5 -30.5t41.5 -8.5l-9 -50h-1000z" />
    <glyph glyph-name="afii10043" unicode="&#x429;" horiz-adv-x="1070" 
d="M938 -180h-98q19 95 19 131q0 49 -33 49h-846l9 50q36 0 52.5 14t24.5 56l88 454q3 16 3 31q0 23 -12 31t-41 8l10 53h297l-10 -53q-28 0 -43 -14.5t-23 -55.5l-96 -495h160l96 495q4 21 4 33q0 21 -10 29t-32 8l10 53h295l-10 -53q-36 0 -53 -14t-25 -56l-96 -495h172
l96 495q4 21 4 33q0 21 -10 29t-32 8l10 53h297l-10 -53q-36 0 -53 -14t-25 -56l-86 -444q-2 -10 -2 -17q0 -30 48 -31h29l-15 -82z" />
    <glyph glyph-name="afii10044" unicode="&#x42a;" horiz-adv-x="775" 
d="M469 0h-341l9 50q36 0 52.5 14t24.5 56l97 497h-39q-54 0 -76.5 -21t-52.5 -93h-88l49 194h469l-10 -53q-36 0 -52.5 -14t-25.5 -56l-28 -147h78q101 0 163 -41t62 -126q0 -121 -76.5 -190.5t-214.5 -69.5zM445 83q35 0 60 17t37.5 45.5t17.5 57.5t5 61q0 43 -20.5 63
t-62.5 20h-41l-51 -264h55z" />
    <glyph glyph-name="afii10045" unicode="&#x42b;" horiz-adv-x="963" 
d="M311 0h-331l9 50q36 0 52.5 14t24.5 56l87 449q4 21 4 36q0 23 -12 31t-41 8l10 53h311l-10 -53q-36 0 -52.5 -14t-25.5 -56l-28 -147h68q101 0 163 -41t62 -126q0 -121 -76.5 -190.5t-214.5 -69.5zM287 83q35 0 60 17t37.5 45.5t17.5 57.5t5 61q0 43 -20.5 63t-62.5 20
h-31l-51 -264h45zM659 120l87 449q4 20 4 36q0 23 -12 31t-41 8l10 53h311l-10 -53q-36 0 -53 -14t-25 -56l-88 -454q-4 -20 -4 -31q0 -22 12.5 -30.5t41.5 -8.5l-9 -50h-311l9 50q36 0 53 14t25 56z" />
    <glyph glyph-name="afii10046" unicode="&#x42c;" horiz-adv-x="627" 
d="M321 0h-341l9 50q36 0 52.5 14t24.5 56l87 449q4 20 4 36q0 23 -12 31t-41 8l10 53h311l-10 -53q-36 0 -52.5 -14t-25.5 -56l-28 -147h78q101 0 163 -41t62 -126q0 -121 -76.5 -190.5t-214.5 -69.5zM297 83q35 0 60 17t37.5 45.5t17.5 57.5t5 61q0 43 -20.5 63t-62.5 20
h-41l-51 -264h55z" />
    <glyph glyph-name="afii10047" unicode="&#x42d;" horiz-adv-x="656" 
d="M198 310l17 85h213q9 62 9 117q0 63 -21 89.5t-65 26.5q-47 0 -76.5 -26.5t-52.5 -84.5h-124l29 144q106 48 233 48t199 -64t72 -190q0 -96 -22.5 -178.5t-68 -148t-121 -103.5t-173.5 -38q-150 0 -241 66l27 140h115q0 -68 19 -98t75 -30q40 0 70 19.5t55 78.5
q28 65 46 147h-214z" />
    <glyph glyph-name="afii10048" unicode="&#x42e;" horiz-adv-x="1036" 
d="M653 -14q-134 0 -201.5 80.5t-67.5 211.5q0 21 1 32h-98l-37 -190q-4 -20 -4 -31q0 -22 12.5 -30.5t41.5 -8.5l-9 -50h-311l9 50q36 0 53 14t25 56l87 450q4 20 4 35q0 23 -12 31t-41 8l10 53h311l-10 -53q-36 0 -53 -14t-25 -56l-35 -179h94q29 134 116.5 224t225.5 90
q130 0 201 -76.5t71 -216.5q0 -82 -21.5 -156.5t-63 -137t-112.5 -99.5t-161 -37zM739 629q-52 0 -86 -54q-78 -126 -78 -366q0 -73 16.5 -110t60.5 -37q51 0 87 53q40 58 60 160.5t20 198.5q0 85 -15.5 120t-64.5 35z" />
    <glyph glyph-name="afii10049" unicode="&#x42f;" horiz-adv-x="658" 
d="M226 308v4q-62 5 -106 46.5t-44 101.5q0 115 77 176t202 61h358l-10 -53q-36 0 -52.5 -14t-24.5 -56l-88 -454q-4 -21 -4 -31q0 -22 12.5 -30.5t41.5 -8.5l-9 -50h-304l9 50q31 0 47 14.5t24 55.5l31 164q-56 0 -74.5 -17t-57.5 -103q-49 -107 -108.5 -143t-172.5 -36
l-13 116q43 6 63 25t39 58q29 61 62 89.5t102 34.5zM395 617q-68 0 -97.5 -51.5t-29.5 -132.5q0 -38 16.5 -51.5t52.5 -13.5h66l48 249h-56z" />
    <glyph glyph-name="afii10065" unicode="&#x430;" horiz-adv-x="593" 
d="M338 196l56 237q-14 14 -43 14q-40 0 -77 -45t-58.5 -111t-21.5 -129q0 -69 33 -69q43 0 111 103zM322 93q-68 -107 -173 -107q-61 0 -95 38.5t-34 109.5q0 100 44.5 191.5t120 147.5t159.5 56t100 -59q15 27 41 46h107q-24 -55 -41 -128l-55 -243q-7 -30 -7 -41
q0 -17 10 -24.5t34 -7.5q15 0 31 2l4 -45q-67 -38 -144 -38q-70 0 -91 45q-11 24 -11 57z" />
    <glyph glyph-name="afii10066" unicode="&#x431;" horiz-adv-x="563" 
d="M477 598l-108 -24q-60 -13 -94 -26t-55.5 -36t-30 -49t-16.5 -76h7q34 65 76 96t106 31q86 0 132 -43.5t46 -123.5q0 -159 -72.5 -260t-216.5 -101q-105 0 -160.5 59t-55.5 157q1 211 77.5 335t200.5 156l116 30q30 8 41 14.5t27 22.5l92 -79q-22 -34 -47 -54t-65 -29z
M319 440q-37 0 -61 -38q-29 -46 -45.5 -124.5t-16.5 -143.5q0 -78 50 -78q24 0 38.5 13.5t29.5 44.5q22 44 34 123.5t12 136.5q0 35 -8.5 50.5t-32.5 15.5z" />
    <glyph glyph-name="afii10067" unicode="&#x432;" horiz-adv-x="549" 
d="M518 410q0 -76 -105 -127q116 -17 116 -104q0 -60 -43.5 -105.5t-105.5 -66.5t-129 -21q-105 0 -163 52.5t-58 147.5q0 145 86.5 244t219.5 99q83 0 132.5 -31t49.5 -88zM315 245q-62 -16 -113 -20q-2 -32 -2 -53q0 -60 13.5 -88t46.5 -28q40 0 67 28.5t27 77.5
q0 61 -39 83zM321 459q-34 0 -63.5 -45.5t-45.5 -119.5q65 9 107 40t42 76q0 23 -10.5 36t-29.5 13z" />
    <glyph glyph-name="afii10068" unicode="&#x433;" horiz-adv-x="495" 
d="M241 -13q-113 0 -169.5 33.5t-56.5 94.5q0 72 41.5 109.5t153.5 67.5l36 10q79 20 79 95q0 63 -53 63q-31 0 -49.5 -17.5t-36.5 -55.5h-94l22 108q88 34 181 34t149 -30.5t56 -87.5q0 -72 -37 -107t-133 -65l-34 -10q-49 -15 -69.5 -39t-20.5 -67q0 -25 15.5 -46
t44.5 -21q33 0 56.5 18t39.5 68h102l-23 -112q-91 -43 -200 -43z" />
    <glyph glyph-name="afii10069" unicode="&#x434;" horiz-adv-x="569" 
d="M278 516q58 0 102 -28q0 55 -3 76q-7 45 -29 56.5t-92 11.5h-77l-16 81q56 27 121 27q66 0 107 -21.5t74 -79.5q30 -53 52 -126t22 -143q0 -76 -15.5 -142.5t-48 -122t-88 -87.5t-129.5 -32q-101 0 -162 54t-61 150q0 129 70 227.5t173 98.5zM260 55q36 0 64.5 69t41 148
t14.5 150q-28 22 -63 22t-61 -43t-37.5 -103t-11.5 -125q0 -64 10.5 -91t42.5 -27z" />
    <glyph glyph-name="afii10070" unicode="&#x435;" horiz-adv-x="531" 
d="M521 386q0 -171 -294 -171h-23q-3 -15 -3 -43q0 -85 88 -85q84 0 146 53l33 -46q-92 -108 -231 -108q-103 0 -155 52t-52 148q0 143 89.5 243t216.5 100q185 0 185 -143zM366 410q0 22 -11 34.5t-30 12.5q-35 0 -64.5 -47t-45.5 -127q21 0 41 3q110 16 110 124z" />
    <glyph glyph-name="afii10072" unicode="&#x436;" horiz-adv-x="955" 
d="M119 -14q-81 0 -124 52l24 94h80q-1 -45 5.5 -60.5t23.5 -15.5q29 0 52 50.5t34 119t11 134.5q0 40 -9 60t-34 20q-19 0 -34.5 -10t-40.5 -35l-35 39q76 95 166 95q137 0 137 -171q0 -24 -3 -50h49l34 202l137 15h30l-59 -217h49q29 96 87.5 158.5t146.5 62.5
q81 0 124 -52l-24 -94h-80q0 45 -5.5 60.5t-23.5 15.5q-29 0 -52 -50.5t-34 -119t-11 -134.5q0 -40 9 -60t34 -20q19 0 34.5 10t40.5 35l35 -39q-76 -95 -166 -95q-137 0 -137 171q0 41 5 72h-48l-32 -224l-137 -15h-30l57 239h-47q-25 -104 -85.5 -173.5t-153.5 -69.5z" />
    <glyph glyph-name="afii10073" unicode="&#x437;" horiz-adv-x="527" 
d="M202 -14q-121 0 -192 50l23 105h115q0 -44 10.5 -65t44.5 -21q44 0 65 34.5t21 84.5q0 27 -14.5 39.5t-48.5 12.5h-33l15 72h36q43 0 63.5 35.5t20.5 81.5q0 45 -42 45q-59 0 -78 -84h-120l24 115q82 38 195 38q199 0 199 -113q0 -123 -152 -145l-2 -6q125 -9 125 -98
q0 -66 -42.5 -108.5t-101 -57.5t-131.5 -15z" />
    <glyph glyph-name="afii10074" unicode="&#x438;" horiz-adv-x="591" 
d="M323 88q-67 -102 -179 -102q-55 0 -83 28t-28 79q0 28 7 56l51 208q6 23 6 38q0 49 -67 49l9 42q70 37 139 37q95 0 95 -86q0 -18 -7 -51l-51 -210q-5 -19 -5 -37q0 -34 31 -34q45 0 101 89l68 322h166l-77 -371q-6 -25 -6 -40q0 -18 10 -25.5t35 -7.5q11 0 29 2l4 -45
q-67 -38 -144 -38q-64 0 -88 34q-16 22 -16 63z" />
    <glyph glyph-name="afii10075" unicode="&#x439;" horiz-adv-x="591" 
d="M323 88q-67 -102 -179 -102q-55 0 -83 28t-28 79q0 28 7 56l51 208q6 23 6 38q0 49 -67 49l9 42q70 37 139 37q95 0 95 -86q0 -18 -7 -51l-51 -210q-5 -19 -5 -37q0 -34 31 -34q45 0 101 89l68 322h166l-77 -371q-6 -25 -6 -40q0 -18 10 -25.5t35 -7.5q11 0 29 2l4 -45
q-67 -38 -144 -38q-64 0 -88 34q-16 22 -16 63zM331 568q-69 0 -106 42t-39 107l45 22q30 -68 116 -68q79 0 141 69l42 -23q-23 -64 -76 -106.5t-123 -42.5z" />
    <glyph glyph-name="afii10076" unicode="&#x43a;" horiz-adv-x="596" 
d="M283 372l-16 -74h7q48 0 72.5 23t46.5 78q25 63 53 93.5t86 30.5q52 0 89 -40l-56 -78q-24 15 -42 15q-19 0 -30 -14t-35 -63q-16 -32 -33.5 -47.5t-54.5 -25.5v-4q76 -3 104 -26.5t29 -69.5q1 -40 10 -57.5t36 -24.5l-17 -104q-106 0 -147 27.5t-43 98.5
q-1 71 -13.5 92.5t-48.5 21.5h-29l-47 -224h-169l75 348q8 36 8 50q0 45 -66 46l9 42q74 37 138 37q90 0 90 -102q0 -21 -6 -49z" />
    <glyph glyph-name="afii10077" unicode="&#x43b;" horiz-adv-x="622" 
d="M607 516l-74 -360q-8 -35 -8 -52q0 -18 9.5 -25t33.5 -7q11 0 31 2l4 -45q-67 -38 -144 -38q-106 0 -106 96q0 21 9 62l60 288h-133q-33 -161 -67 -266t-78.5 -145.5t-144.5 -40.5l-9 109q40 10 62 19.5t43 32.5q24 26 43 69t28.5 79t23.5 100q5 22 5 34q0 28 -25 28
q-15 0 -30 -5l-12 48q46 17 122 17h357z" />
    <glyph glyph-name="afii10078" unicode="&#x43c;" horiz-adv-x="783" 
d="M400 167l131 281q19 41 47 58t77 17q50 0 105 -23l-59 -355q-5 -28 -5 -41q0 -18 9 -25t33 -7q7 0 31 2l4 -45q-67 -38 -143 -38q-97 0 -97 95q0 14 7 63l13 88q12 82 32 130h-6l-165 -359l-113 -17h-29l-25 376h-6q-18 -111 -38 -185q-12 -46 -25 -77t-35.5 -60.5
t-57 -44.5t-81.5 -15l-9 109q62 17 93 55q48 59 86 245q4 20 4 32q0 30 -26 30q-15 0 -30 -5l-12 48q62 25 149 25q59 0 89.5 -24.5t33.5 -81.5l13 -251h5z" />
    <glyph glyph-name="afii10079" unicode="&#x43d;" horiz-adv-x="625" 
d="M441 516h169l-74 -360q-8 -35 -8 -52q0 -18 9.5 -25t33.5 -7q11 0 31 2l4 -45q-67 -38 -144 -38q-106 0 -106 96q0 21 9 62l14 70h-129l-46 -219h-169l81 376q2 10 2 22q0 45 -66 46l9 42q74 37 138 37q90 0 90 -102q0 -21 -6 -49l-16 -74h129z" />
    <glyph glyph-name="afii10080" unicode="&#x43e;" horiz-adv-x="567" 
d="M546 316q0 -138 -76 -234t-224 -96q-100 0 -158.5 57t-58.5 154q0 61 18 118.5t52.5 106t93 78t132.5 29.5q100 0 160.5 -52.5t60.5 -160.5zM251 56q51 0 76 69q17 46 30.5 119.5t13.5 136.5q0 77 -50 77q-25 0 -42 -15t-31 -53q-19 -54 -32 -130t-13 -139q0 -65 48 -65z
" />
    <glyph glyph-name="afii10081" unicode="&#x43f;" horiz-adv-x="613" 
d="M347 149l48 194q3 11 3 20q0 28 -29 28q-48 0 -110 -88l-65 -303h-169l81 376q2 8 2 22q0 45 -66 46l9 42q74 37 138 37q84 0 84 -102q0 -17 -1 -27q81 135 200 135q51 0 78 -29t27 -77q0 -22 -6 -46l-55 -232q-7 -30 -7 -41q0 -18 10 -25t34 -7q11 0 31 2l4 -45
q-67 -38 -144 -38q-106 0 -106 96q0 27 9 62z" />
    <glyph glyph-name="afii10082" unicode="&#x440;" horiz-adv-x="615" 
d="M270 337l-55 -265q11 -19 41 -19q47 0 83.5 49.5t53 113.5t16.5 123q0 67 -45 67q-47 0 -94 -69zM281 420v-6q73 115 180 115q60 0 97 -42.5t37 -115.5q0 -163 -95.5 -274t-235.5 -111q-44 0 -66 9l-16 -71q-5 -21 -5 -37q0 -19 11 -26t37 -7l-12 -50h-286l12 50
q35 0 48.5 13.5t22.5 56.5l96 452q5 26 -1 40q-10 27 -63 28l9 42q74 37 138 37q92 0 92 -103z" />
    <glyph glyph-name="afii10083" unicode="&#x441;" horiz-adv-x="483" 
d="M340 529q103 0 153 -42l-21 -116h-114q2 47 -4.5 67t-32.5 20q-49 0 -82.5 -80t-33.5 -188q0 -104 83 -104q36 0 59 9.5t56 32.5l35 -50q-75 -92 -209 -92q-95 0 -147 56t-52 157q0 81 35 155t107.5 124.5t167.5 50.5z" />
    <glyph glyph-name="afii10084" unicode="&#x442;" horiz-adv-x="889" 
d="M623 149l47 190q3 12 3 20q0 28 -29 28q-39 0 -99 -84l-63 -303h-169l71 339q3 12 3 20q0 28 -29 28q-39 0 -99 -84l-65 -303h-169l81 376q6 26 -1 41q-12 26 -63 27l9 42q74 37 138 37q84 0 84 -102q0 -17 -1 -27q81 135 185 135q49 0 77 -32t28 -80q0 -8 -2 -22
q87 134 188 134q51 0 78 -29t27 -77q0 -22 -6 -46l-55 -232q-7 -30 -7 -41q0 -17 10 -24.5t34 -7.5q7 0 31 2l4 -45q-67 -38 -144 -38q-106 0 -106 96q0 27 9 62z" />
    <glyph glyph-name="afii10085" unicode="&#x443;" horiz-adv-x="505" 
d="M188 18l-75 -3q-4 104 -17 203l-22 160q-6 47 -19.5 58t-49.5 11l8 43q69 33 128 33q50 0 70 -30.5t29 -104.5l13 -107q5 -36 5 -79q0 -54 -9 -99h6l38 85q56 126 73.5 198.5t17.5 136.5l146 -13v-46l-255 -473q-93 -171 -259 -196l-71 115q43 6 61 9.5t54 12t55 18.5
t40 27.5t33 40.5z" />
    <glyph glyph-name="afii10086" unicode="&#x444;" horiz-adv-x="807" 
d="M294 529q56 0 84 -32l10 47q25 114 33 169l139 23h30l-54 -252q48 45 110 45q69 0 104 -47.5t35 -136.5q0 -60 -16.5 -121.5t-48 -115.5t-83.5 -88t-116 -34q-57 0 -84 33l-43 -203l-174 -24v34q31 75 55 188l4 18q-49 -45 -110 -45q-69 0 -104 47.5t-35 136.5
q0 60 16.5 121.5t48 115t83.5 87.5t116 34zM237 82q30 0 57 21l68 322q-15 32 -45 32q-47 0 -83 -101t-36 -187q0 -51 9 -69t30 -18zM578 434q-30 0 -57 -22l-69 -321q16 -33 46 -33q47 0 83 101.5t36 187.5q0 51 -9 69t-30 18z" />
    <glyph glyph-name="afii10087" unicode="&#x445;" horiz-adv-x="537" 
d="M191 251l-51 139q-16 42 -31.5 53t-56.5 11l7 42q56 27 130 27q44 0 65.5 -14t32.5 -49l33 -102l105 158h152l-9 -45q-65 -6 -129 -84l-91 -111l51 -148q13 -37 25 -49.5t41 -12.5q5 0 27 2l7 -47q-66 -30 -137 -30q-57 0 -80 20.5t-40 80.5l-23 79l-112 -171h-147l9 51
q39 7 66 25t63 63z" />
    <glyph glyph-name="afii10088" unicode="&#x446;" horiz-adv-x="591" 
d="M323 88q-67 -102 -179 -102q-55 0 -83 28t-28 79q0 28 7 56l51 208q6 23 6 38q0 49 -67 49l9 42q70 37 139 37q95 0 95 -86q0 -18 -7 -51l-51 -210q-5 -23 -5 -37q0 -34 31 -34q45 0 101 89l68 322h166l-77 -371q-6 -25 -6 -40q0 -18 10 -25.5t35 -7.5q11 0 29 2l4 -45
q-9 -33 -9 -87q0 -118 -121 -150l-23 56q36 19 36 51q0 8 -2 22t-2 27q0 24 31 48q-28 -5 -54 -5q-69 0 -91 39q-13 22 -13 58z" />
    <glyph glyph-name="afii10089" unicode="&#x447;" horiz-adv-x="575" 
d="M313 125l17 82q-65 -83 -161 -83q-55 0 -84.5 28t-29.5 79q0 28 7 56l19 70q6 23 6 38q0 49 -67 49l9 42q70 37 139 37q95 0 95 -86q0 -26 -7 -52l-19 -71q-7 -30 -7 -40q0 -31 30 -31q42 0 93 77l41 196h166l-77 -370q-6 -30 -6 -41q0 -18 10 -25.5t35 -7.5q11 0 29 2
l4 -45q-67 -38 -144 -38q-103 0 -103 91q0 20 5 43z" />
    <glyph glyph-name="afii10090" unicode="&#x448;" horiz-adv-x="870" 
d="M405 516h170l-76 -340q-5 -25 -5 -39q0 -32 29 -32q42 0 98 89l68 322h166l-77 -371q-6 -30 -6 -40q0 -18 10 -25.5t35 -7.5q11 0 29 2l4 -45q-67 -38 -144 -38q-74 0 -94 45q-10 23 -10 52q-67 -102 -174 -102q-75 0 -100 51q-10 21 -11 47q-67 -98 -171 -98
q-55 0 -83 28t-28 79q0 28 7 56l49 208q6 23 6 38q0 49 -67 49l9 42q70 37 139 37q95 0 95 -86q0 -18 -7 -51l-49 -210q-6 -26 -6 -40q0 -31 29 -31q41 0 91 77z" />
    </font>
</defs>
</svg>
